STARTFONT 2.2
FONT -FontForge-Microsoft JhengHei-Book-R-Normal--16-150-75-75-P-158-ISO10646-1
SIZE 15 75 75
FONTBOUNDINGBOX 22 20 -2 -4
METRICSSET 2
SWIDTH 1000 0
DWIDTH 16 0
SWIDTH1 1000 0
DWIDTH1 16 0
VVECTOR 8,14
COMMENT "Generated by fontforge, http://fontforge.sourceforge.net"
COMMENT "(c)2016 Microsoft Corporation. All rights reserved."
STARTPROPERTIES 40
FOUNDRY "FontForge"
FAMILY_NAME "Microsoft JhengHei"
WEIGHT_NAME "Book"
SLANT "R"
SETWIDTH_NAME "Normal"
ADD_STYLE_NAME ""
PIXEL_SIZE 16
POINT_SIZE 150
RESOLUTION_X 75
RESOLUTION_Y 75
SPACING "P"
AVERAGE_WIDTH 158
CHARSET_REGISTRY "ISO10646"
CHARSET_ENCODING "1"
FONTNAME_REGISTRY ""
CHARSET_COLLECTIONS "ASCII ISOLatin1Encoding ISO8859-7 JISX0208.1997 GB2312.1980 BIG5 ISO10646-1"
FONT_NAME "MicrosoftJhengHeiRegular"
FACE_NAME "Microsoft JhengHei"
COPYRIGHT "(c)2016 Microsoft Corporation. All rights reserved."
FONT_VERSION "6.14"
FONT_ASCENT 14
FONT_DESCENT 2
UNDERLINE_POSITION -2
UNDERLINE_THICKNESS 1
X_HEIGHT 8
CAP_HEIGHT 11
RAW_ASCENT 890
RAW_DESCENT 109
NORM_SPACE 4
RELATIVE_WEIGHT 40
RELATIVE_SETWIDTH 50
SUPERSCRIPT_X 0
SUPERSCRIPT_Y 7
SUPERSCRIPT_SIZE 10
SUBSCRIPT_X 0
SUBSCRIPT_Y 2
SUBSCRIPT_SIZE 10
FIGURE_WIDTH 9
AVG_LOWERCASE_WIDTH 107
AVG_UPPERCASE_WIDTH 121
ENDPROPERTIES
CHARS 29852
STARTCHAR uni0002
ENCODING 2
SWIDTH 529 0
DWIDTH 8 0
SWIDTH1 529 0
DWIDTH1 8 0
BBX 1 1 0 0
BITMAP
00
ENDCHAR
STARTCHAR uni0002.dup1
ENCODING 13
SWIDTH 529 0
DWIDTH 8 0
SWIDTH1 529 0
DWIDTH1 8 0
BBX 1 1 0 0
BITMAP
00
ENDCHAR
STARTCHAR space
ENCODING 32
SWIDTH 250 0
DWIDTH 4 0
BBX 1 1 0 0
BITMAP
00
ENDCHAR
STARTCHAR exclam
ENCODING 33
SWIDTH 304 0
DWIDTH 5 0
BBX 2 12 2 0
BITMAP
80
80
80
80
80
80
80
80
00
00
C0
C0
ENDCHAR
STARTCHAR quotedbl
ENCODING 34
SWIDTH 416 0
DWIDTH 7 0
BBX 4 4 1 8
BITMAP
90
90
90
90
ENDCHAR
STARTCHAR numbersign
ENCODING 35
SWIDTH 638 0
DWIDTH 10 0
BBX 10 11 0 1
BITMAP
0900
0900
1200
7FC0
1200
1200
1200
FF80
1200
2400
2400
ENDCHAR
STARTCHAR dollar
ENCODING 36
SWIDTH 579 0
DWIDTH 9 0
BBX 7 15 1 -2
BITMAP
10
38
54
90
90
D0
70
1C
16
12
12
96
78
10
10
ENDCHAR
STARTCHAR percent
ENCODING 37
SWIDTH 880 0
DWIDTH 14 0
BBX 12 12 1 0
BITMAP
7040
8880
8880
8900
8A00
7200
04E0
0510
0910
1110
1110
20E0
ENDCHAR
STARTCHAR ampersand
ENCODING 38
SWIDTH 860 0
DWIDTH 14 0
BBX 12 12 1 0
BITMAP
3C00
6200
4200
4220
2C20
3820
4660
8340
8180
8180
43C0
3C70
ENDCHAR
STARTCHAR quotesingle
ENCODING 39
SWIDTH 244 0
DWIDTH 4 0
BBX 1 4 2 8
BITMAP
80
80
80
80
ENDCHAR
STARTCHAR parenleft
ENCODING 40
SWIDTH 320 0
DWIDTH 5 0
BBX 4 15 1 -3
BITMAP
10
20
40
40
80
80
80
80
80
80
80
40
40
20
10
ENDCHAR
STARTCHAR parenright
ENCODING 41
SWIDTH 320 0
DWIDTH 5 0
BBX 4 15 0 -3
BITMAP
80
40
20
20
10
10
10
10
10
10
10
20
20
40
80
ENDCHAR
STARTCHAR asterisk
ENCODING 42
SWIDTH 447 0
DWIDTH 7 0
BBX 7 6 0 6
BITMAP
10
10
FE
10
28
44
ENDCHAR
STARTCHAR plus
ENCODING 43
SWIDTH 737 0
DWIDTH 12 0
BBX 7 7 2 2
BITMAP
10
10
10
FE
10
10
10
ENDCHAR
STARTCHAR comma
ENCODING 44
SWIDTH 230 0
DWIDTH 4 0
BBX 2 4 1 -2
BITMAP
40
40
80
80
ENDCHAR
STARTCHAR hyphen
ENCODING 45
SWIDTH 431 0
DWIDTH 7 0
BBX 5 1 1 4
BITMAP
F8
ENDCHAR
STARTCHAR period
ENCODING 46
SWIDTH 230 0
DWIDTH 4 0
BBX 2 2 1 0
BITMAP
C0
C0
ENDCHAR
STARTCHAR slash
ENCODING 47
SWIDTH 416 0
DWIDTH 7 0
BBX 7 14 0 -2
BITMAP
02
02
04
04
08
08
10
10
20
20
40
40
80
80
ENDCHAR
STARTCHAR zero
ENCODING 48
SWIDTH 579 0
DWIDTH 9 0
BBX 7 12 1 0
BITMAP
38
44
46
82
82
82
82
82
82
84
44
38
ENDCHAR
STARTCHAR one
ENCODING 49
SWIDTH 579 0
DWIDTH 9 0
BBX 7 12 1 0
BITMAP
10
70
D0
10
10
10
10
10
10
10
10
FE
ENDCHAR
STARTCHAR two
ENCODING 50
SWIDTH 579 0
DWIDTH 9 0
BBX 7 12 1 0
BITMAP
3C
46
02
02
02
04
0C
18
30
60
C0
FE
ENDCHAR
STARTCHAR three
ENCODING 51
SWIDTH 579 0
DWIDTH 9 0
BBX 6 12 1 0
BITMAP
78
8C
04
04
08
70
0C
04
04
04
88
70
ENDCHAR
STARTCHAR four
ENCODING 52
SWIDTH 579 0
DWIDTH 9 0
BBX 9 12 0 0
BITMAP
0600
0600
0A00
1200
1200
2200
4200
C200
FF80
0200
0200
0200
ENDCHAR
STARTCHAR five
ENCODING 53
SWIDTH 579 0
DWIDTH 9 0
BBX 6 12 2 0
BITMAP
F8
80
80
80
80
F0
08
04
04
04
88
70
ENDCHAR
STARTCHAR six
ENCODING 54
SWIDTH 579 0
DWIDTH 9 0
BBX 7 12 1 0
BITMAP
3C
60
40
80
80
BC
C6
82
82
82
44
38
ENDCHAR
STARTCHAR seven
ENCODING 55
SWIDTH 579 0
DWIDTH 9 0
BBX 8 12 0 0
BITMAP
FF
02
06
06
04
0C
08
18
10
10
20
20
ENDCHAR
STARTCHAR eight
ENCODING 56
SWIDTH 579 0
DWIDTH 9 0
BBX 7 12 1 0
BITMAP
3C
C6
82
82
44
38
6C
C6
82
82
C6
78
ENDCHAR
STARTCHAR nine
ENCODING 57
SWIDTH 579 0
DWIDTH 9 0
BBX 7 12 1 0
BITMAP
38
44
82
82
82
46
3A
02
02
04
4C
38
ENDCHAR
STARTCHAR colon
ENCODING 58
SWIDTH 230 0
DWIDTH 4 0
BBX 2 9 1 0
BITMAP
C0
C0
00
00
00
00
00
C0
C0
ENDCHAR
STARTCHAR semicolon
ENCODING 59
SWIDTH 230 0
DWIDTH 4 0
BBX 2 11 1 -2
BITMAP
C0
C0
00
00
00
00
00
40
40
80
80
ENDCHAR
STARTCHAR less
ENCODING 60
SWIDTH 737 0
DWIDTH 12 0
BBX 7 8 2 1
BITMAP
02
0E
18
60
C0
70
1C
02
ENDCHAR
STARTCHAR equal
ENCODING 61
SWIDTH 737 0
DWIDTH 12 0
BBX 8 4 2 3
BITMAP
FF
00
00
FF
ENDCHAR
STARTCHAR greater
ENCODING 62
SWIDTH 737 0
DWIDTH 12 0
BBX 7 8 3 1
BITMAP
80
E0
30
0C
06
1C
70
80
ENDCHAR
STARTCHAR question
ENCODING 63
SWIDTH 484 0
DWIDTH 8 0
BBX 6 12 1 0
BITMAP
78
8C
04
04
08
10
20
20
00
00
30
30
ENDCHAR
STARTCHAR at
ENCODING 64
SWIDTH 1031 0
DWIDTH 17 0
BBX 14 14 1 -2
BITMAP
0FC0
1830
2018
43C8
C444
8844
8844
8844
8844
8CC8
4770
6000
3020
0FC0
ENDCHAR
STARTCHAR A
ENCODING 65
SWIDTH 692 0
DWIDTH 11 0
BBX 11 12 0 0
BITMAP
0400
0A00
0A00
1B00
1100
1100
3180
3F80
4040
4040
8020
8020
ENDCHAR
STARTCHAR B
ENCODING 66
SWIDTH 614 0
DWIDTH 10 0
BBX 6 12 2 0
BITMAP
F8
8C
84
84
88
F8
8C
84
84
84
88
F8
ENDCHAR
STARTCHAR C
ENCODING 67
SWIDTH 667 0
DWIDTH 11 0
BBX 9 12 1 0
BITMAP
0F00
3080
4000
4000
8000
8000
8000
8000
8000
4000
2080
1F00
ENDCHAR
STARTCHAR D
ENCODING 68
SWIDTH 754 0
DWIDTH 12 0
BBX 9 12 2 0
BITMAP
FC00
8300
8100
8080
8080
8080
8080
8080
8180
8100
8600
FC00
ENDCHAR
STARTCHAR E
ENCODING 69
SWIDTH 544 0
DWIDTH 9 0
BBX 6 12 2 0
BITMAP
FC
80
80
80
80
F8
80
80
80
80
80
FC
ENDCHAR
STARTCHAR F
ENCODING 70
SWIDTH 524 0
DWIDTH 8 0
BBX 6 12 2 0
BITMAP
FC
80
80
80
80
FC
80
80
80
80
80
80
ENDCHAR
STARTCHAR G
ENCODING 71
SWIDTH 738 0
DWIDTH 12 0
BBX 9 12 1 0
BITMAP
1F00
2080
4000
C000
8000
8000
8780
8080
8080
4080
2080
1F00
ENDCHAR
STARTCHAR H
ENCODING 72
SWIDTH 762 0
DWIDTH 12 0
BBX 8 12 2 0
BITMAP
81
81
81
81
81
FF
81
81
81
81
81
81
ENDCHAR
STARTCHAR I
ENCODING 73
SWIDTH 284 0
DWIDTH 5 0
BBX 1 12 2 0
BITMAP
80
80
80
80
80
80
80
80
80
80
80
80
ENDCHAR
STARTCHAR J
ENCODING 74
SWIDTH 378 0
DWIDTH 6 0
BBX 4 12 0 0
BITMAP
10
10
10
10
10
10
10
10
10
10
20
E0
ENDCHAR
STARTCHAR K
ENCODING 75
SWIDTH 621 0
DWIDTH 10 0
BBX 9 12 2 0
BITMAP
8300
8600
8C00
9800
9000
E000
B000
9800
8C00
8600
8300
8180
ENDCHAR
STARTCHAR L
ENCODING 76
SWIDTH 505 0
DWIDTH 8 0
BBX 6 12 2 0
BITMAP
80
80
80
80
80
80
80
80
80
80
80
FC
ENDCHAR
STARTCHAR M
ENCODING 77
SWIDTH 965 0
DWIDTH 15 0
BBX 11 12 2 0
BITMAP
C020
E060
E060
A0A0
B0A0
B0A0
9120
9920
8A20
8A20
8E20
8420
ENDCHAR
STARTCHAR N
ENCODING 78
SWIDTH 805 0
DWIDTH 13 0
BBX 9 12 2 0
BITMAP
C080
E080
E080
B080
9880
9880
8C80
8480
8680
8380
8180
8180
ENDCHAR
STARTCHAR O
ENCODING 79
SWIDTH 813 0
DWIDTH 13 0
BBX 11 12 1 0
BITMAP
1F00
2080
4040
C020
8020
8020
8020
8020
C020
4040
2080
1F00
ENDCHAR
STARTCHAR P
ENCODING 80
SWIDTH 601 0
DWIDTH 10 0
BBX 7 12 2 0
BITMAP
F8
86
82
82
82
84
F8
80
80
80
80
80
ENDCHAR
STARTCHAR Q
ENCODING 81
SWIDTH 813 0
DWIDTH 13 0
BBX 11 15 1 -3
BITMAP
1F00
2080
4040
8020
8020
8020
8020
8020
8020
4040
20C0
1F00
0300
0180
00C0
ENDCHAR
STARTCHAR R
ENCODING 82
SWIDTH 642 0
DWIDTH 10 0
BBX 7 12 2 0
BITMAP
F8
8C
84
84
84
88
F0
90
88
8C
84
86
ENDCHAR
STARTCHAR S
ENCODING 83
SWIDTH 571 0
DWIDTH 9 0
BBX 7 12 1 0
BITMAP
38
C4
80
80
C0
60
18
04
02
02
86
78
ENDCHAR
STARTCHAR T
ENCODING 84
SWIDTH 561 0
DWIDTH 9 0
BBX 8 12 1 0
BITMAP
FF
10
10
10
10
10
10
10
10
10
10
10
ENDCHAR
STARTCHAR U
ENCODING 85
SWIDTH 739 0
DWIDTH 12 0
BBX 9 12 1 0
BITMAP
8080
8080
8080
8080
8080
8080
8080
8080
8080
8080
4100
3E00
ENDCHAR
STARTCHAR V
ENCODING 86
SWIDTH 667 0
DWIDTH 11 0
BBX 11 12 0 0
BITMAP
8020
8020
4040
4040
2080
2080
1100
1100
1100
0A00
0A00
0400
ENDCHAR
STARTCHAR W
ENCODING 87
SWIDTH 1003 0
BBX 16 12 0 0
BITMAP
8081
8081
41C3
41C2
6242
2262
3264
3224
1634
1C3C
1C18
0C18
ENDCHAR
STARTCHAR X
ENCODING 88
SWIDTH 632 0
DWIDTH 10 0
BBX 10 12 0 0
BITMAP
C0C0
6180
2100
3300
1E00
0C00
0C00
1600
3300
2100
6180
C0C0
ENDCHAR
STARTCHAR Y
ENCODING 89
SWIDTH 593 0
DWIDTH 10 0
BBX 10 12 0 0
BITMAP
C040
4080
6080
2100
3200
1600
1400
0800
0800
0800
0800
0800
ENDCHAR
STARTCHAR Z
ENCODING 90
SWIDTH 613 0
DWIDTH 10 0
BBX 10 12 0 0
BITMAP
7FC0
0080
0100
0300
0600
0400
0800
1800
3000
2000
4000
FFC0
ENDCHAR
STARTCHAR bracketleft
ENCODING 91
SWIDTH 320 0
DWIDTH 5 0
BBX 3 15 2 -3
BITMAP
E0
80
80
80
80
80
80
80
80
80
80
80
80
80
E0
ENDCHAR
STARTCHAR backslash
ENCODING 92
SWIDTH 405 0
DWIDTH 6 0
BBX 6 14 0 -2
BITMAP
80
80
40
40
20
20
20
10
10
10
08
08
04
04
ENDCHAR
STARTCHAR bracketright
ENCODING 93
SWIDTH 320 0
DWIDTH 5 0
BBX 3 15 0 -3
BITMAP
E0
20
20
20
20
20
20
20
20
20
20
20
20
20
E0
ENDCHAR
STARTCHAR asciicircum
ENCODING 94
SWIDTH 737 0
DWIDTH 12 0
BBX 8 7 2 5
BITMAP
08
1C
34
26
62
43
81
ENDCHAR
STARTCHAR underscore
ENCODING 95
SWIDTH 448 0
DWIDTH 7 0
BBX 7 1 0 -3
BITMAP
FE
ENDCHAR
STARTCHAR grave
ENCODING 96
SWIDTH 286 0
DWIDTH 5 0
BBX 3 3 1 10
BITMAP
80
40
20
ENDCHAR
STARTCHAR a
ENCODING 97
SWIDTH 547 0
DWIDTH 9 0
BBX 6 9 1 0
BITMAP
38
4C
04
04
3C
C4
84
8C
74
ENDCHAR
STARTCHAR b
ENCODING 98
SWIDTH 632 0
DWIDTH 10 0
BBX 8 13 1 0
BITMAP
80
80
80
80
BC
C2
81
81
81
81
83
C2
BC
ENDCHAR
STARTCHAR c
ENCODING 99
SWIDTH 497 0
DWIDTH 8 0
BBX 6 9 1 0
BITMAP
38
44
80
80
80
80
80
44
38
ENDCHAR
STARTCHAR d
ENCODING 100
SWIDTH 633 0
DWIDTH 10 0
BBX 7 13 1 0
BITMAP
02
02
02
02
3A
46
82
82
82
82
82
46
3A
ENDCHAR
STARTCHAR e
ENCODING 101
SWIDTH 563 0
DWIDTH 9 0
BBX 7 9 1 0
BITMAP
38
44
82
82
FE
80
80
42
3C
ENDCHAR
STARTCHAR f
ENCODING 102
SWIDTH 333 0
DWIDTH 5 0
BBX 4 13 1 0
BITMAP
30
40
40
40
F0
40
40
40
40
40
40
40
40
ENDCHAR
STARTCHAR g
ENCODING 103
SWIDTH 633 0
DWIDTH 10 0
BBX 7 13 1 -4
BITMAP
3A
46
82
82
82
82
82
46
3A
02
02
44
38
ENDCHAR
STARTCHAR h
ENCODING 104
SWIDTH 608 0
DWIDTH 10 0
BBX 7 13 1 0
BITMAP
80
80
80
80
BC
C6
82
82
82
82
82
82
82
ENDCHAR
STARTCHAR i
ENCODING 105
SWIDTH 259 0
DWIDTH 4 0
BBX 2 13 1 0
BITMAP
C0
C0
00
00
80
80
80
80
80
80
80
80
80
ENDCHAR
STARTCHAR j
ENCODING 106
SWIDTH 258 0
DWIDTH 4 0
BBX 5 17 -2 -4
BITMAP
18
18
00
00
10
10
10
10
10
10
10
10
10
10
10
20
E0
ENDCHAR
STARTCHAR k
ENCODING 107
SWIDTH 532 0
DWIDTH 9 0
BBX 9 13 1 0
BITMAP
8000
8000
8000
8000
8300
8C00
9800
B000
E000
B000
8C00
8600
8180
ENDCHAR
STARTCHAR l
ENCODING 108
SWIDTH 259 0
DWIDTH 4 0
BBX 1 13 1 0
BITMAP
80
80
80
80
80
80
80
80
80
80
80
80
80
ENDCHAR
STARTCHAR m
ENCODING 109
SWIDTH 926 0
DWIDTH 15 0
BBX 12 9 1 0
BITMAP
BCE0
C730
8210
8210
8210
8210
8210
8210
8210
ENDCHAR
STARTCHAR n
ENCODING 110
SWIDTH 608 0
DWIDTH 10 0
BBX 7 9 1 0
BITMAP
BC
C6
82
82
82
82
82
82
82
ENDCHAR
STARTCHAR o
ENCODING 111
SWIDTH 630 0
DWIDTH 10 0
BBX 8 9 1 0
BITMAP
3C
42
81
81
81
81
81
42
3C
ENDCHAR
STARTCHAR p
ENCODING 112
SWIDTH 632 0
DWIDTH 10 0
BBX 8 13 1 -4
BITMAP
BC
C2
81
81
81
81
83
C2
BC
80
80
80
80
ENDCHAR
STARTCHAR q
ENCODING 113
SWIDTH 633 0
DWIDTH 10 0
BBX 7 13 1 -4
BITMAP
3A
46
82
82
82
82
82
46
3A
02
02
02
02
ENDCHAR
STARTCHAR r
ENCODING 114
SWIDTH 372 0
DWIDTH 6 0
BBX 5 9 1 0
BITMAP
B8
C0
80
80
80
80
80
80
80
ENDCHAR
STARTCHAR s
ENCODING 115
SWIDTH 456 0
DWIDTH 7 0
BBX 5 9 1 0
BITMAP
70
88
80
C0
30
08
08
88
70
ENDCHAR
STARTCHAR t
ENCODING 116
SWIDTH 362 0
DWIDTH 6 0
BBX 5 12 1 0
BITMAP
40
40
40
F8
40
40
40
40
40
40
40
38
ENDCHAR
STARTCHAR u
ENCODING 117
SWIDTH 608 0
DWIDTH 10 0
BBX 7 9 1 0
BITMAP
82
82
82
82
82
82
82
C6
7A
ENDCHAR
STARTCHAR v
ENCODING 118
SWIDTH 512 0
DWIDTH 8 0
BBX 8 9 0 0
BITMAP
81
81
42
42
44
24
28
28
10
ENDCHAR
STARTCHAR w
ENCODING 119
SWIDTH 774 0
DWIDTH 12 0
BBX 12 9 0 0
BITMAP
8210
C610
4620
4520
6520
2920
28C0
38C0
10C0
ENDCHAR
STARTCHAR x
ENCODING 120
SWIDTH 489 0
DWIDTH 8 0
BBX 8 9 0 0
BITMAP
C1
62
24
3C
18
3C
2C
66
C3
ENDCHAR
STARTCHAR y
ENCODING 121
SWIDTH 518 0
DWIDTH 8 0
BBX 8 13 0 -4
BITMAP
81
81
42
42
24
24
34
18
18
10
10
20
C0
ENDCHAR
STARTCHAR z
ENCODING 122
SWIDTH 486 0
DWIDTH 8 0
BBX 8 9 0 0
BITMAP
FF
02
04
08
18
10
20
40
FF
ENDCHAR
STARTCHAR braceleft
ENCODING 123
SWIDTH 320 0
DWIDTH 5 0
BBX 3 15 1 -3
BITMAP
20
40
40
40
40
40
40
80
40
40
40
40
40
40
20
ENDCHAR
STARTCHAR bar
ENCODING 124
SWIDTH 251 0
DWIDTH 4 0
BBX 1 17 1 -4
BITMAP
80
80
80
80
80
80
80
80
80
80
80
80
80
80
80
80
80
ENDCHAR
STARTCHAR braceright
ENCODING 125
SWIDTH 320 0
DWIDTH 5 0
BBX 3 15 1 -3
BITMAP
80
40
40
40
40
40
40
20
40
40
40
40
40
40
80
ENDCHAR
STARTCHAR asciitilde
ENCODING 126
SWIDTH 737 0
DWIDTH 12 0
BBX 8 3 2 3
BITMAP
71
99
8E
ENDCHAR
STARTCHAR uni00A0
ENCODING 160
SWIDTH 295 0
DWIDTH 5 0
BBX 1 1 0 0
BITMAP
00
ENDCHAR
STARTCHAR exclamdown
ENCODING 161
SWIDTH 304 0
DWIDTH 5 0
BBX 2 12 2 -3
BITMAP
C0
C0
00
00
80
80
80
80
80
80
80
80
ENDCHAR
STARTCHAR cent
ENCODING 162
SWIDTH 579 0
DWIDTH 9 0
BBX 6 12 2 0
BITMAP
10
10
38
54
90
90
90
90
54
38
10
10
ENDCHAR
STARTCHAR sterling
ENCODING 163
SWIDTH 579 0
DWIDTH 9 0
BBX 8 12 1 0
BITMAP
0E
10
20
20
20
20
FC
20
20
20
40
FF
ENDCHAR
STARTCHAR currency
ENCODING 164
SWIDTH 600 0
DWIDTH 10 0
BBX 8 9 0 2
BITMAP
81
7F
63
41
41
41
63
7F
81
ENDCHAR
STARTCHAR yen
ENCODING 165
SWIDTH 579 0
DWIDTH 9 0
BBX 7 12 1 0
BITMAP
C2
44
64
28
38
FE
10
10
FE
10
10
10
ENDCHAR
STARTCHAR brokenbar
ENCODING 166
SWIDTH 251 0
DWIDTH 4 0
BBX 1 17 1 -4
BITMAP
80
80
80
80
80
80
80
00
00
00
80
80
80
80
80
80
80
ENDCHAR
STARTCHAR section
ENCODING 167
SWIDTH 481 0
DWIDTH 8 0
BBX 6 14 1 -1
BITMAP
78
84
80
C0
60
D8
84
84
6C
38
08
04
88
70
ENDCHAR
STARTCHAR dieresis
ENCODING 168
SWIDTH 443 0
DWIDTH 7 0
BBX 5 2 1 10
BITMAP
D8
D8
ENDCHAR
STARTCHAR copyright
ENCODING 169
SWIDTH 962 0
DWIDTH 15 0
BBX 13 13 1 -1
BITMAP
0F80
3060
6F30
5890
B008
A008
A008
A008
B008
5890
6F30
3060
0F80
ENDCHAR
STARTCHAR ordfeminine
ENCODING 170
SWIDTH 421 0
DWIDTH 7 0
BBX 5 6 1 6
BITMAP
70
08
78
88
88
78
ENDCHAR
STARTCHAR guillemotleft
ENCODING 171
SWIDTH 541 0
DWIDTH 9 0
BBX 7 6 1 2
BITMAP
12
24
D8
90
48
36
ENDCHAR
STARTCHAR logicalnot
ENCODING 172
SWIDTH 737 0
DWIDTH 12 0
BBX 8 5 2 2
BITMAP
FF
01
01
01
01
ENDCHAR
STARTCHAR uni00AD
ENCODING 173
SWIDTH 431 0
DWIDTH 7 0
BBX 5 1 1 4
BITMAP
F8
ENDCHAR
STARTCHAR registered
ENCODING 174
SWIDTH 962 0
DWIDTH 15 0
BBX 13 13 1 -1
BITMAP
0F80
3060
6030
4F10
8888
8888
8F08
8908
8988
4890
6030
3060
0F80
ENDCHAR
STARTCHAR macron
ENCODING 175
SWIDTH 462 0
DWIDTH 7 0
BBX 7 1 0 12
BITMAP
FE
ENDCHAR
STARTCHAR degree
ENCODING 176
SWIDTH 407 0
DWIDTH 7 0
BBX 5 5 1 7
BITMAP
70
88
88
88
70
ENDCHAR
STARTCHAR plusminus
ENCODING 177
SWIDTH 737 0
DWIDTH 12 0
BBX 7 9 2 0
BITMAP
10
10
10
FE
10
10
10
00
FE
ENDCHAR
STARTCHAR uni00B2
ENCODING 178
SWIDTH 392 0
DWIDTH 6 0
BBX 4 7 1 5
BITMAP
E0
10
10
20
20
40
F0
ENDCHAR
STARTCHAR uni00B3
ENCODING 179
SWIDTH 392 0
DWIDTH 6 0
BBX 4 7 1 5
BITMAP
E0
10
10
60
10
10
E0
ENDCHAR
STARTCHAR acute
ENCODING 180
SWIDTH 303 0
DWIDTH 5 0
BBX 4 3 1 10
BITMAP
10
60
80
ENDCHAR
STARTCHAR mu
ENCODING 181
SWIDTH 621 0
DWIDTH 10 0
BBX 7 12 1 -3
BITMAP
82
82
82
82
82
82
82
C6
FA
80
80
80
ENDCHAR
STARTCHAR paragraph
ENCODING 182
SWIDTH 491 0
DWIDTH 8 0
BBX 6 12 1 0
BITMAP
7C
E8
E8
E8
68
28
28
28
28
28
28
28
ENDCHAR
STARTCHAR periodcentered
ENCODING 183
SWIDTH 230 0
DWIDTH 4 0
BBX 2 2 1 4
BITMAP
C0
C0
ENDCHAR
STARTCHAR cedilla
ENCODING 184
SWIDTH 221 0
DWIDTH 4 0
BBX 3 4 1 -4
BITMAP
80
E0
20
E0
ENDCHAR
STARTCHAR uni00B9
ENCODING 185
SWIDTH 376 0
DWIDTH 6 0
BBX 5 7 1 5
BITMAP
60
E0
20
20
20
20
F8
ENDCHAR
STARTCHAR ordmasculine
ENCODING 186
SWIDTH 463 0
DWIDTH 7 0
BBX 5 6 1 6
BITMAP
70
88
88
88
88
70
ENDCHAR
STARTCHAR guillemotright
ENCODING 187
SWIDTH 541 0
DWIDTH 9 0
BBX 7 6 1 2
BITMAP
90
48
36
12
24
D8
ENDCHAR
STARTCHAR onequarter
ENCODING 188
SWIDTH 964 0
DWIDTH 15 0
BBX 14 12 1 0
BITMAP
6040
E040
2080
2180
2100
2238
FA38
0448
0C88
08FC
1008
1008
ENDCHAR
STARTCHAR onehalf
ENCODING 189
SWIDTH 1002 0
BBX 13 12 1 0
BITMAP
6040
E040
2080
2180
2100
2238
FA48
0408
0C08
0810
1020
1078
ENDCHAR
STARTCHAR threequarters
ENCODING 190
SWIDTH 999 0
BBX 14 12 1 0
BITMAP
E020
1040
1040
6080
1180
1118
E228
0248
0448
0CFC
0808
1008
ENDCHAR
STARTCHAR questiondown
ENCODING 191
SWIDTH 484 0
DWIDTH 8 0
BBX 5 13 1 -4
BITMAP
18
18
00
00
10
10
10
20
40
80
80
C8
78
ENDCHAR
STARTCHAR Agrave
ENCODING 192
SWIDTH 692 0
DWIDTH 11 0
BBX 11 16 0 0
BITMAP
0800
0400
0200
0000
0400
0A00
0A00
1B00
1100
1100
3180
3F80
4040
4040
8020
8020
ENDCHAR
STARTCHAR Aacute
ENCODING 193
SWIDTH 692 0
DWIDTH 11 0
BBX 11 16 0 0
BITMAP
0100
0600
0800
0000
0400
0A00
0A00
1B00
1100
1100
3180
3F80
4040
4040
8020
8020
ENDCHAR
STARTCHAR Acircumflex
ENCODING 194
SWIDTH 692 0
DWIDTH 11 0
BBX 11 16 0 0
BITMAP
0C00
0C00
1200
0000
0400
0A00
0A00
1B00
1100
1100
3180
3F80
4040
4040
8020
8020
ENDCHAR
STARTCHAR Atilde
ENCODING 195
SWIDTH 692 0
DWIDTH 11 0
BBX 11 15 0 0
BITMAP
1C80
1300
0000
0400
0A00
0A00
1B00
1100
1100
3180
3F80
4040
4040
8020
8020
ENDCHAR
STARTCHAR Adieresis
ENCODING 196
SWIDTH 692 0
DWIDTH 11 0
BBX 11 15 0 0
BITMAP
1B00
1B00
0000
0400
0A00
0A00
1B00
1100
1100
3180
3F80
4040
4040
8020
8020
ENDCHAR
STARTCHAR Aring
ENCODING 197
SWIDTH 692 0
DWIDTH 11 0
BBX 11 15 0 0
BITMAP
0600
0A00
0A00
0E00
0A00
0A00
1200
1100
1100
2080
3F80
4040
4040
8020
8020
ENDCHAR
STARTCHAR AE
ENCODING 198
SWIDTH 923 0
DWIDTH 15 0
BBX 14 12 0 0
BITMAP
03FC
0680
0480
0C80
0C80
18F8
1880
3080
3F80
6080
6080
C0FC
ENDCHAR
STARTCHAR Ccedilla
ENCODING 199
SWIDTH 667 0
DWIDTH 11 0
BBX 9 16 1 -4
BITMAP
0F00
3080
4000
4000
8000
8000
8000
8000
8000
4000
2080
1F00
0400
0600
0200
0600
ENDCHAR
STARTCHAR Egrave
ENCODING 200
SWIDTH 544 0
DWIDTH 9 0
BBX 6 16 2 0
BITMAP
40
20
10
00
FC
80
80
80
80
F8
80
80
80
80
80
FC
ENDCHAR
STARTCHAR Eacute
ENCODING 201
SWIDTH 544 0
DWIDTH 9 0
BBX 6 16 2 0
BITMAP
08
10
20
00
FC
80
80
80
80
F8
80
80
80
80
80
FC
ENDCHAR
STARTCHAR Ecircumflex
ENCODING 202
SWIDTH 544 0
DWIDTH 9 0
BBX 6 16 2 0
BITMAP
30
38
48
00
FC
80
80
80
80
F8
80
80
80
80
80
FC
ENDCHAR
STARTCHAR Edieresis
ENCODING 203
SWIDTH 544 0
DWIDTH 9 0
BBX 6 15 2 0
BITMAP
D8
D8
00
FC
80
80
80
80
F8
80
80
80
80
80
FC
ENDCHAR
STARTCHAR Igrave
ENCODING 204
SWIDTH 284 0
DWIDTH 5 0
BBX 2 16 1 0
BITMAP
80
40
40
00
40
40
40
40
40
40
40
40
40
40
40
40
ENDCHAR
STARTCHAR Iacute
ENCODING 205
SWIDTH 284 0
DWIDTH 5 0
BBX 4 16 1 0
BITMAP
10
60
80
00
40
40
40
40
40
40
40
40
40
40
40
40
ENDCHAR
STARTCHAR Icircumflex
ENCODING 206
SWIDTH 284 0
DWIDTH 5 0
BBX 4 16 1 0
BITMAP
40
A0
90
00
40
40
40
40
40
40
40
40
40
40
40
40
ENDCHAR
STARTCHAR Idieresis
ENCODING 207
SWIDTH 284 0
DWIDTH 5 0
BBX 5 15 0 0
BITMAP
D8
D8
00
20
20
20
20
20
20
20
20
20
20
20
20
ENDCHAR
STARTCHAR Eth
ENCODING 208
SWIDTH 754 0
DWIDTH 12 0
BBX 10 12 1 0
BITMAP
7E00
4180
4080
4040
4040
F840
4040
4040
40C0
4080
4300
7E00
ENDCHAR
STARTCHAR Ntilde
ENCODING 209
SWIDTH 805 0
DWIDTH 13 0
BBX 9 15 2 0
BITMAP
3900
2600
0000
C080
E080
E080
B080
9880
9880
8C80
8480
8680
8380
8180
8180
ENDCHAR
STARTCHAR Ograve
ENCODING 210
SWIDTH 813 0
DWIDTH 13 0
BBX 11 16 1 0
BITMAP
0800
0400
0200
0000
1F00
2080
4040
C020
8020
8020
8020
8020
C020
4040
2080
1F00
ENDCHAR
STARTCHAR Oacute
ENCODING 211
SWIDTH 813 0
DWIDTH 13 0
BBX 11 16 1 0
BITMAP
0100
0200
0C00
0000
1F00
2080
4040
C020
8020
8020
8020
8020
C020
4040
2080
1F00
ENDCHAR
STARTCHAR Ocircumflex
ENCODING 212
SWIDTH 813 0
DWIDTH 13 0
BBX 11 16 1 0
BITMAP
0C00
0C00
1200
0000
1F00
2080
4040
C020
8020
8020
8020
8020
C020
4040
2080
1F00
ENDCHAR
STARTCHAR Otilde
ENCODING 213
SWIDTH 813 0
DWIDTH 13 0
BBX 11 15 1 0
BITMAP
1C80
1300
0000
1F00
2080
4040
C020
8020
8020
8020
8020
C020
4040
2080
1F00
ENDCHAR
STARTCHAR Odieresis
ENCODING 214
SWIDTH 814 0
DWIDTH 13 0
BBX 11 15 1 0
BITMAP
1B00
1B00
0000
1F00
2080
4040
C020
8020
8020
8020
8020
C020
4040
2080
1F00
ENDCHAR
STARTCHAR multiply
ENCODING 215
SWIDTH 737 0
DWIDTH 12 0
BBX 8 7 2 2
BITMAP
81
66
3C
18
3C
46
81
ENDCHAR
STARTCHAR Oslash
ENCODING 216
SWIDTH 813 0
DWIDTH 13 0
BBX 11 12 1 0
BITMAP
1F20
20C0
40C0
8160
8220
8420
8C20
8820
D020
6040
7080
9F00
ENDCHAR
STARTCHAR Ugrave
ENCODING 217
SWIDTH 739 0
DWIDTH 12 0
BBX 9 16 1 0
BITMAP
1000
0800
0400
0000
8080
8080
8080
8080
8080
8080
8080
8080
8080
8080
4100
3E00
ENDCHAR
STARTCHAR Uacute
ENCODING 218
SWIDTH 739 0
DWIDTH 12 0
BBX 9 16 1 0
BITMAP
0200
0400
0800
0000
8080
8080
8080
8080
8080
8080
8080
8080
8080
8080
4100
3E00
ENDCHAR
STARTCHAR Ucircumflex
ENCODING 219
SWIDTH 739 0
DWIDTH 12 0
BBX 9 16 1 0
BITMAP
0800
1400
1200
0000
8080
8080
8080
8080
8080
8080
8080
8080
8080
8080
4100
3E00
ENDCHAR
STARTCHAR Udieresis
ENCODING 220
SWIDTH 739 0
DWIDTH 12 0
BBX 9 15 1 0
BITMAP
1200
1200
0000
8080
8080
8080
8080
8080
8080
8080
8080
8080
8080
4100
3E00
ENDCHAR
STARTCHAR Yacute
ENCODING 221
SWIDTH 593 0
DWIDTH 10 0
BBX 10 16 0 0
BITMAP
0200
0400
0800
0000
C040
4080
6080
2100
3200
1600
1400
0800
0800
0800
0800
0800
ENDCHAR
STARTCHAR Thorn
ENCODING 222
SWIDTH 601 0
DWIDTH 10 0
BBX 8 12 2 0
BITMAP
80
80
FC
82
81
81
81
82
FC
80
80
80
ENDCHAR
STARTCHAR germandbls
ENCODING 223
SWIDTH 581 0
DWIDTH 9 0
BBX 7 13 1 0
BITMAP
78
CC
84
84
84
88
90
8C
82
82
82
86
B8
ENDCHAR
STARTCHAR agrave
ENCODING 224
SWIDTH 547 0
DWIDTH 9 0
BBX 6 13 1 0
BITMAP
20
10
08
00
38
4C
04
04
3C
C4
84
8C
74
ENDCHAR
STARTCHAR aacute
ENCODING 225
SWIDTH 547 0
DWIDTH 9 0
BBX 6 13 1 0
BITMAP
04
18
20
00
38
4C
04
04
3C
C4
84
8C
74
ENDCHAR
STARTCHAR acircumflex
ENCODING 226
SWIDTH 547 0
DWIDTH 9 0
BBX 6 13 1 0
BITMAP
30
30
48
00
38
4C
04
04
3C
C4
84
8C
74
ENDCHAR
STARTCHAR atilde
ENCODING 227
SWIDTH 547 0
DWIDTH 9 0
BBX 6 12 1 0
BITMAP
74
4C
00
38
4C
04
04
3C
C4
84
8C
74
ENDCHAR
STARTCHAR adieresis
ENCODING 228
SWIDTH 547 0
DWIDTH 9 0
BBX 6 12 1 0
BITMAP
6C
6C
00
38
4C
04
04
3C
C4
84
8C
74
ENDCHAR
STARTCHAR aring
ENCODING 229
SWIDTH 547 0
DWIDTH 9 0
BBX 6 14 1 0
BITMAP
30
48
48
30
00
38
4C
04
04
3C
C4
84
8C
74
ENDCHAR
STARTCHAR ae
ENCODING 230
SWIDTH 898 0
DWIDTH 14 0
BBX 12 9 1 0
BITMAP
39C0
4E20
0410
0410
7FF0
C400
8400
8A10
71E0
ENDCHAR
STARTCHAR ccedilla
ENCODING 231
SWIDTH 497 0
DWIDTH 8 0
BBX 6 13 1 -4
BITMAP
38
44
80
80
80
80
80
44
38
10
1C
04
1C
ENDCHAR
STARTCHAR egrave
ENCODING 232
SWIDTH 563 0
DWIDTH 9 0
BBX 7 13 1 0
BITMAP
20
10
08
00
38
44
82
82
FE
80
80
42
3C
ENDCHAR
STARTCHAR eacute
ENCODING 233
SWIDTH 563 0
DWIDTH 9 0
BBX 7 13 1 0
BITMAP
04
08
10
00
38
44
82
82
FE
80
80
42
3C
ENDCHAR
STARTCHAR ecircumflex
ENCODING 234
SWIDTH 563 0
DWIDTH 9 0
BBX 7 13 1 0
BITMAP
30
28
48
00
38
44
82
82
FE
80
80
42
3C
ENDCHAR
STARTCHAR edieresis
ENCODING 235
SWIDTH 563 0
DWIDTH 9 0
BBX 7 12 1 0
BITMAP
6C
6C
00
38
44
82
82
FE
80
80
42
3C
ENDCHAR
STARTCHAR igrave
ENCODING 236
SWIDTH 259 0
DWIDTH 4 0
BBX 2 13 0 0
BITMAP
80
80
40
00
40
40
40
40
40
40
40
40
40
ENDCHAR
STARTCHAR iacute
ENCODING 237
SWIDTH 259 0
DWIDTH 4 0
BBX 3 13 0 0
BITMAP
20
40
80
00
40
40
40
40
40
40
40
40
40
ENDCHAR
STARTCHAR icircumflex
ENCODING 238
SWIDTH 259 0
DWIDTH 4 0
BBX 4 13 0 0
BITMAP
40
A0
90
00
40
40
40
40
40
40
40
40
40
ENDCHAR
STARTCHAR idieresis
ENCODING 239
SWIDTH 259 0
DWIDTH 4 0
BBX 4 12 0 0
BITMAP
90
90
00
40
40
40
40
40
40
40
40
40
ENDCHAR
STARTCHAR eth
ENCODING 240
SWIDTH 601 0
DWIDTH 10 0
BBX 8 13 1 0
BITMAP
36
18
6C
06
3E
43
81
81
81
81
81
42
3C
ENDCHAR
STARTCHAR ntilde
ENCODING 241
SWIDTH 608 0
DWIDTH 10 0
BBX 7 12 1 0
BITMAP
32
4E
00
BC
C6
82
82
82
82
82
82
82
ENDCHAR
STARTCHAR ograve
ENCODING 242
SWIDTH 630 0
DWIDTH 10 0
BBX 8 13 1 0
BITMAP
10
10
08
00
3C
42
81
81
81
81
81
42
3C
ENDCHAR
STARTCHAR oacute
ENCODING 243
SWIDTH 630 0
DWIDTH 10 0
BBX 8 13 1 0
BITMAP
04
08
10
00
3C
42
81
81
81
81
81
42
3C
ENDCHAR
STARTCHAR ocircumflex
ENCODING 244
SWIDTH 630 0
DWIDTH 10 0
BBX 8 13 1 0
BITMAP
10
28
24
00
3C
42
81
81
81
81
81
42
3C
ENDCHAR
STARTCHAR otilde
ENCODING 245
SWIDTH 630 0
DWIDTH 10 0
BBX 8 12 1 0
BITMAP
32
4E
00
3C
42
81
81
81
81
81
42
3C
ENDCHAR
STARTCHAR odieresis
ENCODING 246
SWIDTH 630 0
DWIDTH 10 0
BBX 8 12 1 0
BITMAP
24
24
00
3C
42
81
81
81
81
81
42
3C
ENDCHAR
STARTCHAR divide
ENCODING 247
SWIDTH 737 0
DWIDTH 12 0
BBX 8 9 2 1
BITMAP
18
18
00
00
FF
00
00
18
18
ENDCHAR
STARTCHAR oslash
ENCODING 248
SWIDTH 630 0
DWIDTH 10 0
BBX 9 10 1 -1
BITMAP
3C80
4700
8200
8500
8900
9100
A100
4200
7C00
8000
ENDCHAR
STARTCHAR ugrave
ENCODING 249
SWIDTH 608 0
DWIDTH 10 0
BBX 7 13 1 0
BITMAP
20
10
08
00
82
82
82
82
82
82
82
C6
7A
ENDCHAR
STARTCHAR uacute
ENCODING 250
SWIDTH 608 0
DWIDTH 10 0
BBX 7 13 1 0
BITMAP
04
08
10
00
82
82
82
82
82
82
82
C6
7A
ENDCHAR
STARTCHAR ucircumflex
ENCODING 251
SWIDTH 608 0
DWIDTH 10 0
BBX 7 13 1 0
BITMAP
30
28
28
00
82
82
82
82
82
82
82
C6
7A
ENDCHAR
STARTCHAR udieresis
ENCODING 252
SWIDTH 608 0
DWIDTH 10 0
BBX 7 12 1 0
BITMAP
6C
2C
00
82
82
82
82
82
82
82
C6
7A
ENDCHAR
STARTCHAR yacute
ENCODING 253
SWIDTH 518 0
DWIDTH 8 0
BBX 8 17 0 -4
BITMAP
04
08
10
00
81
81
42
42
24
24
34
18
18
10
10
20
C0
ENDCHAR
STARTCHAR thorn
ENCODING 254
SWIDTH 632 0
DWIDTH 10 0
BBX 8 17 1 -4
BITMAP
80
80
80
80
BC
C2
81
81
81
81
83
C2
BC
80
80
80
80
ENDCHAR
STARTCHAR ydieresis
ENCODING 255
SWIDTH 518 0
DWIDTH 8 0
BBX 8 16 0 -4
BITMAP
36
36
00
81
81
42
42
24
24
34
18
18
10
10
20
C0
ENDCHAR
STARTCHAR dotlessi
ENCODING 305
SWIDTH 259 0
DWIDTH 4 0
BBX 1 9 1 0
BITMAP
80
80
80
80
80
80
80
80
80
ENDCHAR
STARTCHAR OE
ENCODING 338
SWIDTH 1004 0
BBX 14 12 1 0
BITMAP
1FFC
2080
4080
C080
8080
80F8
8080
8080
C080
4080
2080
1FFC
ENDCHAR
STARTCHAR oe
ENCODING 339
SWIDTH 1002 0
BBX 14 9 1 0
BITMAP
3C70
4288
8104
8104
81FC
8100
8100
4284
3C78
ENDCHAR
STARTCHAR Scaron
ENCODING 352
SWIDTH 571 0
DWIDTH 9 0
BBX 7 16 1 0
BITMAP
12
14
18
00
38
C4
80
80
C0
60
18
04
02
02
86
78
ENDCHAR
STARTCHAR scaron
ENCODING 353
SWIDTH 456 0
DWIDTH 7 0
BBX 5 13 1 0
BITMAP
48
50
20
00
70
88
80
C0
30
08
08
88
70
ENDCHAR
STARTCHAR Ydieresis
ENCODING 376
SWIDTH 593 0
DWIDTH 10 0
BBX 10 15 0 0
BITMAP
3600
3600
0000
C040
4080
6080
2100
3200
1600
1400
0800
0800
0800
0800
0800
ENDCHAR
STARTCHAR Zcaron
ENCODING 381
SWIDTH 613 0
DWIDTH 10 0
BBX 10 16 0 0
BITMAP
1200
1400
0C00
0000
7FC0
0080
0100
0300
0600
0400
0800
1800
3000
2000
4000
FFC0
ENDCHAR
STARTCHAR zcaron
ENCODING 382
SWIDTH 486 0
DWIDTH 8 0
BBX 8 13 0 0
BITMAP
24
18
18
00
FF
02
04
08
18
10
20
40
FF
ENDCHAR
STARTCHAR florin
ENCODING 402
SWIDTH 579 0
DWIDTH 9 0
BBX 7 14 1 -2
BITMAP
0E
08
18
10
3C
10
10
10
30
30
20
20
60
C0
ENDCHAR
STARTCHAR circumflex
ENCODING 710
SWIDTH 399 0
DWIDTH 6 0
BBX 4 3 1 10
BITMAP
40
A0
90
ENDCHAR
STARTCHAR caron
ENCODING 711
BBX 4 3 6 10
BITMAP
90
A0
40
ENDCHAR
STARTCHAR uni02C9
ENCODING 713
SWIDTH 330 0
DWIDTH 5 0
BBX 4 1 1 10
BITMAP
F0
ENDCHAR
STARTCHAR uni02CA
ENCODING 714
BBX 3 3 7 10
BITMAP
20
40
80
ENDCHAR
STARTCHAR uni02CB
ENCODING 715
BBX 2 3 7 10
BITMAP
80
40
40
ENDCHAR
STARTCHAR uni02CD
ENCODING 717
SWIDTH 472 0
DWIDTH 8 0
BBX 7 1 0 -3
BITMAP
FE
ENDCHAR
STARTCHAR breve
ENCODING 728
SWIDTH 325 0
DWIDTH 5 0
BBX 5 2 0 10
BITMAP
88
70
ENDCHAR
STARTCHAR dotaccent
ENCODING 729
BBX 2 2 7 10
BITMAP
C0
C0
ENDCHAR
STARTCHAR ring
ENCODING 730
SWIDTH 303 0
DWIDTH 5 0
BBX 4 4 1 10
BITMAP
60
90
90
60
ENDCHAR
STARTCHAR ogonek
ENCODING 731
SWIDTH 193 0
DWIDTH 3 0
BBX 2 4 1 -4
BITMAP
40
80
80
C0
ENDCHAR
STARTCHAR tilde
ENCODING 732
SWIDTH 360 0
DWIDTH 6 0
BBX 6 2 0 10
BITMAP
E4
9C
ENDCHAR
STARTCHAR hungarumlaut
ENCODING 733
SWIDTH 344 0
DWIDTH 6 0
BBX 5 3 1 10
BITMAP
28
50
A0
ENDCHAR
STARTCHAR uni02EA
ENCODING 746
SWIDTH 364 0
DWIDTH 6 0
BBX 4 12 1 0
BITMAP
C0
C0
C0
C0
C0
F0
F0
C0
C0
C0
C0
C0
ENDCHAR
STARTCHAR uni02EB
ENCODING 747
SWIDTH 364 0
DWIDTH 6 0
BBX 4 12 1 0
BITMAP
C0
C0
C0
C0
C0
C0
C0
C0
C0
C0
C0
F0
ENDCHAR
STARTCHAR uni0305
ENCODING 773
SWIDTH 448 0
DWIDTH 7 0
SWIDTH1 102 0
DWIDTH1 1 0
BBX 7 1 0 12
BITMAP
FE
ENDCHAR
STARTCHAR uni037E
ENCODING 894
SWIDTH 230 0
DWIDTH 4 0
BBX 2 11 1 -2
BITMAP
C0
C0
00
00
00
00
00
40
40
80
80
ENDCHAR
STARTCHAR tonos
ENCODING 900
SWIDTH 291 0
DWIDTH 5 0
BBX 2 3 2 10
BITMAP
40
C0
80
ENDCHAR
STARTCHAR dieresistonos
ENCODING 901
SWIDTH 284 0
DWIDTH 5 0
BBX 5 3 0 10
BITMAP
10
F8
E8
ENDCHAR
STARTCHAR Alphatonos
ENCODING 902
SWIDTH 692 0
DWIDTH 11 0
BBX 11 12 0 0
BITMAP
2400
4A00
4A00
1B00
1100
1100
3180
3F80
4040
4040
8020
8020
ENDCHAR
STARTCHAR anoteleia
ENCODING 903
SWIDTH 230 0
DWIDTH 4 0
BBX 2 2 1 4
BITMAP
C0
C0
ENDCHAR
STARTCHAR Epsilontonos
ENCODING 904
SWIDTH 620 0
DWIDTH 10 0
BBX 9 12 0 0
BITMAP
5F80
9000
9000
1000
1000
1F00
1000
1000
1000
1000
1000
1F80
ENDCHAR
STARTCHAR Etatonos
ENCODING 905
SWIDTH 838 0
DWIDTH 13 0
BBX 11 12 0 0
BITMAP
5020
9020
9020
1020
1020
1FE0
1020
1020
1020
1020
1020
1020
ENDCHAR
STARTCHAR Iotatonos
ENCODING 906
SWIDTH 408 0
DWIDTH 7 0
BBX 5 12 0 0
BITMAP
48
88
88
08
08
08
08
08
08
08
08
08
ENDCHAR
STARTCHAR Omicrontonos
ENCODING 908
SWIDTH 871 0
DWIDTH 14 0
BBX 13 12 0 0
BITMAP
47C0
8820
9010
2018
2008
2008
2008
2008
2018
1010
0820
07C0
ENDCHAR
STARTCHAR Upsilontonos
ENCODING 910
SWIDTH 732 0
DWIDTH 12 0
BBX 12 12 0 0
BITMAP
7010
9830
9820
0840
0CC0
0480
0700
0300
0200
0200
0200
0200
ENDCHAR
STARTCHAR Omegatonos
ENCODING 911
SWIDTH 875 0
DWIDTH 14 0
BBX 13 12 0 0
BITMAP
47C0
8830
9010
2008
2008
2008
2008
2008
1010
1010
0820
3C78
ENDCHAR
STARTCHAR iotadieresistonos
ENCODING 912
SWIDTH 283 0
DWIDTH 5 0
BBX 5 13 0 0
BITMAP
10
E8
E8
00
40
40
40
40
40
40
40
40
38
ENDCHAR
STARTCHAR Alpha
ENCODING 913
SWIDTH 692 0
DWIDTH 11 0
BBX 11 12 0 0
BITMAP
0400
0A00
0A00
1B00
1100
1100
3180
3F80
4040
4040
8020
8020
ENDCHAR
STARTCHAR Beta
ENCODING 914
SWIDTH 614 0
DWIDTH 10 0
BBX 6 12 2 0
BITMAP
F8
8C
84
84
88
F8
8C
84
84
84
88
F8
ENDCHAR
STARTCHAR Gamma
ENCODING 915
SWIDTH 506 0
DWIDTH 8 0
BBX 6 12 2 0
BITMAP
FC
80
80
80
80
80
80
80
80
80
80
80
ENDCHAR
STARTCHAR uni0394
ENCODING 916
SWIDTH 692 0
DWIDTH 11 0
BBX 11 12 0 0
BITMAP
0400
0A00
0A00
1B00
1100
1100
2080
2080
60C0
4040
C060
FFE0
ENDCHAR
STARTCHAR Epsilon
ENCODING 917
SWIDTH 544 0
DWIDTH 9 0
BBX 6 12 2 0
BITMAP
FC
80
80
80
80
F8
80
80
80
80
80
FC
ENDCHAR
STARTCHAR Zeta
ENCODING 918
SWIDTH 613 0
DWIDTH 10 0
BBX 10 12 0 0
BITMAP
7FC0
0080
0100
0300
0600
0400
0800
1800
3000
2000
4000
FFC0
ENDCHAR
STARTCHAR Eta
ENCODING 919
SWIDTH 762 0
DWIDTH 12 0
BBX 8 12 2 0
BITMAP
81
81
81
81
81
FF
81
81
81
81
81
81
ENDCHAR
STARTCHAR Theta
ENCODING 920
SWIDTH 813 0
DWIDTH 13 0
BBX 11 12 1 0
BITMAP
1F00
2080
4040
C020
8020
9F20
8020
8020
C020
4040
2080
1F00
ENDCHAR
STARTCHAR Iota
ENCODING 921
SWIDTH 284 0
DWIDTH 5 0
BBX 1 12 2 0
BITMAP
80
80
80
80
80
80
80
80
80
80
80
80
ENDCHAR
STARTCHAR Kappa
ENCODING 922
SWIDTH 621 0
DWIDTH 10 0
BBX 9 12 2 0
BITMAP
8300
8600
8C00
9800
9000
E000
B000
9800
8C00
8600
8300
8180
ENDCHAR
STARTCHAR Lambda
ENCODING 923
SWIDTH 674 0
DWIDTH 11 0
BBX 10 12 0 0
BITMAP
0400
0A00
0A00
0A00
1100
1100
2100
2080
4080
4080
4040
8040
ENDCHAR
STARTCHAR Mu
ENCODING 924
SWIDTH 965 0
DWIDTH 15 0
BBX 11 12 2 0
BITMAP
C020
E060
E060
A0A0
B0A0
B0A0
9120
9920
8A20
8A20
8E20
8420
ENDCHAR
STARTCHAR Nu
ENCODING 925
SWIDTH 805 0
DWIDTH 13 0
BBX 9 12 2 0
BITMAP
C080
E080
E080
B080
9880
9880
8C80
8480
8680
8380
8180
8180
ENDCHAR
STARTCHAR Xi
ENCODING 926
SWIDTH 547 0
DWIDTH 9 0
BBX 8 12 1 0
BITMAP
FE
00
00
00
00
7C
00
00
00
00
00
FF
ENDCHAR
STARTCHAR Omicron
ENCODING 927
SWIDTH 813 0
DWIDTH 13 0
BBX 11 12 1 0
BITMAP
1F00
2080
4040
C020
8020
8020
8020
8020
C020
4040
2080
1F00
ENDCHAR
STARTCHAR Pi
ENCODING 928
SWIDTH 766 0
DWIDTH 12 0
BBX 8 12 2 0
BITMAP
FF
81
81
81
81
81
81
81
81
81
81
81
ENDCHAR
STARTCHAR Rho
ENCODING 929
SWIDTH 601 0
DWIDTH 10 0
BBX 7 12 2 0
BITMAP
F8
86
82
82
82
84
F8
80
80
80
80
80
ENDCHAR
STARTCHAR Sigma
ENCODING 931
SWIDTH 553 0
DWIDTH 9 0
BBX 8 12 1 0
BITMAP
FE
60
60
30
10
18
18
10
30
60
40
FF
ENDCHAR
STARTCHAR Tau
ENCODING 932
SWIDTH 561 0
DWIDTH 9 0
BBX 8 12 1 0
BITMAP
FF
10
10
10
10
10
10
10
10
10
10
10
ENDCHAR
STARTCHAR Upsilon
ENCODING 933
SWIDTH 593 0
DWIDTH 10 0
BBX 10 12 0 0
BITMAP
C040
4080
6080
2100
3200
1600
1400
0800
0800
0800
0800
0800
ENDCHAR
STARTCHAR Phi
ENCODING 934
SWIDTH 810 0
DWIDTH 13 0
BBX 11 12 1 0
BITMAP
0400
3F80
64C0
C460
8420
8420
8420
8460
64C0
3F80
0400
0400
ENDCHAR
STARTCHAR Chi
ENCODING 935
SWIDTH 632 0
DWIDTH 10 0
BBX 10 12 0 0
BITMAP
C0C0
6180
2100
3300
1E00
0C00
0C00
1600
3300
2100
6180
C0C0
ENDCHAR
STARTCHAR Psi
ENCODING 936
SWIDTH 834 0
DWIDTH 13 0
BBX 11 12 1 0
BITMAP
8420
8420
8420
8420
8420
8420
8420
4440
3F80
0400
0400
0400
ENDCHAR
STARTCHAR uni03A9
ENCODING 937
SWIDTH 814 0
DWIDTH 13 0
BBX 11 12 1 0
BITMAP
1F00
20C0
4040
8020
8020
8020
8020
8020
4040
4040
2080
F1E0
ENDCHAR
STARTCHAR Iotadieresis
ENCODING 938
SWIDTH 284 0
DWIDTH 5 0
BBX 5 15 0 0
BITMAP
D8
D8
00
20
20
20
20
20
20
20
20
20
20
20
20
ENDCHAR
STARTCHAR Upsilondieresis
ENCODING 939
SWIDTH 593 0
DWIDTH 10 0
BBX 10 15 0 0
BITMAP
3600
3600
0000
C040
4080
6080
2100
3200
1600
1400
0800
0800
0800
0800
0800
ENDCHAR
STARTCHAR alphatonos
ENCODING 940
SWIDTH 662 0
DWIDTH 11 0
BBX 10 13 1 0
BITMAP
0400
0400
0800
0000
3C40
4680
C380
8100
8100
8300
8300
4680
38C0
ENDCHAR
STARTCHAR epsilontonos
ENCODING 941
SWIDTH 471 0
DWIDTH 8 0
BBX 6 13 1 0
BITMAP
08
10
10
00
78
84
80
C0
38
C0
80
84
78
ENDCHAR
STARTCHAR etatonos
ENCODING 942
SWIDTH 618 0
DWIDTH 10 0
BBX 7 17 1 -4
BITMAP
04
08
08
00
BC
C6
82
82
82
82
82
82
82
02
02
02
02
ENDCHAR
STARTCHAR iotatonos
ENCODING 943
SWIDTH 283 0
DWIDTH 5 0
BBX 4 13 1 0
BITMAP
40
40
80
00
80
80
80
80
80
80
80
80
70
ENDCHAR
STARTCHAR upsilondieresistonos
ENCODING 944
SWIDTH 592 0
DWIDTH 9 0
BBX 8 13 0 0
BITMAP
04
16
16
00
C2
42
41
41
41
41
41
22
1C
ENDCHAR
STARTCHAR alpha
ENCODING 945
SWIDTH 662 0
DWIDTH 11 0
BBX 10 9 1 0
BITMAP
3C40
4680
C380
8100
8100
8300
8300
4680
38C0
ENDCHAR
STARTCHAR beta
ENCODING 946
SWIDTH 586 0
DWIDTH 9 0
BBX 7 17 1 -4
BITMAP
78
C4
84
84
84
88
90
8C
82
82
82
C4
F8
80
80
80
80
ENDCHAR
STARTCHAR gamma
ENCODING 947
SWIDTH 557 0
DWIDTH 9 0
BBX 8 13 0 -4
BITMAP
C1
41
41
21
22
22
14
18
18
10
10
10
10
ENDCHAR
STARTCHAR delta
ENCODING 948
SWIDTH 628 0
DWIDTH 10 0
BBX 8 13 1 0
BITMAP
3C
42
40
20
18
34
42
81
81
81
81
42
3C
ENDCHAR
STARTCHAR epsilon
ENCODING 949
SWIDTH 471 0
DWIDTH 8 0
BBX 6 9 1 0
BITMAP
78
84
80
C0
38
C0
80
84
78
ENDCHAR
STARTCHAR zeta
ENCODING 950
SWIDTH 475 0
DWIDTH 8 0
BBX 6 16 1 -3
BITMAP
7C
08
10
30
20
40
40
80
80
80
80
70
38
04
04
04
ENDCHAR
STARTCHAR eta
ENCODING 951
SWIDTH 618 0
DWIDTH 10 0
BBX 7 13 1 -4
BITMAP
BC
C6
82
82
82
82
82
82
82
02
02
02
02
ENDCHAR
STARTCHAR theta
ENCODING 952
SWIDTH 631 0
DWIDTH 10 0
BBX 8 13 1 0
BITMAP
3C
62
42
81
81
81
FF
81
81
81
42
62
3C
ENDCHAR
STARTCHAR iota
ENCODING 953
SWIDTH 283 0
DWIDTH 5 0
BBX 4 9 1 0
BITMAP
80
80
80
80
80
80
80
80
70
ENDCHAR
STARTCHAR kappa
ENCODING 954
SWIDTH 562 0
DWIDTH 9 0
BBX 7 9 1 0
BITMAP
86
88
90
A0
B0
D8
88
8C
86
ENDCHAR
STARTCHAR lambda
ENCODING 955
SWIDTH 534 0
DWIDTH 9 0
BBX 9 13 0 0
BITMAP
7000
1000
0800
0800
0C00
0C00
1A00
1200
2200
2100
4100
4080
8080
ENDCHAR
STARTCHAR uni03BC
ENCODING 956
SWIDTH 620 0
DWIDTH 10 0
BBX 8 13 1 -4
BITMAP
82
82
82
82
82
82
82
C6
F9
80
80
80
80
ENDCHAR
STARTCHAR nu
ENCODING 957
SWIDTH 565 0
DWIDTH 9 0
BBX 7 9 0 0
BITMAP
82
82
42
42
44
24
2C
28
10
ENDCHAR
STARTCHAR xi
ENCODING 958
SWIDTH 478 0
DWIDTH 8 0
BBX 7 16 1 -3
BITMAP
7C
10
20
40
40
60
3C
40
80
80
80
C0
7C
06
02
04
ENDCHAR
STARTCHAR omicron
ENCODING 959
SWIDTH 630 0
DWIDTH 10 0
BBX 8 9 1 0
BITMAP
3C
42
81
81
81
81
81
42
3C
ENDCHAR
STARTCHAR pi
ENCODING 960
SWIDTH 672 0
DWIDTH 11 0
BBX 10 9 0 0
BITMAP
FFC0
A100
2100
2100
2100
2100
2100
2100
20C0
ENDCHAR
STARTCHAR rho
ENCODING 961
SWIDTH 630 0
DWIDTH 10 0
BBX 8 12 1 -3
BITMAP
3C
42
81
81
81
81
81
C2
BC
80
80
80
ENDCHAR
STARTCHAR sigma1
ENCODING 962
SWIDTH 495 0
DWIDTH 8 0
BBX 6 12 1 -3
BITMAP
38
64
40
80
80
80
80
C0
78
0C
04
04
ENDCHAR
STARTCHAR sigma
ENCODING 963
SWIDTH 617 0
DWIDTH 10 0
BBX 8 9 1 0
BITMAP
3F
44
82
82
82
82
82
44
38
ENDCHAR
STARTCHAR tau
ENCODING 964
SWIDTH 521 0
DWIDTH 8 0
BBX 8 9 0 0
BITMAP
7F
90
10
10
10
10
10
10
0C
ENDCHAR
STARTCHAR upsilon
ENCODING 965
SWIDTH 592 0
DWIDTH 9 0
BBX 8 9 0 0
BITMAP
C2
42
41
41
41
41
41
22
1C
ENDCHAR
STARTCHAR phi
ENCODING 966
SWIDTH 751 0
DWIDTH 12 0
BBX 10 13 1 -4
BITMAP
6300
C480
8440
8440
8440
8440
C440
6480
3F00
0400
0400
0400
0400
ENDCHAR
STARTCHAR chi
ENCODING 967
SWIDTH 580 0
DWIDTH 9 0
BBX 9 13 0 -4
BITMAP
C100
2200
3200
1400
1C00
0800
1800
1C00
3400
2400
4200
4200
8180
ENDCHAR
STARTCHAR psi
ENCODING 968
SWIDTH 807 0
DWIDTH 13 0
BBX 10 15 1 -4
BITMAP
0400
0400
8440
8440
8440
8440
8440
8440
44C0
6480
3F00
0400
0400
0400
0400
ENDCHAR
STARTCHAR omega
ENCODING 969
SWIDTH 871 0
DWIDTH 14 0
BBX 12 9 1 0
BITMAP
4020
4020
8410
8410
8410
8410
8410
4E20
7BC0
ENDCHAR
STARTCHAR iotadieresis
ENCODING 970
SWIDTH 283 0
DWIDTH 5 0
BBX 5 12 0 0
BITMAP
98
90
00
40
40
40
40
40
40
40
40
38
ENDCHAR
STARTCHAR upsilondieresis
ENCODING 971
SWIDTH 592 0
DWIDTH 9 0
BBX 8 12 0 0
BITMAP
36
36
00
C2
42
41
41
41
41
41
22
1C
ENDCHAR
STARTCHAR omicrontonos
ENCODING 972
SWIDTH 630 0
DWIDTH 10 0
BBX 8 13 1 0
BITMAP
04
08
08
00
3C
42
81
81
81
81
81
42
3C
ENDCHAR
STARTCHAR upsilontonos
ENCODING 973
SWIDTH 592 0
DWIDTH 9 0
BBX 8 13 0 0
BITMAP
04
04
08
00
C2
42
41
41
41
41
41
22
1C
ENDCHAR
STARTCHAR omegatonos
ENCODING 974
SWIDTH 871 0
DWIDTH 14 0
BBX 12 13 1 0
BITMAP
0100
0200
0200
0000
4020
4020
8410
8410
8410
8410
8410
4E20
7BC0
ENDCHAR
STARTCHAR uni03D0
ENCODING 976
SWIDTH 586 0
DWIDTH 9 0
BBX 7 13 1 0
BITMAP
78
CC
84
84
84
88
90
8C
82
82
82
44
78
ENDCHAR
STARTCHAR theta1
ENCODING 977
SWIDTH 630 0
DWIDTH 10 0
BBX 10 13 0 0
BITMAP
0E00
1100
1180
1080
D880
4C80
47C0
4080
4080
4080
4100
2300
1E00
ENDCHAR
STARTCHAR Upsilon1
ENCODING 978
SWIDTH 606 0
DWIDTH 10 0
BBX 10 12 0 0
BITMAP
C0C0
4100
4100
2200
2200
1400
1400
0800
0800
0800
0800
0800
ENDCHAR
STARTCHAR uni03D3
ENCODING 979
SWIDTH 747 0
DWIDTH 12 0
BBX 12 12 0 0
BITMAP
6030
9040
9040
0880
0880
0500
0500
0200
0200
0200
0200
0200
ENDCHAR
STARTCHAR uni03D4
ENCODING 980
SWIDTH 606 0
DWIDTH 10 0
BBX 10 15 0 0
BITMAP
3600
3600
0000
C0C0
4100
4100
2200
2200
1400
1400
0800
0800
0800
0800
0800
ENDCHAR
STARTCHAR phi1
ENCODING 981
SWIDTH 685 0
DWIDTH 11 0
BBX 9 17 1 -4
BITMAP
0800
0800
0800
0800
3E00
4900
8880
8880
8880
8880
C880
4900
3E00
0800
0800
0800
0800
ENDCHAR
STARTCHAR omega1
ENCODING 982
SWIDTH 860 0
DWIDTH 14 0
BBX 13 9 0 0
BITMAP
7FF8
A010
6010
4208
4208
4208
4208
2710
3DE0
ENDCHAR
STARTCHAR uni03D7
ENCODING 983
SWIDTH 611 0
DWIDTH 10 0
BBX 10 12 0 -3
BITMAP
C040
2080
2180
2700
2D00
3900
3100
6100
40C0
0040
0040
0180
ENDCHAR
STARTCHAR uni03D8
ENCODING 984
SWIDTH 756 0
DWIDTH 12 0
BBX 10 12 1 0
BITMAP
1E00
6180
C0C0
8040
8040
8040
C0C0
6180
1F00
0400
0400
0400
ENDCHAR
STARTCHAR uni03D9
ENCODING 985
SWIDTH 630 0
DWIDTH 10 0
BBX 8 13 1 -4
BITMAP
3C
42
81
81
81
81
81
42
3C
10
10
10
10
ENDCHAR
STARTCHAR uni03DA
ENCODING 986
SWIDTH 628 0
DWIDTH 10 0
BBX 9 17 1 -3
BITMAP
0080
0380
1E00
2000
4000
C000
8000
8000
8000
8000
8000
4000
7000
1E00
0380
0080
0100
ENDCHAR
STARTCHAR uni03DB
ENCODING 987
SWIDTH 489 0
DWIDTH 8 0
BBX 7 13 1 -3
BITMAP
02
0E
38
40
80
80
80
80
C0
78
06
02
04
ENDCHAR
STARTCHAR uni03DC
ENCODING 988
SWIDTH 535 0
DWIDTH 9 0
BBX 6 12 2 0
BITMAP
FC
80
80
80
80
FC
84
80
80
80
80
80
ENDCHAR
STARTCHAR uni03DD
ENCODING 989
SWIDTH 485 0
DWIDTH 8 0
BBX 6 13 1 -4
BITMAP
3C
40
80
80
80
FC
80
80
80
80
80
80
80
ENDCHAR
STARTCHAR uni03DE
ENCODING 990
SWIDTH 641 0
DWIDTH 10 0
BBX 8 12 1 0
BITMAP
10
30
20
60
40
FF
02
02
04
04
08
08
ENDCHAR
STARTCHAR uni03DF
ENCODING 991
SWIDTH 538 0
DWIDTH 9 0
BBX 8 17 0 -4
BITMAP
C0
20
20
20
20
40
40
C0
FF
03
02
02
04
04
04
04
03
ENDCHAR
STARTCHAR uni03E0
ENCODING 992
SWIDTH 653 0
DWIDTH 10 0
BBX 9 12 0 0
BITMAP
7C00
C600
0700
0D00
1980
2380
0480
0880
0080
0080
0180
0100
ENDCHAR
STARTCHAR uni03E1
ENCODING 993
SWIDTH 527 0
DWIDTH 8 0
BBX 8 17 -1 -4
BITMAP
C0
20
18
0C
04
06
1E
33
01
0F
19
01
01
01
03
02
06
ENDCHAR
STARTCHAR uni03E2
ENCODING 994
SWIDTH 957 0
DWIDTH 15 0
BBX 11 16 2 -4
BITMAP
8420
8420
8420
8420
8420
8420
8420
8420
8420
8420
CE60
73A0
0020
0040
00C0
3F80
ENDCHAR
STARTCHAR uni03E3
ENCODING 995
SWIDTH 926 0
DWIDTH 15 0
BBX 12 13 1 -4
BITMAP
8210
8210
8210
8210
8210
8210
8210
C730
79D0
0010
0020
0060
3F80
ENDCHAR
STARTCHAR uni03E4
ENCODING 996
SWIDTH 646 0
DWIDTH 10 0
BBX 8 12 0 0
BITMAP
71
C1
81
81
81
43
3D
01
01
01
01
01
ENDCHAR
STARTCHAR uni03E5
ENCODING 997
SWIDTH 543 0
DWIDTH 9 0
BBX 7 13 0 -4
BITMAP
72
42
82
82
82
82
82
46
7A
02
02
02
02
ENDCHAR
STARTCHAR uni03E6
ENCODING 998
SWIDTH 680 0
DWIDTH 11 0
BBX 10 16 0 -4
BITMAP
2000
2000
2000
2000
2F00
3080
2040
2040
2040
2040
2040
2040
0040
0080
0180
FE00
ENDCHAR
STARTCHAR uni03E7
ENCODING 999
SWIDTH 572 0
DWIDTH 9 0
BBX 8 9 0 0
BITMAP
3D
46
47
39
01
01
61
B2
9C
ENDCHAR
STARTCHAR uni03E8
ENCODING 1000
SWIDTH 655 0
DWIDTH 10 0
BBX 8 12 1 0
BITMAP
38
44
42
02
02
1C
60
80
81
81
42
3C
ENDCHAR
STARTCHAR uni03E9
ENCODING 1001
SWIDTH 493 0
DWIDTH 8 0
BBX 7 9 1 0
BITMAP
70
4C
04
04
78
C0
82
84
78
ENDCHAR
STARTCHAR uni03EA
ENCODING 1002
SWIDTH 633 0
DWIDTH 10 0
BBX 10 12 0 0
BITMAP
3300
1E00
0C00
0C00
0C00
1E00
1200
3300
2100
6180
4080
FFC0
ENDCHAR
STARTCHAR uni03EB
ENCODING 1003
SWIDTH 517 0
DWIDTH 8 0
BBX 8 9 0 0
BITMAP
66
38
18
18
3C
24
66
42
FF
ENDCHAR
STARTCHAR uni03EC
ENCODING 1004
SWIDTH 714 0
DWIDTH 11 0
BBX 9 13 1 0
BITMAP
1F80
6000
4000
8000
BE00
E300
C180
8080
8080
8080
4180
6300
3E00
ENDCHAR
STARTCHAR uni03ED
ENCODING 1005
SWIDTH 630 0
DWIDTH 10 0
BBX 8 13 1 0
BITMAP
1E
60
40
80
BC
C2
81
81
81
81
C1
42
3C
ENDCHAR
STARTCHAR uni03EE
ENCODING 1006
SWIDTH 605 0
DWIDTH 10 0
BBX 10 12 0 0
BITMAP
0800
0800
FFC0
8800
0800
0800
0800
0800
0800
0800
0800
0800
ENDCHAR
STARTCHAR uni03EF
ENCODING 1007
SWIDTH 433 0
DWIDTH 7 0
BBX 7 15 0 -3
BITMAP
10
10
10
FE
90
10
10
10
10
10
10
10
10
20
60
ENDCHAR
STARTCHAR uni03F0
ENCODING 1008
SWIDTH 611 0
DWIDTH 10 0
BBX 10 9 0 0
BITMAP
C080
2180
2300
2700
2D00
3900
3100
6100
40C0
ENDCHAR
STARTCHAR uni03F1
ENCODING 1009
SWIDTH 626 0
DWIDTH 10 0
BBX 8 13 1 -4
BITMAP
3C
42
81
81
81
81
81
C2
BC
80
40
60
1F
ENDCHAR
STARTCHAR uni03F2
ENCODING 1010
SWIDTH 497 0
DWIDTH 8 0
BBX 6 9 1 0
BITMAP
38
44
80
80
80
80
80
44
38
ENDCHAR
STARTCHAR uni03F3
ENCODING 1011
SWIDTH 258 0
DWIDTH 4 0
BBX 5 17 -2 -4
BITMAP
18
18
00
00
10
10
10
10
10
10
10
10
10
10
10
20
E0
ENDCHAR
STARTCHAR uni03F4
ENCODING 1012
SWIDTH 813 0
DWIDTH 13 0
BBX 11 12 1 0
BITMAP
1F00
3080
4040
C020
8020
FFE0
8020
C020
C060
6040
3080
1F00
ENDCHAR
STARTCHAR uni03F5
ENCODING 1013
SWIDTH 502 0
DWIDTH 8 0
BBX 6 9 1 0
BITMAP
3C
40
80
80
FC
80
C0
60
3C
ENDCHAR
STARTCHAR uni03F6
ENCODING 1014
SWIDTH 502 0
DWIDTH 8 0
BBX 6 9 1 0
BITMAP
F0
08
04
04
FC
04
0C
18
F0
ENDCHAR
STARTCHAR uni03F7
ENCODING 1015
SWIDTH 601 0
DWIDTH 10 0
BBX 8 12 2 0
BITMAP
80
80
FC
82
81
81
81
82
FC
80
80
80
ENDCHAR
STARTCHAR uni03F8
ENCODING 1016
SWIDTH 632 0
DWIDTH 10 0
BBX 8 17 1 -4
BITMAP
80
80
80
80
BC
C2
81
81
81
81
83
C2
BC
80
80
80
80
ENDCHAR
STARTCHAR uni03F9
ENCODING 1017
SWIDTH 667 0
DWIDTH 11 0
BBX 9 12 1 0
BITMAP
0F00
3080
4000
4000
8000
8000
8000
8000
8000
4000
2080
1F00
ENDCHAR
STARTCHAR uni03FA
ENCODING 1018
SWIDTH 880 0
DWIDTH 14 0
BBX 10 12 2 0
BITMAP
C0C0
E0C0
E0C0
B1C0
B140
9B40
9A40
8E40
8440
8040
8040
8040
ENDCHAR
STARTCHAR uni03FB
ENCODING 1019
SWIDTH 751 0
DWIDTH 12 0
BBX 9 13 1 -4
BITMAP
C080
E180
A280
B680
9C80
8880
8080
8080
8080
8000
8000
8000
8000
ENDCHAR
STARTCHAR uni200A
ENCODING 8202
SWIDTH 125 0
DWIDTH 2 0
BBX 1 1 0 0
BITMAP
00
ENDCHAR
STARTCHAR uni2010
ENCODING 8208
SWIDTH 432 0
DWIDTH 7 0
BBX 5 1 1 4
BITMAP
F8
ENDCHAR
STARTCHAR endash
ENCODING 8211
SWIDTH 540 0
DWIDTH 9 0
BBX 9 1 0 4
BITMAP
FF80
ENDCHAR
STARTCHAR emdash
ENCODING 8212
SWIDTH 1080 0
DWIDTH 17 0
BBX 17 1 0 4
BITMAP
FFFF80
ENDCHAR
STARTCHAR uni2015
ENCODING 8213
SWIDTH 448 0
DWIDTH 7 0
BBX 7 1 0 12
BITMAP
FE
ENDCHAR
STARTCHAR uni2016
ENCODING 8214
SWIDTH 575 0
DWIDTH 9 0
BBX 5 17 2 -4
BITMAP
88
88
88
88
88
88
88
88
88
88
88
88
88
88
88
88
88
ENDCHAR
STARTCHAR quoteleft
ENCODING 8216
BBX 2 4 13 8
BITMAP
40
40
80
80
ENDCHAR
STARTCHAR quoteright
ENCODING 8217
BBX 2 4 1 8
BITMAP
40
40
80
80
ENDCHAR
STARTCHAR quotesinglbase
ENCODING 8218
SWIDTH 500 0
DWIDTH 8 0
BBX 2 4 1 -2
BITMAP
40
40
80
80
ENDCHAR
STARTCHAR quotedblleft
ENCODING 8220
BBX 5 4 10 8
BITMAP
48
48
90
90
ENDCHAR
STARTCHAR quotedblright
ENCODING 8221
BBX 5 4 1 8
BITMAP
48
48
90
90
ENDCHAR
STARTCHAR quotedblbase
ENCODING 8222
SWIDTH 500 0
DWIDTH 8 0
BBX 4 4 1 -2
BITMAP
50
50
A0
A0
ENDCHAR
STARTCHAR dagger
ENCODING 8224
SWIDTH 402 0
DWIDTH 6 0
BBX 5 10 1 2
BITMAP
20
20
20
F8
20
20
20
20
20
20
ENDCHAR
STARTCHAR daggerdbl
ENCODING 8225
SWIDTH 402 0
DWIDTH 6 0
BBX 5 10 1 2
BITMAP
20
20
20
F8
20
20
F8
20
20
20
ENDCHAR
STARTCHAR bullet
ENCODING 8226
SWIDTH 439 0
DWIDTH 7 0
BBX 4 4 1 3
BITMAP
60
F0
F0
60
ENDCHAR
STARTCHAR onedotenleader
ENCODING 8228
SWIDTH 229 0
DWIDTH 4 0
BBX 2 2 1 0
BITMAP
C0
C0
ENDCHAR
STARTCHAR twodotenleader
ENCODING 8229
SWIDTH 459 0
DWIDTH 7 0
BBX 5 2 1 0
BITMAP
D8
D8
ENDCHAR
STARTCHAR ellipsis
ENCODING 8230
SWIDTH 778 0
DWIDTH 12 0
BBX 10 2 1 0
BITMAP
CCC0
CCC0
ENDCHAR
STARTCHAR uni2027
ENCODING 8231
SWIDTH 229 0
DWIDTH 4 0
BBX 2 2 1 4
BITMAP
C0
C0
ENDCHAR
STARTCHAR perthousand
ENCODING 8240
SWIDTH 1303 0
DWIDTH 21 0
BBX 19 12 1 0
BITMAP
704000
888000
888000
890000
8A0000
720000
04F1C0
059A20
090A20
110A20
119A20
20F1C0
ENDCHAR
STARTCHAR minute
ENCODING 8242
SWIDTH 243 0
DWIDTH 4 0
BBX 2 4 1 8
BITMAP
40
40
80
80
ENDCHAR
STARTCHAR second
ENCODING 8243
SWIDTH 398 0
DWIDTH 6 0
BBX 4 4 1 8
BITMAP
50
50
A0
A0
ENDCHAR
STARTCHAR uni2035
ENCODING 8245
SWIDTH 242 0
DWIDTH 4 0
BBX 2 4 1 8
BITMAP
80
80
40
40
ENDCHAR
STARTCHAR guilsinglleft
ENCODING 8249
SWIDTH 339 0
DWIDTH 5 0
BBX 3 6 1 2
BITMAP
20
40
80
80
40
20
ENDCHAR
STARTCHAR guilsinglright
ENCODING 8250
SWIDTH 339 0
DWIDTH 5 0
BBX 3 6 1 2
BITMAP
80
40
20
20
40
80
ENDCHAR
STARTCHAR uni203B
ENCODING 8251
SWIDTH 841 0
DWIDTH 13 0
BBX 13 12 0 0
BITMAP
8008
4310
2320
1040
0D80
3760
3760
0980
1040
2320
4310
8008
ENDCHAR
STARTCHAR uni203E
ENCODING 8254
SWIDTH 448 0
DWIDTH 7 0
BBX 7 1 0 11
BITMAP
FE
ENDCHAR
STARTCHAR fraction
ENCODING 8260
SWIDTH 173 0
DWIDTH 3 0
BBX 7 12 -2 0
BITMAP
02
02
04
0C
08
10
10
20
60
40
80
80
ENDCHAR
STARTCHAR uni2074
ENCODING 8308
SWIDTH 374 0
DWIDTH 6 0
BBX 6 7 0 5
BITMAP
18
28
48
88
FC
08
08
ENDCHAR
STARTCHAR uni20A0
ENCODING 8352
SWIDTH 670 0
DWIDTH 11 0
BBX 9 12 1 0
BITMAP
3C00
4200
8000
8000
8F80
8800
4800
3F80
0800
0800
0800
0F80
ENDCHAR
STARTCHAR colonmonetary
ENCODING 8353
SWIDTH 582 0
DWIDTH 9 0
BBX 8 14 1 -1
BITMAP
05
1F
3A
4A
4A
94
94
94
A8
E8
68
39
5E
50
ENDCHAR
STARTCHAR uni20A2
ENCODING 8354
SWIDTH 582 0
DWIDTH 9 0
BBX 8 12 1 0
BITMAP
1E
21
40
C0
8B
8C
88
88
C8
48
29
1E
ENDCHAR
STARTCHAR franc
ENCODING 8355
SWIDTH 524 0
DWIDTH 8 0
BBX 7 12 1 0
BITMAP
7E
40
40
40
40
7E
40
40
F0
40
40
40
ENDCHAR
STARTCHAR lira
ENCODING 8356
SWIDTH 579 0
DWIDTH 9 0
BBX 7 12 1 0
BITMAP
1C
30
20
20
20
F8
20
F8
20
20
40
FE
ENDCHAR
STARTCHAR uni20A5
ENCODING 8357
SWIDTH 926 0
DWIDTH 15 0
BBX 13 13 1 -2
BITMAP
0040
0080
BCE0
C790
8318
8308
8208
8208
8608
8E08
8A08
1000
2000
ENDCHAR
STARTCHAR uni20A6
ENCODING 8358
SWIDTH 693 0
DWIDTH 11 0
BBX 9 12 1 0
BITMAP
6100
6100
7100
5100
FF80
4900
4900
FF80
4500
4700
4300
4300
ENDCHAR
STARTCHAR peseta
ENCODING 8359
SWIDTH 1185 0
DWIDTH 19 0
BBX 16 12 2 0
BITMAP
F800
8C00
8480
8480
8480
8BE7
F088
8088
8086
8083
8091
80EE
ENDCHAR
STARTCHAR uni20A8
ENCODING 8360
SWIDTH 915 0
DWIDTH 15 0
BBX 12 12 2 0
BITMAP
F800
8C00
8400
8400
8400
88E0
F110
9100
88E0
8810
8D10
8CE0
ENDCHAR
STARTCHAR uni20A9
ENCODING 8361
SWIDTH 803 0
DWIDTH 13 0
BBX 13 12 0 0
BITMAP
4210
4210
4310
2530
FFF8
2520
2920
FFF8
2920
18E0
10C0
1040
ENDCHAR
STARTCHAR uni20AA
ENCODING 8362
SWIDTH 568 0
DWIDTH 9 0
BBX 7 9 1 0
BITMAP
F2
8A
AA
AA
AA
AA
AA
A2
BC
ENDCHAR
STARTCHAR dong
ENCODING 8363
SWIDTH 631 0
DWIDTH 10 0
BBX 8 15 1 -2
BITMAP
02
0F
02
02
3A
46
82
82
82
82
82
46
3A
00
FE
ENDCHAR
STARTCHAR Euro
ENCODING 8364
SWIDTH 580 0
DWIDTH 9 0
BBX 7 12 1 0
BITMAP
1C
22
60
40
FC
40
40
FC
40
40
22
1C
ENDCHAR
STARTCHAR uni20AD
ENCODING 8365
SWIDTH 529 0
DWIDTH 8 0
BBX 7 12 1 0
BITMAP
46
44
4C
48
50
FC
50
58
48
4C
44
46
ENDCHAR
STARTCHAR uni20AE
ENCODING 8366
SWIDTH 478 0
DWIDTH 8 0
BBX 7 12 0 0
BITMAP
FE
10
10
14
18
30
54
18
30
50
10
10
ENDCHAR
STARTCHAR uni20AF
ENCODING 8367
SWIDTH 1209 0
DWIDTH 19 0
BBX 19 17 0 -3
BITMAP
002000
00C000
07E000
193000
231800
020800
020800
060800
060800
0409C0
6C1220
981220
9C6620
67C5C0
000400
000C00
000800
ENDCHAR
STARTCHAR uni20B0
ENCODING 8368
SWIDTH 490 0
DWIDTH 8 0
BBX 7 17 0 -4
BITMAP
1C
24
24
24
34
18
08
0C
0C
74
72
72
A2
02
02
04
0C
ENDCHAR
STARTCHAR uni2103
ENCODING 8451
BBX 14 12 1 0
BITMAP
6078
9184
9200
6200
0400
0400
0400
0400
0400
0200
0104
00F8
ENDCHAR
STARTCHAR uni2105
ENCODING 8453
SWIDTH 863 0
DWIDTH 14 0
BBX 12 12 1 0
BITMAP
3C10
4820
8040
8080
9100
7200
04E0
0910
1210
2210
4220
81C0
ENDCHAR
STARTCHAR uni2109
ENCODING 8457
BBX 12 12 2 0
BITMAP
63F0
9200
9200
6200
0200
0200
03F0
0200
0200
0200
0200
0200
ENDCHAR
STARTCHAR uni2116
ENCODING 8470
BBX 13 12 2 0
BITMAP
C270
C2C8
E288
A288
B288
92C8
9270
8A00
8AF8
8600
8600
8200
ENDCHAR
STARTCHAR uni2121
ENCODING 8481
BBX 16 12 0 0
BITMAP
FE00
1000
1000
13C8
1208
1208
1208
13C8
1208
1208
1208
13CF
ENDCHAR
STARTCHAR trademark
ENCODING 8482
SWIDTH 834 0
DWIDTH 13 0
BBX 12 5 0 7
BITMAP
F410
2630
2770
2550
2490
ENDCHAR
STARTCHAR uni2155
ENCODING 8533
SWIDTH 946 0
DWIDTH 15 0
BBX 13 12 1 0
BITMAP
6020
E040
20C0
2080
2100
2178
F240
0270
0408
0C08
0848
1070
ENDCHAR
STARTCHAR uni2156
ENCODING 8534
SWIDTH 946 0
DWIDTH 15 0
BBX 13 12 1 0
BITMAP
F020
1040
10C0
3080
2100
4178
F240
0270
0408
0C08
0848
1070
ENDCHAR
STARTCHAR uni2157
ENCODING 8535
SWIDTH 931 0
DWIDTH 15 0
BBX 13 12 1 0
BITMAP
F060
1040
1080
6080
1100
1278
E240
0470
0C08
0808
1048
3070
ENDCHAR
STARTCHAR uni2158
ENCODING 8536
SWIDTH 951 0
DWIDTH 15 0
BBX 13 12 1 0
BITMAP
1020
3040
50C0
9080
F900
1178
1240
0270
0408
0C08
0848
1070
ENDCHAR
STARTCHAR uni2159
ENCODING 8537
SWIDTH 955 0
DWIDTH 15 0
BBX 13 12 1 0
BITMAP
6020
E040
20C0
2080
2100
2170
F2C0
02B0
04C8
0C88
08C8
1070
ENDCHAR
STARTCHAR uni215A
ENCODING 8538
SWIDTH 945 0
DWIDTH 15 0
BBX 12 12 2 0
BITMAP
F040
8080
8180
E100
1200
12E0
E580
0560
0990
1910
1190
20E0
ENDCHAR
STARTCHAR uni215F
ENCODING 8543
SWIDTH 939 0
DWIDTH 15 0
BBX 11 12 1 0
BITMAP
6060
E040
2080
2080
2100
2200
F200
0400
0C00
0800
1000
3000
ENDCHAR
STARTCHAR uni2160
ENCODING 8544
BBX 5 12 5 0
BITMAP
F8
20
20
20
20
20
20
20
20
20
20
F8
ENDCHAR
STARTCHAR uni2161
ENCODING 8545
BBX 11 12 2 0
BITMAP
FFE0
2080
2080
2080
2080
2080
2080
2080
2080
2080
2080
FFE0
ENDCHAR
STARTCHAR uni2162
ENCODING 8546
BBX 12 12 2 0
BITMAP
FFF0
4420
4420
4420
4420
4420
4420
4420
4420
4420
4420
FFF0
ENDCHAR
STARTCHAR uni2163
ENCODING 8547
BBX 15 12 1 0
BITMAP
F402
4402
4204
4204
4104
4108
4088
4088
40D0
4050
4050
E020
ENDCHAR
STARTCHAR uni2164
ENCODING 8548
BBX 10 12 3 0
BITMAP
8040
8040
4080
4080
2080
2100
1100
1100
1200
0A00
0A00
0400
ENDCHAR
STARTCHAR uni2165
ENCODING 8549
BBX 14 12 1 0
BITMAP
805C
8048
4088
4088
4108
2108
2208
2208
1608
1408
1408
081C
ENDCHAR
STARTCHAR uni2166
ENCODING 8550
BBX 14 12 1 0
BITMAP
83FC
8288
8288
4488
4488
4488
4888
2888
2888
2888
3088
11FC
ENDCHAR
STARTCHAR uni2167
ENCODING 8551
BBX 15 12 0 0
BITMAP
85FE
8494
C494
4494
4894
4894
2894
2894
2894
3094
1094
11FE
ENDCHAR
STARTCHAR uni2168
ENCODING 8552
BBX 14 12 1 0
BITMAP
EC0C
4618
4610
4330
4160
40C0
40C0
4160
4330
4610
4618
EC0C
ENDCHAR
STARTCHAR uni2169
ENCODING 8553
BBX 10 12 3 0
BITMAP
C0C0
6180
6100
3300
1600
0C00
0C00
1600
3300
6100
6180
C0C0
ENDCHAR
STARTCHAR uni216C
ENCODING 8556
BBX 7 12 5 0
BITMAP
80
80
80
80
80
80
80
80
80
80
80
FE
ENDCHAR
STARTCHAR uni216D
ENCODING 8557
BBX 10 12 3 0
BITMAP
0FC0
3840
6000
4000
C000
8000
8000
C000
C000
6000
3040
1F80
ENDCHAR
STARTCHAR uni216E
ENCODING 8558
BBX 10 12 3 0
BITMAP
FE00
8380
80C0
80C0
8040
8040
8040
8040
80C0
8080
8300
FE00
ENDCHAR
STARTCHAR uni216F
ENCODING 8559
BBX 12 12 2 0
BITMAP
C030
C030
A030
A050
B050
9090
9890
8910
8D10
8710
8610
8210
ENDCHAR
STARTCHAR uni2170
ENCODING 8560
BBX 1 13 7 0
BITMAP
80
80
00
00
80
80
80
80
80
80
80
80
80
ENDCHAR
STARTCHAR uni2171
ENCODING 8561
BBX 7 13 4 0
BITMAP
82
82
00
00
82
82
82
82
82
82
82
82
82
ENDCHAR
STARTCHAR uni2172
ENCODING 8562
BBX 10 13 3 0
BITMAP
8440
8440
0000
0000
8440
8440
8440
8440
8440
8440
8440
8440
8440
ENDCHAR
STARTCHAR uni2173
ENCODING 8563
BBX 11 13 3 0
BITMAP
8000
8000
0000
0000
9860
8840
8840
8CC0
8480
8480
8700
8300
8300
ENDCHAR
STARTCHAR uni2174
ENCODING 8564
BBX 8 9 4 0
BITMAP
C3
42
42
66
24
24
38
18
18
ENDCHAR
STARTCHAR uni2175
ENCODING 8565
BBX 11 13 2 0
BITMAP
0020
0020
0000
0000
C320
4220
4220
6620
2420
2420
3820
1820
1820
ENDCHAR
STARTCHAR uni2176
ENCODING 8566
BBX 13 13 1 0
BITMAP
0088
0088
0000
0000
C688
C688
4488
4488
6C88
2888
2888
2888
1088
ENDCHAR
STARTCHAR uni2177
ENCODING 8567
BBX 14 13 0 0
BITMAP
0124
0124
0000
0000
C724
C724
4524
4524
6D24
2924
2924
2924
1124
ENDCHAR
STARTCHAR uni2178
ENCODING 8568
BBX 11 13 3 0
BITMAP
8000
8000
0000
0000
8C60
8440
8280
8280
8100
8300
8480
84C0
8860
ENDCHAR
STARTCHAR uni2179
ENCODING 8569
BBX 8 9 4 0
BITMAP
C3
62
24
3C
18
38
24
66
C3
ENDCHAR
STARTCHAR uni217A
ENCODING 8570
BBX 11 13 2 0
BITMAP
0020
0020
0000
0000
C320
6220
2420
3C20
1820
3820
2420
6620
C320
ENDCHAR
STARTCHAR uni217B
ENCODING 8571
BBX 14 13 1 0
BITMAP
0044
0044
0000
0000
C644
4444
2C44
2844
1844
3844
2444
6444
C244
ENDCHAR
STARTCHAR uni217C
ENCODING 8572
BBX 6 13 5 0
BITMAP
E0
20
20
20
20
20
20
20
20
20
20
20
FC
ENDCHAR
STARTCHAR uni217D
ENCODING 8573
BBX 7 9 5 0
BITMAP
3E
62
C0
80
80
80
C0
62
3E
ENDCHAR
STARTCHAR uni217E
ENCODING 8574
BBX 9 13 3 0
BITMAP
0080
0080
0080
0080
3E80
6180
C080
8080
8080
8080
C080
6380
3C80
ENDCHAR
STARTCHAR uni217F
ENCODING 8575
BBX 13 9 1 0
BITMAP
BCF0
C718
C308
8208
8208
8208
8208
8208
8208
ENDCHAR
STARTCHAR uni2180
ENCODING 8576
BBX 14 12 1 0
BITMAP
1FE0
3118
610C
C104
C104
8104
8104
C104
C104
6108
3138
1FE0
ENDCHAR
STARTCHAR uni2181
ENCODING 8577
BBX 10 12 3 0
BITMAP
FE00
8380
F0C0
8CC0
8440
8440
8440
8440
88C0
F080
8300
FE00
ENDCHAR
STARTCHAR uni2182
ENCODING 8578
BBX 14 12 1 0
BITMAP
1FE0
3118
67CC
C964
D124
9124
9124
D124
C964
67C8
3138
1FE0
ENDCHAR
STARTCHAR uni2183
ENCODING 8579
BBX 9 12 3 0
BITMAP
FC00
8700
0180
0180
0080
0080
0080
0080
0180
0100
8600
FC00
ENDCHAR
STARTCHAR uni2184
ENCODING 8580
BBX 7 9 4 0
BITMAP
F8
8C
06
02
02
02
06
8C
F8
ENDCHAR
STARTCHAR uni2185
ENCODING 8581
BBX 8 15 4 -3
BITMAP
1F
31
60
C0
C0
80
80
C0
C0
60
30
1F
01
01
01
ENDCHAR
STARTCHAR uni2186
ENCODING 8582
BBX 6 12 5 0
BITMAP
30
30
30
30
30
30
30
30
B4
78
68
30
ENDCHAR
STARTCHAR uni2187
ENCODING 8583
BBX 10 12 3 0
BITMAP
FE00
8380
F0C0
8CC0
E440
9440
9440
E440
88C0
F080
8300
FC00
ENDCHAR
STARTCHAR uni2188
ENCODING 8584
BBX 14 12 1 0
BITMAP
1FE0
3118
6FEC
D934
F7D4
A954
A954
F7D4
D134
6FE8
3138
1FE0
ENDCHAR
STARTCHAR arrowleft
ENCODING 8592
BBX 14 5 1 3
BITMAP
1000
2000
FFFC
2000
1000
ENDCHAR
STARTCHAR arrowup
ENCODING 8593
BBX 6 14 6 -2
BITMAP
20
30
78
AC
20
20
20
20
20
20
20
20
20
20
ENDCHAR
STARTCHAR arrowright
ENCODING 8594
BBX 14 6 1 2
BITMAP
0020
0010
FFFC
0018
0010
0020
ENDCHAR
STARTCHAR arrowdown
ENCODING 8595
BBX 6 14 6 -2
BITMAP
20
20
20
20
20
20
20
20
20
20
AC
78
30
20
ENDCHAR
STARTCHAR uni2196
ENCODING 8598
BBX 11 11 3 -1
BITMAP
8000
7800
6000
5000
4800
0400
0200
0100
0080
0040
0020
ENDCHAR
STARTCHAR uni2197
ENCODING 8599
BBX 10 11 3 -1
BITMAP
0040
0780
0180
0280
0480
0C00
1800
3000
2000
4000
8000
ENDCHAR
STARTCHAR uni2198
ENCODING 8600
BBX 10 11 3 0
BITMAP
8000
4000
2000
3000
1800
0C00
0680
0280
0180
07C0
0040
ENDCHAR
STARTCHAR uni2199
ENCODING 8601
BBX 11 11 3 0
BITMAP
0020
0040
0080
0100
0200
0400
4800
5000
6000
F800
8000
ENDCHAR
STARTCHAR uni21B8
ENCODING 8632
BBX 10 12 3 0
BITMAP
FFC0
0000
8000
7800
6000
5000
4800
0400
0200
0100
0080
0040
ENDCHAR
STARTCHAR uni21B9
ENCODING 8633
BBX 14 12 1 -1
BITMAP
8800
9000
FFFC
B000
9000
8800
0044
0024
0034
FFFC
0024
0044
ENDCHAR
STARTCHAR uni21E7
ENCODING 8679
SWIDTH 712 0
DWIDTH 11 0
BBX 7 10 2 1
BITMAP
30
48
84
C6
44
44
44
44
44
3C
ENDCHAR
STARTCHAR uni2215
ENCODING 8725
SWIDTH 173 0
DWIDTH 3 0
BBX 7 12 -2 0
BITMAP
02
02
04
0C
08
10
10
20
60
40
80
80
ENDCHAR
STARTCHAR uni2216
ENCODING 8726
SWIDTH 634 0
DWIDTH 10 0
SWIDTH1 800 0
DWIDTH1 13 0
BBX 10 12 0 -1
BITMAP
8000
4000
2000
1000
1000
0800
0400
0200
0200
0100
0080
0040
ENDCHAR
STARTCHAR uni2218
ENCODING 8728
SWIDTH 548 0
DWIDTH 9 0
SWIDTH1 227 0
DWIDTH1 3 0
BBX 4 4 3 2
BITMAP
60
B0
F0
60
ENDCHAR
STARTCHAR uni2219
ENCODING 8729
SWIDTH 332 0
DWIDTH 5 0
BBX 2 2 1 4
BITMAP
C0
C0
ENDCHAR
STARTCHAR radical
ENCODING 8730
SWIDTH 701 0
DWIDTH 11 0
BBX 8 13 1 0
BITMAP
01
01
01
02
02
02
C2
24
24
34
14
18
08
ENDCHAR
STARTCHAR infinity
ENCODING 8734
SWIDTH 882 0
DWIDTH 14 0
BBX 12 7 1 1
BITMAP
70E0
8930
8610
8410
8610
8920
70E0
ENDCHAR
STARTCHAR orthogonal
ENCODING 8735
BBX 14 14 1 0
BITMAP
8000
8000
8000
8000
8000
8000
8000
8000
8000
8000
8000
8000
8000
FFFC
ENDCHAR
STARTCHAR angle
ENCODING 8736
SWIDTH 702 0
DWIDTH 11 0
BBX 9 9 1 0
BITMAP
0080
0100
0200
0400
0800
1000
2000
4000
FF80
ENDCHAR
STARTCHAR uni2223
ENCODING 8739
SWIDTH 548 0
DWIDTH 9 0
SWIDTH1 924 0
DWIDTH1 15 0
BBX 1 14 4 -3
BITMAP
80
80
80
80
80
80
80
80
80
80
80
80
80
80
ENDCHAR
STARTCHAR uni2225
ENCODING 8741
SWIDTH 720 0
DWIDTH 12 0
BBX 4 10 4 0
BITMAP
90
90
90
90
90
90
90
90
90
90
ENDCHAR
STARTCHAR intersection
ENCODING 8745
BBX 10 11 3 0
BITMAP
3F00
6180
4080
8040
8040
8040
8040
8040
8040
8040
8040
ENDCHAR
STARTCHAR union
ENCODING 8746
BBX 10 11 3 0
BITMAP
8040
8040
8040
8040
8040
8040
8040
8040
4080
6180
3F00
ENDCHAR
STARTCHAR integral
ENCODING 8747
SWIDTH 580 0
DWIDTH 9 0
BBX 5 17 2 -4
BITMAP
18
20
20
20
20
20
20
20
20
20
20
20
20
20
20
20
C0
ENDCHAR
STARTCHAR uni222E
ENCODING 8750
SWIDTH 574 0
DWIDTH 9 0
BBX 8 17 1 -4
BITMAP
0E
10
10
10
3C
56
91
91
91
91
56
3C
10
10
10
10
60
ENDCHAR
STARTCHAR therefore
ENCODING 8756
SWIDTH 702 0
DWIDTH 11 0
BBX 9 9 1 1
BITMAP
0C00
0C00
0000
0000
0000
0000
0000
C180
C180
ENDCHAR
STARTCHAR uni2235
ENCODING 8757
SWIDTH 702 0
DWIDTH 11 0
BBX 9 9 1 1
BITMAP
C180
C180
0000
0000
0000
0000
0000
0C00
0C00
ENDCHAR
STARTCHAR uni2236
ENCODING 8758
SWIDTH 862 0
DWIDTH 14 0
BBX 2 8 6 2
BITMAP
C0
C0
00
00
00
00
C0
C0
ENDCHAR
STARTCHAR uni2252
ENCODING 8786
SWIDTH 720 0
DWIDTH 12 0
BBX 8 10 2 0
BITMAP
C0
C0
00
FF
00
00
FF
00
03
03
ENDCHAR
STARTCHAR notequal
ENCODING 8800
SWIDTH 738 0
DWIDTH 12 0
BBX 8 10 2 0
BITMAP
02
04
04
FF
08
10
FF
20
20
40
ENDCHAR
STARTCHAR equivalence
ENCODING 8801
SWIDTH 720 0
DWIDTH 12 0
BBX 8 5 2 2
BITMAP
FF
00
FF
00
FF
ENDCHAR
STARTCHAR uni2263
ENCODING 8803
SWIDTH 583 0
DWIDTH 9 0
SWIDTH1 480 0
DWIDTH1 7 0
BBX 7 7 1 1
BITMAP
FE
00
FE
00
FE
00
FE
ENDCHAR
STARTCHAR uni2266
ENCODING 8806
SWIDTH 548 0
DWIDTH 9 0
SWIDTH1 833 0
DWIDTH1 13 0
BBX 8 13 0 -3
BITMAP
01
06
18
60
80
70
0C
03
00
FF
00
00
FF
ENDCHAR
STARTCHAR uni2267
ENCODING 8807
SWIDTH 548 0
DWIDTH 9 0
SWIDTH1 833 0
DWIDTH1 13 0
BBX 8 13 1 -3
BITMAP
80
60
18
06
01
0E
30
C0
00
FF
00
00
FF
ENDCHAR
STARTCHAR circleplus
ENCODING 8853
SWIDTH 799 0
DWIDTH 13 0
SWIDTH1 721 0
DWIDTH1 11 0
BBX 11 11 1 -2
BITMAP
1F00
2480
4440
8420
8420
FFE0
8420
8420
4440
2480
1F00
ENDCHAR
STARTCHAR uni2299
ENCODING 8857
BBX 10 11 3 0
BITMAP
1E00
2100
4080
8040
8C40
8C40
8040
8040
4080
2100
1E00
ENDCHAR
STARTCHAR perpendicular
ENCODING 8869
BBX 11 10 3 0
BITMAP
0400
0400
0400
0400
0400
0400
0400
0400
0400
FFE0
ENDCHAR
STARTCHAR uni22BF
ENCODING 8895
SWIDTH 712 0
DWIDTH 11 0
SWIDTH1 696 0
DWIDTH1 11 0
BBX 11 11 0 0
BITMAP
0020
0060
00A0
0120
0220
0420
0820
1020
6020
8020
FFE0
ENDCHAR
STARTCHAR uni2307
ENCODING 8967
SWIDTH 625 0
DWIDTH 10 0
SWIDTH1 1041 0
BBX 2 16 4 -2
BITMAP
40
C0
80
40
40
80
80
40
40
80
80
40
40
80
C0
40
ENDCHAR
STARTCHAR uni2383
ENCODING 9091
BBX 14 9 1 1
BITMAP
C00C
6718
34B0
0080
F79C
0880
39B0
6698
C004
ENDCHAR
STARTCHAR uni23DA
ENCODING 9178
BBX 10 10 3 1
BITMAP
0400
0400
0400
FFC0
0000
0000
7F80
0000
0000
3F00
ENDCHAR
STARTCHAR uni23DB
ENCODING 9179
BBX 12 8 2 2
BITMAP
3FC0
2040
2040
FFF0
2040
2040
2040
3FC0
ENDCHAR
STARTCHAR uni2460
ENCODING 9312
BBX 15 15 1 -3
BITMAP
07C0
1830
2008
4304
4504
8102
8102
8102
8102
8102
47C4
4004
2008
1830
07C0
ENDCHAR
STARTCHAR uni2461
ENCODING 9313
BBX 15 15 1 -3
BITMAP
07C0
1830
2008
4784
4844
8042
8042
8182
8202
8402
4FC4
4004
2008
1830
07C0
ENDCHAR
STARTCHAR uni2462
ENCODING 9314
BBX 15 15 1 -3
BITMAP
07C0
1830
2008
4784
4044
8042
8382
80C2
8042
8042
4044
4784
2008
1830
07C0
ENDCHAR
STARTCHAR uni2463
ENCODING 9315
BBX 15 15 1 -3
BITMAP
07C0
1830
2008
4084
4184
8282
8482
8482
8FC2
8082
4084
4004
2008
1830
07C0
ENDCHAR
STARTCHAR uni2464
ENCODING 9316
BBX 15 15 1 -3
BITMAP
07C0
1830
2008
47C4
4404
8402
8782
80C2
8042
8042
40C4
4784
2008
1830
07C0
ENDCHAR
STARTCHAR uni2465
ENCODING 9317
BBX 15 15 1 -3
BITMAP
07C0
1830
2008
4384
4404
8C02
8B82
8CC2
8842
8842
44C4
4784
2008
1830
07C0
ENDCHAR
STARTCHAR uni2466
ENCODING 9318
BBX 15 15 1 -3
BITMAP
07C0
1830
2008
4FC4
4044
8082
8082
8182
8102
8102
4204
4004
2008
1830
07C0
ENDCHAR
STARTCHAR uni2467
ENCODING 9319
BBX 15 15 1 -3
BITMAP
07C0
1830
2008
4384
4444
8442
8782
8282
8442
8442
4644
4384
2008
1830
07C0
ENDCHAR
STARTCHAR uni2468
ENCODING 9320
BBX 15 15 1 -3
BITMAP
07C0
1830
2008
4384
4444
8442
8442
83C2
8042
80C2
4084
4704
2008
1830
07C0
ENDCHAR
STARTCHAR uni2469
ENCODING 9321
BBX 15 15 1 -3
BITMAP
07C0
1830
2008
5CE4
45B4
8512
8512
8512
8512
8512
5FB4
40E4
2008
1830
07C0
ENDCHAR
STARTCHAR uni2474
ENCODING 9332
BBX 14 15 1 -3
BITMAP
3010
2008
4308
450C
8104
8104
8104
8104
8104
8104
87C4
4004
4008
2008
3010
ENDCHAR
STARTCHAR uni2475
ENCODING 9333
BBX 14 15 1 -3
BITMAP
3010
2008
4F08
488C
8084
8084
8104
8304
8604
8C04
8F84
4004
4008
2008
3010
ENDCHAR
STARTCHAR uni2476
ENCODING 9334
BBX 14 15 1 -3
BITMAP
3010
2008
4708
408C
8084
8084
8704
8184
8084
8084
8084
4F04
4008
2008
3010
ENDCHAR
STARTCHAR uni2477
ENCODING 9335
BBX 14 15 1 -3
BITMAP
3010
2008
4008
408C
8184
8284
8484
8484
8FC4
8084
8084
4004
4008
2008
3010
ENDCHAR
STARTCHAR uni2478
ENCODING 9336
BBX 14 15 1 -3
BITMAP
3010
2008
4008
478C
8404
8404
8704
8084
8084
8084
8084
4704
4008
2008
3010
ENDCHAR
STARTCHAR uni2479
ENCODING 9337
BBX 14 15 1 -3
BITMAP
3010
2008
4388
440C
8C04
8804
8B84
8CC4
8844
8844
84C4
4784
4008
2008
3010
ENDCHAR
STARTCHAR uni247A
ENCODING 9338
BBX 14 15 1 -3
BITMAP
3010
2008
4008
4FCC
8044
8084
8084
8104
8304
8204
8604
4004
4008
2008
3010
ENDCHAR
STARTCHAR uni247B
ENCODING 9339
BBX 14 15 1 -3
BITMAP
3010
2008
4308
448C
8484
8684
8304
8584
8844
8844
8CC4
4784
4008
2008
3010
ENDCHAR
STARTCHAR uni247C
ENCODING 9340
BBX 14 15 1 -3
BITMAP
3010
2008
4788
4CCC
8844
8844
8CC4
8744
8044
80C4
8184
4F04
4008
2008
3010
ENDCHAR
STARTCHAR uni247D
ENCODING 9341
BBX 14 15 1 -3
BITMAP
3010
2008
48E8
58BC
8914
8914
8914
8914
8914
8914
9DB4
40E4
4008
2008
3010
ENDCHAR
STARTCHAR SF100000
ENCODING 9472
SWIDTH 708 0
DWIDTH 11 0
BBX 11 1 0 6
BITMAP
FFE0
ENDCHAR
STARTCHAR uni2501
ENCODING 9473
SWIDTH 600 0
DWIDTH 10 0
SWIDTH1 209 0
DWIDTH1 3 0
BBX 10 3 0 5
BITMAP
FFC0
FFC0
FFC0
ENDCHAR
STARTCHAR SF110000
ENCODING 9474
SWIDTH 708 0
DWIDTH 11 0
BBX 1 14 5 -1
BITMAP
80
80
80
80
80
80
80
80
80
80
80
80
80
80
ENDCHAR
STARTCHAR SF010000
ENCODING 9484
SWIDTH 708 0
DWIDTH 11 0
BBX 6 8 5 -1
BITMAP
FC
80
80
80
80
80
80
80
ENDCHAR
STARTCHAR SF030000
ENCODING 9488
SWIDTH 708 0
DWIDTH 11 0
BBX 6 8 0 -1
BITMAP
FC
04
04
04
04
04
04
04
ENDCHAR
STARTCHAR SF020000
ENCODING 9492
SWIDTH 708 0
DWIDTH 11 0
BBX 6 7 5 6
BITMAP
80
80
80
80
80
80
FC
ENDCHAR
STARTCHAR SF040000
ENCODING 9496
SWIDTH 708 0
DWIDTH 11 0
BBX 6 7 0 6
BITMAP
04
04
04
04
04
04
FC
ENDCHAR
STARTCHAR SF080000
ENCODING 9500
SWIDTH 708 0
DWIDTH 11 0
BBX 6 14 5 -1
BITMAP
80
80
80
80
80
80
FC
80
80
80
80
80
80
80
ENDCHAR
STARTCHAR uni251D
ENCODING 9501
SWIDTH 600 0
DWIDTH 10 0
SWIDTH1 1250 0
DWIDTH1 20 0
BBX 5 19 4 -3
BITMAP
80
80
80
80
80
80
80
80
F8
F8
F8
80
80
80
80
80
80
80
80
ENDCHAR
STARTCHAR SF090000
ENCODING 9508
SWIDTH 708 0
DWIDTH 11 0
BBX 6 14 0 -1
BITMAP
04
04
04
04
04
04
FC
04
04
04
04
04
04
04
ENDCHAR
STARTCHAR uni2525
ENCODING 9509
SWIDTH 600 0
DWIDTH 10 0
SWIDTH1 1250 0
DWIDTH1 20 0
BBX 5 19 0 -3
BITMAP
08
08
08
08
08
08
08
08
F8
F8
F8
08
08
08
08
08
08
08
08
ENDCHAR
STARTCHAR SF060000
ENCODING 9516
SWIDTH 708 0
DWIDTH 11 0
BBX 11 8 0 -1
BITMAP
FFE0
0400
0400
0400
0400
0400
0400
0400
ENDCHAR
STARTCHAR SF070000
ENCODING 9524
SWIDTH 708 0
DWIDTH 11 0
BBX 11 7 0 6
BITMAP
0400
0400
0400
0400
0400
0400
FFE0
ENDCHAR
STARTCHAR SF050000
ENCODING 9532
SWIDTH 708 0
DWIDTH 11 0
BBX 11 14 0 -1
BITMAP
0400
0400
0400
0400
0400
0400
FFE0
0400
0400
0400
0400
0400
0400
0400
ENDCHAR
STARTCHAR uni253F
ENCODING 9535
SWIDTH 600 0
DWIDTH 10 0
SWIDTH1 1250 0
DWIDTH1 20 0
BBX 11 19 -1 -3
BITMAP
0400
0400
0400
0400
0400
0400
0400
0400
FFE0
FFE0
FFE0
0400
0400
0400
0400
0400
0400
0400
0400
ENDCHAR
STARTCHAR SF430000
ENCODING 9552
SWIDTH 708 0
DWIDTH 11 0
BBX 11 3 0 5
BITMAP
FFE0
0000
FFE0
ENDCHAR
STARTCHAR SF240000
ENCODING 9553
SWIDTH 708 0
DWIDTH 11 0
BBX 3 14 4 -1
BITMAP
A0
A0
A0
A0
A0
A0
A0
A0
A0
A0
A0
A0
A0
A0
ENDCHAR
STARTCHAR SF510000
ENCODING 9554
SWIDTH 708 0
DWIDTH 11 0
BBX 6 9 5 -1
BITMAP
FC
80
FC
80
80
80
80
80
80
ENDCHAR
STARTCHAR SF520000
ENCODING 9555
SWIDTH 708 0
DWIDTH 11 0
BBX 7 8 4 -1
BITMAP
FE
A0
A0
A0
A0
A0
A0
A0
ENDCHAR
STARTCHAR SF390000
ENCODING 9556
SWIDTH 708 0
DWIDTH 11 0
BBX 7 9 4 -1
BITMAP
FE
80
BE
A0
A0
A0
A0
A0
A0
ENDCHAR
STARTCHAR SF220000
ENCODING 9557
SWIDTH 708 0
DWIDTH 11 0
BBX 6 9 0 -1
BITMAP
FC
04
FC
04
04
04
04
04
04
ENDCHAR
STARTCHAR SF210000
ENCODING 9558
SWIDTH 708 0
DWIDTH 11 0
BBX 7 8 0 -1
BITMAP
FE
0A
0A
0A
0A
0A
0A
0A
ENDCHAR
STARTCHAR SF250000
ENCODING 9559
SWIDTH 708 0
DWIDTH 11 0
BBX 7 9 0 -1
BITMAP
FE
02
FA
0A
0A
0A
0A
0A
0A
ENDCHAR
STARTCHAR SF500000
ENCODING 9560
SWIDTH 708 0
DWIDTH 11 0
BBX 6 9 5 4
BITMAP
80
80
80
80
80
80
FC
80
FC
ENDCHAR
STARTCHAR SF490000
ENCODING 9561
SWIDTH 708 0
DWIDTH 11 0
BBX 7 7 4 6
BITMAP
A0
A0
A0
A0
A0
A0
FE
ENDCHAR
STARTCHAR SF380000
ENCODING 9562
SWIDTH 708 0
DWIDTH 11 0
BBX 7 8 4 5
BITMAP
A0
A0
A0
A0
A0
BE
80
FE
ENDCHAR
STARTCHAR SF280000
ENCODING 9563
SWIDTH 708 0
DWIDTH 11 0
BBX 6 8 0 5
BITMAP
04
04
04
04
04
FC
04
FC
ENDCHAR
STARTCHAR SF270000
ENCODING 9564
SWIDTH 708 0
DWIDTH 11 0
BBX 7 7 0 6
BITMAP
0A
0A
0A
0A
0A
0A
FE
ENDCHAR
STARTCHAR SF260000
ENCODING 9565
SWIDTH 708 0
DWIDTH 11 0
BBX 7 8 0 5
BITMAP
0A
0A
0A
0A
0A
FA
02
FE
ENDCHAR
STARTCHAR SF360000
ENCODING 9566
SWIDTH 708 0
DWIDTH 11 0
BBX 6 14 5 -1
BITMAP
80
80
80
80
80
FC
80
FC
80
80
80
80
80
80
ENDCHAR
STARTCHAR SF370000
ENCODING 9567
SWIDTH 708 0
DWIDTH 11 0
BBX 7 14 4 -1
BITMAP
A0
A0
A0
A0
A0
A0
BE
A0
A0
A0
A0
A0
A0
A0
ENDCHAR
STARTCHAR SF420000
ENCODING 9568
SWIDTH 708 0
DWIDTH 11 0
BBX 7 14 4 -1
BITMAP
A0
A0
A0
A0
A0
BE
80
BE
A0
A0
A0
A0
A0
A0
ENDCHAR
STARTCHAR SF190000
ENCODING 9569
SWIDTH 708 0
DWIDTH 11 0
BBX 6 14 0 -1
BITMAP
04
04
04
04
04
FC
04
FC
04
04
04
04
04
04
ENDCHAR
STARTCHAR SF200000
ENCODING 9570
SWIDTH 708 0
DWIDTH 11 0
BBX 7 14 0 -1
BITMAP
0A
0A
0A
0A
0A
0A
FA
0A
0A
0A
0A
0A
0A
0A
ENDCHAR
STARTCHAR SF230000
ENCODING 9571
SWIDTH 708 0
DWIDTH 11 0
BBX 7 14 0 -1
BITMAP
0A
0A
0A
0A
0A
FA
02
FA
0A
0A
0A
0A
0A
0A
ENDCHAR
STARTCHAR SF470000
ENCODING 9572
SWIDTH 708 0
DWIDTH 11 0
BBX 11 9 0 -1
BITMAP
FFE0
0000
FFE0
0400
0400
0400
0400
0400
0400
ENDCHAR
STARTCHAR SF480000
ENCODING 9573
SWIDTH 708 0
DWIDTH 11 0
BBX 11 8 0 -1
BITMAP
FFE0
0A00
0A00
0A00
0A00
0A00
0A00
0A00
ENDCHAR
STARTCHAR SF410000
ENCODING 9574
SWIDTH 708 0
DWIDTH 11 0
BBX 11 9 0 -1
BITMAP
FFE0
0000
FBE0
0A00
0A00
0A00
0A00
0A00
0A00
ENDCHAR
STARTCHAR SF450000
ENCODING 9575
SWIDTH 708 0
DWIDTH 11 0
BBX 11 8 0 5
BITMAP
0400
0400
0400
0400
0400
FFE0
0000
FFE0
ENDCHAR
STARTCHAR SF460000
ENCODING 9576
SWIDTH 708 0
DWIDTH 11 0
BBX 11 7 0 6
BITMAP
0A00
0A00
0A00
0A00
0A00
0A00
FFE0
ENDCHAR
STARTCHAR SF400000
ENCODING 9577
SWIDTH 708 0
DWIDTH 11 0
BBX 11 8 0 5
BITMAP
0A00
0A00
0A00
0A00
0A00
FBE0
0000
FFE0
ENDCHAR
STARTCHAR SF540000
ENCODING 9578
SWIDTH 708 0
DWIDTH 11 0
BBX 11 14 0 -1
BITMAP
0400
0400
0400
0400
0400
FFE0
0400
FFE0
0400
0400
0400
0400
0400
0400
ENDCHAR
STARTCHAR SF530000
ENCODING 9579
SWIDTH 708 0
DWIDTH 11 0
BBX 11 14 0 -1
BITMAP
0A00
0A00
0A00
0A00
0A00
0A00
FFE0
0A00
0A00
0A00
0A00
0A00
0A00
0A00
ENDCHAR
STARTCHAR SF440000
ENCODING 9580
SWIDTH 708 0
DWIDTH 11 0
BBX 11 14 0 -1
BITMAP
0A00
0A00
0A00
0A00
0A00
FBE0
0000
FBE0
0A00
0A00
0A00
0A00
0A00
0A00
ENDCHAR
STARTCHAR uni256D
ENCODING 9581
SWIDTH 600 0
DWIDTH 10 0
SWIDTH1 393 0
DWIDTH1 6 0
BBX 6 6 4 1
BITMAP
0C
30
40
40
80
80
ENDCHAR
STARTCHAR uni256E
ENCODING 9582
SWIDTH 600 0
DWIDTH 10 0
SWIDTH1 393 0
DWIDTH1 6 0
BBX 6 6 -1 1
BITMAP
C0
30
08
08
04
04
ENDCHAR
STARTCHAR uni256F
ENCODING 9583
SWIDTH 600 0
DWIDTH 10 0
SWIDTH1 393 0
DWIDTH1 6 0
BBX 6 6 -1 5
BITMAP
04
04
08
18
F0
C0
ENDCHAR
STARTCHAR uni2570
ENCODING 9584
SWIDTH 600 0
DWIDTH 10 0
SWIDTH1 393 0
DWIDTH1 6 0
BBX 6 6 4 6
BITMAP
80
80
40
40
30
0C
ENDCHAR
STARTCHAR uni2571
ENCODING 9585
SWIDTH 600 0
DWIDTH 10 0
SWIDTH1 639 0
DWIDTH1 10 0
BBX 9 9 0 2
BITMAP
0080
0100
0200
0400
0800
1000
2000
4000
8000
ENDCHAR
STARTCHAR uni2572
ENCODING 9586
SWIDTH 600 0
DWIDTH 10 0
SWIDTH1 639 0
DWIDTH1 10 0
BBX 9 9 0 1
BITMAP
8000
4000
2000
1000
0800
0400
0200
0100
0080
ENDCHAR
STARTCHAR uni2573
ENCODING 9587
SWIDTH 600 0
DWIDTH 10 0
SWIDTH1 639 0
DWIDTH1 10 0
BBX 9 9 0 2
BITMAP
8080
4100
2200
3400
1800
1C00
2600
4300
8080
ENDCHAR
STARTCHAR uni2574
ENCODING 9588
SWIDTH 600 0
DWIDTH 10 0
BBX 4 1 0 6
BITMAP
F0
ENDCHAR
STARTCHAR uni2576
ENCODING 9590
SWIDTH 600 0
DWIDTH 10 0
BBX 4 1 5 6
BITMAP
F0
ENDCHAR
STARTCHAR uni2581
ENCODING 9601
SWIDTH 600 0
DWIDTH 10 0
SWIDTH1 190 0
DWIDTH1 3 0
BBX 10 2 0 -3
BITMAP
FFC0
FFC0
ENDCHAR
STARTCHAR uni2582
ENCODING 9602
SWIDTH 600 0
DWIDTH 10 0
SWIDTH1 341 0
DWIDTH1 5 0
BBX 10 5 0 -3
BITMAP
FFC0
FFC0
FFC0
FFC0
FFC0
ENDCHAR
STARTCHAR uni2583
ENCODING 9603
SWIDTH 600 0
DWIDTH 10 0
SWIDTH1 493 0
DWIDTH1 8 0
BBX 10 7 0 -3
BITMAP
FFC0
FFC0
FFC0
FFC0
FFC0
FFC0
FFC0
ENDCHAR
STARTCHAR dnblock
ENCODING 9604
SWIDTH 708 0
DWIDTH 11 0
BBX 11 9 0 -1
BITMAP
FFE0
FFE0
FFE0
FFE0
FFE0
FFE0
FFE0
FFE0
FFE0
ENDCHAR
STARTCHAR uni2585
ENCODING 9605
SWIDTH 600 0
DWIDTH 10 0
SWIDTH1 796 0
DWIDTH1 12 0
BBX 10 12 0 -3
BITMAP
FFC0
FFC0
FFC0
FFC0
FFC0
FFC0
FFC0
FFC0
FFC0
FFC0
FFC0
FFC0
ENDCHAR
STARTCHAR uni2586
ENCODING 9606
SWIDTH 600 0
DWIDTH 10 0
SWIDTH1 947 0
DWIDTH1 15 0
BBX 10 15 0 -3
BITMAP
FFC0
FFC0
FFC0
FFC0
FFC0
FFC0
FFC0
FFC0
FFC0
FFC0
FFC0
FFC0
FFC0
FFC0
FFC0
ENDCHAR
STARTCHAR uni2587
ENCODING 9607
SWIDTH 600 0
DWIDTH 10 0
SWIDTH1 1099 0
DWIDTH1 17 0
BBX 10 17 0 -3
BITMAP
FFC0
FFC0
FFC0
FFC0
FFC0
FFC0
FFC0
FFC0
FFC0
FFC0
FFC0
FFC0
FFC0
FFC0
FFC0
FFC0
FFC0
ENDCHAR
STARTCHAR block
ENCODING 9608
SWIDTH 708 0
DWIDTH 11 0
BBX 11 14 0 -1
BITMAP
FFE0
FFE0
FFE0
FFE0
FFE0
FFE0
FFE0
FFE0
FFE0
FFE0
FFE0
FFE0
FFE0
FFE0
ENDCHAR
STARTCHAR uni2589
ENCODING 9609
SWIDTH 600 0
DWIDTH 10 0
SWIDTH1 1250 0
DWIDTH1 20 0
BBX 9 19 0 -3
BITMAP
FF80
FF80
FF80
FF80
FF80
FF80
FF80
FF80
FF80
FF80
FF80
FF80
FF80
FF80
FF80
FF80
FF80
FF80
FF80
ENDCHAR
STARTCHAR uni258A
ENCODING 9610
SWIDTH 600 0
DWIDTH 10 0
SWIDTH1 1250 0
DWIDTH1 20 0
BBX 7 19 0 -3
BITMAP
FE
FE
FE
FE
FE
FE
FE
FE
FE
FE
FE
FE
FE
FE
FE
FE
FE
FE
FE
ENDCHAR
STARTCHAR uni258B
ENCODING 9611
SWIDTH 600 0
DWIDTH 10 0
SWIDTH1 1250 0
DWIDTH1 20 0
BBX 6 19 0 -3
BITMAP
FC
FC
FC
FC
FC
FC
FC
FC
FC
FC
FC
FC
FC
FC
FC
FC
FC
FC
FC
ENDCHAR
STARTCHAR lfblock
ENCODING 9612
SWIDTH 708 0
DWIDTH 11 0
BBX 6 14 0 -1
BITMAP
FC
FC
FC
FC
FC
FC
FC
FC
FC
FC
FC
FC
FC
FC
ENDCHAR
STARTCHAR uni258D
ENCODING 9613
SWIDTH 600 0
DWIDTH 10 0
SWIDTH1 1250 0
DWIDTH1 20 0
BBX 4 19 0 -3
BITMAP
F0
F0
F0
F0
F0
F0
F0
F0
F0
F0
F0
F0
F0
F0
F0
F0
F0
F0
F0
ENDCHAR
STARTCHAR uni258E
ENCODING 9614
SWIDTH 600 0
DWIDTH 10 0
SWIDTH1 1250 0
DWIDTH1 20 0
BBX 3 19 0 -3
BITMAP
E0
E0
E0
E0
E0
E0
E0
E0
E0
E0
E0
E0
E0
E0
E0
E0
E0
E0
E0
ENDCHAR
STARTCHAR uni258F
ENCODING 9615
SWIDTH 600 0
DWIDTH 10 0
BBX 1 19 0 -3
BITMAP
80
80
80
80
80
80
80
80
80
80
80
80
80
80
80
80
80
80
80
ENDCHAR
STARTCHAR dkshade
ENCODING 9619
SWIDTH 708 0
DWIDTH 11 0
BBX 11 15 0 -2
BITMAP
F7A0
FFE0
D5A0
7FE0
AB60
FFE0
55A0
FFE0
AB40
7FE0
D5A0
FFC0
AB60
FFE0
2A40
ENDCHAR
STARTCHAR uni2594
ENCODING 9620
SWIDTH 600 0
DWIDTH 10 0
SWIDTH1 190 0
DWIDTH1 3 0
BBX 10 2 0 14
BITMAP
FFC0
FFC0
ENDCHAR
STARTCHAR uni2595
ENCODING 9621
SWIDTH 600 0
DWIDTH 10 0
SWIDTH1 1250 0
DWIDTH1 20 0
BBX 1 19 9 -3
BITMAP
80
80
80
80
80
80
80
80
80
80
80
80
80
80
80
80
80
80
80
ENDCHAR
STARTCHAR filledbox
ENCODING 9632
SWIDTH 604 0
DWIDTH 10 0
BBX 8 7 1 0
BITMAP
FF
FF
FF
FF
FF
FF
FF
ENDCHAR
STARTCHAR H22073
ENCODING 9633
SWIDTH 652 0
DWIDTH 10 0
BBX 8 8 1 0
BITMAP
FF
81
81
81
81
81
81
FF
ENDCHAR
STARTCHAR triagup
ENCODING 9650
SWIDTH 989 0
BBX 11 11 2 0
BITMAP
0400
0400
0E00
0E00
1F00
1F00
3F80
3F80
7FC0
7FC0
FFE0
ENDCHAR
STARTCHAR uni25B3
ENCODING 9651
SWIDTH 600 0
DWIDTH 10 0
BBX 8 7 1 3
BITMAP
10
18
24
44
42
82
FF
ENDCHAR
STARTCHAR triagdn
ENCODING 9660
SWIDTH 989 0
BBX 11 11 2 0
BITMAP
FFE0
7FC0
7FC0
3F80
3F80
1F00
1F00
0E00
0E00
0400
0400
ENDCHAR
STARTCHAR uni25BD
ENCODING 9661
SWIDTH 600 0
DWIDTH 10 0
BBX 8 7 1 2
BITMAP
FF
82
42
44
24
18
10
ENDCHAR
STARTCHAR uni25C6
ENCODING 9670
SWIDTH 600 0
DWIDTH 10 0
BBX 8 7 1 2
BITMAP
18
3C
7E
FF
7E
3C
18
ENDCHAR
STARTCHAR uni25C7
ENCODING 9671
SWIDTH 600 0
DWIDTH 10 0
BBX 8 7 1 3
BITMAP
18
24
42
81
42
24
18
ENDCHAR
STARTCHAR circle
ENCODING 9675
SWIDTH1 849 0
BBX 12 12 2 0
BITMAP
0F00
30C0
4020
4020
8010
8010
8010
8010
4020
4020
30C0
0F00
ENDCHAR
STARTCHAR uni25CC
ENCODING 9676
SWIDTH 500 0
DWIDTH 8 0
BBX 6 2 1 2
BITMAP
84
48
ENDCHAR
STARTCHAR uni25CE
ENCODING 9678
SWIDTH 600 0
DWIDTH 10 0
BBX 8 7 1 2
BITMAP
3C
42
99
A5
99
42
3C
ENDCHAR
STARTCHAR H18533
ENCODING 9679
BBX 12 12 2 0
BITMAP
0F00
3FC0
7FE0
7FE0
FFF0
FFF0
FFF0
FFF0
7FE0
7FE0
3FC0
0F00
ENDCHAR
STARTCHAR uni25E2
ENCODING 9698
SWIDTH 600 0
DWIDTH 10 0
BBX 7 7 2 3
BITMAP
02
06
0E
1E
3E
7E
FE
ENDCHAR
STARTCHAR uni25E3
ENCODING 9699
SWIDTH 600 0
DWIDTH 10 0
BBX 7 7 1 3
BITMAP
80
C0
E0
F0
F8
FC
FE
ENDCHAR
STARTCHAR uni25E4
ENCODING 9700
SWIDTH 600 0
DWIDTH 10 0
BBX 7 7 1 3
BITMAP
FE
FC
F8
F0
E0
C0
80
ENDCHAR
STARTCHAR uni25E5
ENCODING 9701
SWIDTH 600 0
DWIDTH 10 0
BBX 7 7 2 3
BITMAP
FE
7E
3E
1E
0E
06
02
ENDCHAR
STARTCHAR uni2605
ENCODING 9733
SWIDTH 815 0
DWIDTH 13 0
SWIDTH1 758 0
DWIDTH1 12 0
BBX 12 12 1 0
BITMAP
0400
0600
0600
0600
FE00
7FF0
1F80
0F00
1F00
1980
3080
2040
ENDCHAR
STARTCHAR uni2606
ENCODING 9734
SWIDTH 823 0
DWIDTH 13 0
SWIDTH1 759 0
DWIDTH1 12 0
BBX 12 12 0 0
BITMAP
0600
0600
0600
0A00
F9F0
4020
30C0
0880
1680
1940
3140
20C0
ENDCHAR
STARTCHAR uni2609
ENCODING 9737
SWIDTH 799 0
DWIDTH 13 0
SWIDTH1 699 0
DWIDTH1 11 0
BBX 11 11 1 0
BITMAP
1F00
2080
4040
8020
8C20
8C20
8020
8020
4040
2080
1F00
ENDCHAR
STARTCHAR female
ENCODING 9792
SWIDTH 625 0
DWIDTH 10 0
BBX 7 14 2 -3
BITMAP
38
46
82
82
82
44
38
10
10
FE
10
10
10
10
ENDCHAR
STARTCHAR uni2641
ENCODING 9793
SWIDTH 625 0
DWIDTH 10 0
SWIDTH1 895 0
DWIDTH1 14 0
BBX 7 13 2 -2
BITMAP
10
10
10
FE
10
10
38
44
82
82
82
44
38
ENDCHAR
STARTCHAR male
ENCODING 9794
SWIDTH 714 0
DWIDTH 11 0
SWIDTH1 878 0
DWIDTH1 14 0
BBX 9 13 1 -2
BITMAP
0300
0F00
1300
0280
0480
0400
3C00
4400
8200
8200
8200
4400
3800
ENDCHAR
STARTCHAR uni273D
ENCODING 10045
SWIDTH 707 0
DWIDTH 11 0
BBX 10 12 1 0
BITMAP
0C00
0C00
0C00
E9C0
6980
1E00
0C00
7B80
CCC0
0C00
0C00
0C00
ENDCHAR
STARTCHAR uni2E80
ENCODING 11904
BBX 7 8 4 1
BITMAP
30
0C
02
00
C0
38
0C
02
ENDCHAR
STARTCHAR uni2E81
ENCODING 11905
BBX 13 14 1 -1
BITMAP
0018
0FE0
3000
2000
2000
2000
2000
2000
2000
2000
4000
4000
4000
8000
ENDCHAR
STARTCHAR uni2E82
ENCODING 11906
BBX 14 5 1 7
BITMAP
FFFC
0004
0008
0008
0010
ENDCHAR
STARTCHAR uni2E83
ENCODING 11907
BBX 11 14 3 -1
BITMAP
8000
8000
8000
8000
8000
8000
8000
8000
8000
8020
8020
8020
8020
FFC0
ENDCHAR
STARTCHAR uni2E84
ENCODING 11908
BBX 12 14 3 -1
BITMAP
FF80
0080
0080
0080
0080
0080
0080
0080
0080
0090
0090
0090
0090
00E0
ENDCHAR
STARTCHAR uni2E85
ENCODING 11909
BBX 5 14 5 -1
BITMAP
08
18
10
30
30
50
90
10
10
10
10
10
10
10
ENDCHAR
STARTCHAR uni2E86
ENCODING 11910
BBX 12 14 2 -1
BITMAP
FFF0
8010
8010
8010
8010
8010
8010
8010
8010
8010
8010
8010
8010
80F0
ENDCHAR
STARTCHAR uni2E87
ENCODING 11911
BBX 14 14 1 -1
BITMAP
1FC0
1040
1040
1040
1040
1040
1040
1040
1040
2044
2044
6044
4044
8078
ENDCHAR
STARTCHAR uni2E88
ENCODING 11912
BBX 12 5 2 8
BITMAP
0200
07F0
1810
2020
C040
ENDCHAR
STARTCHAR uni2E89
ENCODING 11913
BBX 5 14 6 -1
BITMAP
08
88
88
88
88
88
88
88
88
88
88
08
08
78
ENDCHAR
STARTCHAR uni2E8A
ENCODING 11914
BBX 6 14 6 -1
BITMAP
80
80
80
80
80
80
FC
80
80
80
80
80
80
80
ENDCHAR
STARTCHAR uni2E8B
ENCODING 11915
BBX 11 8 3 -1
BITMAP
FF80
8080
8080
8080
8F00
8020
8020
FFC0
ENDCHAR
STARTCHAR uni2E8C
ENCODING 11916
BBX 12 5 2 8
BITMAP
8210
4220
4240
2280
0200
ENDCHAR
STARTCHAR uni2E8D
ENCODING 11917
BBX 12 4 2 9
BITMAP
8810
4420
2240
2280
ENDCHAR
STARTCHAR uni2E8E
ENCODING 11918
BBX 14 14 1 -1
BITMAP
FFFC
0880
0880
0880
0880
0880
0880
1080
1080
1084
2084
2084
4084
80F8
ENDCHAR
STARTCHAR uni2E8F
ENCODING 11919
BBX 14 14 1 -1
BITMAP
0880
1040
1020
2010
4008
8444
0440
0440
0440
0440
0844
0844
3044
C078
ENDCHAR
STARTCHAR uni2E90
ENCODING 11920
BBX 14 15 1 -1
BITMAP
0200
0200
0200
FFFC
0200
0280
0280
0480
0480
0480
0880
1884
3084
6084
80F8
ENDCHAR
STARTCHAR uni2E91
ENCODING 11921
BBX 14 14 1 -1
BITMAP
0480
0840
1020
3010
6008
8FC4
0840
0840
0840
0840
0844
1044
2044
C078
ENDCHAR
STARTCHAR uni2E92
ENCODING 11922
BBX 12 14 2 -1
BITMAP
FFE0
8020
8020
8020
8020
8020
FFE0
8000
8000
8010
8010
8010
8010
FFE0
ENDCHAR
STARTCHAR uni2E93
ENCODING 11923
BBX 12 15 2 -1
BITMAP
0400
0800
0800
1040
2080
4080
8100
FE00
0600
0440
0840
1020
2060
5F90
E010
ENDCHAR
STARTCHAR uni2E94
ENCODING 11924
BBX 14 14 1 -1
BITMAP
0800
0800
1FF0
1010
1010
2020
2020
2020
3FE0
0020
0040
0040
0040
FFFC
ENDCHAR
STARTCHAR uni2E95
ENCODING 11925
BBX 14 13 1 0
BITMAP
7FF0
0010
0010
0010
0010
0010
3FFC
0010
0010
0010
0010
0010
FFFC
ENDCHAR
STARTCHAR uni2E96
ENCODING 11926
BBX 5 14 5 -1
BITMAP
20
20
20
30
70
68
E0
A0
20
20
20
20
20
20
ENDCHAR
STARTCHAR uni2E97
ENCODING 11927
BBX 14 10 1 -1
BITMAP
0200
0200
1290
1250
2248
4248
4224
8224
0200
0E00
ENDCHAR
STARTCHAR uni2E98
ENCODING 11928
BBX 6 14 5 -1
BITMAP
10
10
10
FC
10
10
14
38
D0
10
10
10
10
70
ENDCHAR
STARTCHAR uni2E99
ENCODING 11929
BBX 8 14 4 -1
BITMAP
20
20
40
3F
44
44
A4
A8
38
10
18
24
42
81
ENDCHAR
STARTCHAR uni2E9B
ENCODING 11931
BBX 14 14 1 -1
BITMAP
7FF8
0100
2100
2100
4100
4100
7FFC
0200
0500
0500
0904
1104
2104
C1F8
ENDCHAR
STARTCHAR uni2E9C
ENCODING 11932
BBX 12 5 2 8
BITMAP
FFF0
8010
8010
BFD0
9F90
ENDCHAR
STARTCHAR uni2E9D
ENCODING 11933
BBX 13 14 1 -1
BITMAP
3FF8
2008
2008
2008
3FF8
2008
2008
2008
3FF8
2008
2008
4008
4008
8078
ENDCHAR
STARTCHAR uni2E9E
ENCODING 11934
BBX 14 14 1 -1
BITMAP
0100
0100
01FC
0900
1100
1FF8
2008
4810
8620
0140
0080
0300
0C00
F000
ENDCHAR
STARTCHAR uni2E9F
ENCODING 11935
BBX 14 14 1 -1
BITMAP
3FF0
2010
2610
2110
2010
FFFC
2010
2610
4110
4010
7FFC
0010
0020
01E0
ENDCHAR
STARTCHAR uni2EA0
ENCODING 11936
BBX 13 14 2 -1
BITMAP
FFF0
8010
8010
FFF0
8200
8200
FFF8
8200
8300
8100
8108
8C88
B050
C030
ENDCHAR
STARTCHAR uni2EA1
ENCODING 11937
BBX 4 14 6 -1
BITMAP
40
20
10
00
80
60
10
00
10
20
20
40
40
80
ENDCHAR
STARTCHAR uni2EA2
ENCODING 11938
BBX 14 15 1 -1
BITMAP
0100
0100
4108
3110
0960
0580
0100
0180
0560
0930
1108
6104
8100
0100
0F00
ENDCHAR
STARTCHAR uni2EA3
ENCODING 11939
BBX 14 5 1 4
BITMAP
2000
2898
4448
444C
8444
ENDCHAR
STARTCHAR uni2EA4
ENCODING 11940
BBX 13 6 2 7
BITMAP
0038
FFC0
0410
4220
2220
1040
ENDCHAR
STARTCHAR uni2EA5
ENCODING 11941
BBX 13 6 1 7
BITMAP
0038
FFC0
2420
2420
4220
4210
ENDCHAR
STARTCHAR uni2EA6
ENCODING 11942
BBX 5 14 5 -1
BITMAP
08
08
88
48
28
08
18
28
28
48
88
08
08
08
ENDCHAR
STARTCHAR uni2EA7
ENCODING 11943
BBX 14 8 1 5
BITMAP
0100
1100
2100
3FF8
4100
4100
8100
FFFC
ENDCHAR
STARTCHAR uni2EA8
ENCODING 11944
BBX 7 14 4 -1
BITMAP
62
34
08
38
C4
04
0C
14
64
84
04
04
0C
78
ENDCHAR
STARTCHAR uni2EA9
ENCODING 11945
BBX 6 12 1 0
BITMAP
FC
20
20
20
20
FC
20
20
20
24
78
C0
ENDCHAR
STARTCHAR uni2EAA
ENCODING 11946
BBX 6 12 5 0
BITMAP
7C
04
08
48
48
4C
48
48
48
48
7C
E0
ENDCHAR
STARTCHAR uni2EAB
ENCODING 11947
BBX 12 4 2 8
BITMAP
FFF0
8910
8910
FFF0
ENDCHAR
STARTCHAR uni2EAC
ENCODING 11948
BBX 8 14 1 -1
BITMAP
7E
00
00
FF
08
4A
4A
4A
4A
4A
8A
8A
88
08
ENDCHAR
STARTCHAR uni2EAD
ENCODING 11949
BBX 6 14 5 -1
BITMAP
20
30
10
FC
04
08
18
38
78
94
10
10
10
10
ENDCHAR
STARTCHAR uni2EAE
ENCODING 11950
BBX 14 5 1 8
BITMAP
1040
2080
3EFC
5120
8A10
ENDCHAR
STARTCHAR uni2EAF
ENCODING 11951
BBX 7 14 1 -1
BITMAP
10
20
22
44
FC
08
14
24
5E
E2
54
92
92
90
ENDCHAR
STARTCHAR uni2EB0
ENCODING 11952
BBX 7 15 4 -1
BITMAP
08
10
10
22
24
5C
68
10
20
46
BC
C0
06
3C
C0
ENDCHAR
STARTCHAR uni2EB1
ENCODING 11953
BBX 13 7 2 6
BITMAP
FFF8
B068
9CC8
8708
8988
90C8
E028
ENDCHAR
STARTCHAR uni2EAB.dup2
ENCODING 11954
BBX 12 4 2 8
BITMAP
FFF0
8910
8910
FFF0
ENDCHAR
STARTCHAR uni2EB3
ENCODING 11955
BBX 14 7 1 6
BITMAP
FFFC
8004
8484
8844
1820
2010
C008
ENDCHAR
STARTCHAR uni2EB4
ENCODING 11956
BBX 15 14 1 -1
BITMAP
7FFC
4444
4444
4444
0440
0440
0440
0440
0840
0840
1042
1042
6042
807C
ENDCHAR
STARTCHAR uni2EB5
ENCODING 11957
BBX 12 9 2 2
BITMAP
FFF0
8910
8910
8910
8910
8910
8910
8910
8010
ENDCHAR
STARTCHAR uni2EB6
ENCODING 11958
BBX 14 14 1 -1
BITMAP
1020
0840
0000
7FF8
0100
7FF8
0100
0100
FFFC
0100
0200
0200
0400
3800
ENDCHAR
STARTCHAR uni2EB7
ENCODING 11959
BBX 14 8 1 5
BITMAP
1820
0C40
7FF8
0100
0100
3FF0
0100
FFFC
ENDCHAR
STARTCHAR uni2EB8
ENCODING 11960
BBX 14 14 1 -1
BITMAP
0480
0480
FCFC
0480
0480
0000
FFFC
0100
0100
7FF8
0100
0100
0100
0100
ENDCHAR
STARTCHAR uni2EB9
ENCODING 11961
BBX 14 9 1 4
BITMAP
0400
0408
7FD0
0420
0440
FFFC
0100
0E00
F000
ENDCHAR
STARTCHAR uni2EBA
ENCODING 11962
BBX 15 14 1 -1
BITMAP
0100
3FF8
0108
0108
FFFE
0108
0108
3FF8
0100
0100
0100
0100
0100
0100
ENDCHAR
STARTCHAR uni2EBB
ENCODING 11963
BBX 14 8 1 5
BITMAP
0100
7FF8
0108
FFFC
0108
7FF8
0100
FFFC
ENDCHAR
STARTCHAR uni2EBC
ENCODING 11964
BBX 7 14 4 -1
BITMAP
7E
42
62
5A
4E
46
42
46
5A
72
42
42
82
8E
ENDCHAR
STARTCHAR uni2EBD
ENCODING 11965
BBX 12 13 2 0
BITMAP
0C00
31F0
C010
8010
8010
8010
F9F0
8010
8010
8010
8010
F9F0
8010
ENDCHAR
STARTCHAR uni2EBE
ENCODING 11966
BBX 14 4 1 9
BITMAP
0840
0840
FFFC
0840
ENDCHAR
STARTCHAR uni2EBF
ENCODING 11967
BBX 14 5 1 8
BITMAP
0840
0840
FFFC
0840
0840
ENDCHAR
STARTCHAR uni2EC0
ENCODING 11968
BBX 14 14 1 -1
BITMAP
0440
0440
0440
0440
0440
0440
FC7C
0440
0440
0440
0440
0440
0440
0440
ENDCHAR
STARTCHAR uni2EC1
ENCODING 11969
BBX 14 14 1 -1
BITMAP
0200
03F8
0200
7FFC
4268
5F80
5208
43F0
4000
47C0
4444
8844
9844
B078
ENDCHAR
STARTCHAR uni2EC2
ENCODING 11970
BBX 7 15 5 -1
BITMAP
20
10
08
FC
04
08
08
12
3C
54
92
10
10
10
10
ENDCHAR
STARTCHAR uni2EC3
ENCODING 11971
BBX 14 6 1 7
BITMAP
FFFC
0480
7FF8
4488
4488
7FF8
ENDCHAR
STARTCHAR uni2EC4
ENCODING 11972
BBX 14 14 1 -1
BITMAP
FFFC
0480
0480
0480
7FF8
4488
4488
4488
4888
48E8
5008
4008
7FF8
4008
ENDCHAR
STARTCHAR uni2EC5
ENCODING 11973
BBX 14 14 1 -1
BITMAP
3FF0
2010
2110
2110
2110
2110
2110
2110
2390
0280
0484
0884
3084
C0F8
ENDCHAR
STARTCHAR uni2EC6
ENCODING 11974
BBX 13 14 1 -1
BITMAP
0400
0FE0
1020
6040
BFF8
2108
2108
3FF8
2108
2108
3FF8
4108
4108
8038
ENDCHAR
STARTCHAR uni2EC7
ENCODING 11975
BBX 13 14 1 -1
BITMAP
0400
0FE0
3060
4040
FFF8
4108
46C8
4D28
5208
4308
4C88
5068
4008
4078
ENDCHAR
STARTCHAR uni2EC8
ENCODING 11976
BBX 7 13 5 0
BITMAP
40
20
10
08
00
F0
10
10
10
10
12
1C
10
ENDCHAR
STARTCHAR uni2EC9
ENCODING 11977
BBX 14 14 1 -1
BITMAP
3FF0
2010
2210
2210
2210
2210
2210
2210
2210
2200
04C0
0C60
1818
E004
ENDCHAR
STARTCHAR uni2ECA
ENCODING 11978
BBX 7 14 1 -1
BITMAP
7C
44
44
44
7C
10
50
50
5C
50
50
56
78
C0
ENDCHAR
STARTCHAR uni2ECB
ENCODING 11979
BBX 13 13 2 0
BITMAP
0800
1800
FFF8
1000
2200
4200
7FF0
0200
0200
FFF8
0200
0200
0200
ENDCHAR
STARTCHAR uni2ECC
ENCODING 11980
BBX 14 14 1 -1
BITMAP
4000
2000
1000
0000
0000
E000
2000
2000
2000
2000
2000
2000
5000
8FFC
ENDCHAR
STARTCHAR uni2ECD
ENCODING 11981
BBX 14 14 1 -1
BITMAP
4000
4000
2000
8000
4000
2000
0000
E000
2000
2000
2000
2000
7000
8FFC
ENDCHAR
STARTCHAR uni2ECE
ENCODING 11982
BBX 14 14 1 -1
BITMAP
4000
2000
2000
F000
1000
2000
4000
F000
1000
1000
2000
2000
5800
87FC
ENDCHAR
STARTCHAR uni2ECF
ENCODING 11983
BBX 5 14 10 -1
BITMAP
F8
90
90
A0
A0
90
90
88
88
F0
80
80
80
80
ENDCHAR
STARTCHAR uni2ED0
ENCODING 11984
BBX 7 14 5 -1
BITMAP
10
20
3E
20
40
7C
90
10
FE
10
10
12
14
18
ENDCHAR
STARTCHAR uni2ED1
ENCODING 11985
BBX 13 14 2 -1
BITMAP
3FF0
2000
3FE0
2000
3FE0
2000
2000
FFF8
2000
2410
2260
2180
2CC0
3038
ENDCHAR
STARTCHAR uni2ED2
ENCODING 11986
BBX 14 14 1 -1
BITMAP
3FF8
2000
2000
3FF0
2000
3FF0
2000
2000
FFFC
0400
0840
3030
4078
FF84
ENDCHAR
STARTCHAR uni2ED3
ENCODING 11987
BBX 14 14 1 -1
BITMAP
1000
1010
1060
1380
1C00
1000
FFFC
1200
1300
1100
1080
1040
1F30
1C0C
ENDCHAR
STARTCHAR uni2ED4
ENCODING 11988
BBX 13 14 2 -1
BITMAP
8FF8
4008
2008
8008
8008
8008
8008
8008
8008
8008
8008
8008
8008
8078
ENDCHAR
STARTCHAR uni2ED5
ENCODING 11989
BBX 10 14 3 -1
BITMAP
0800
1000
FFC0
8040
FFC0
8000
FFC0
8040
FFC0
8000
FFC0
8040
8040
FFC0
ENDCHAR
STARTCHAR uni2ED6
ENCODING 11990
BBX 4 14 2 -1
BITMAP
F0
90
A0
A0
A0
A0
90
90
90
E0
80
80
80
80
ENDCHAR
STARTCHAR uni2ED7
ENCODING 11991
BBX 14 6 1 7
BITMAP
7FF8
0100
FFFC
B9F4
8104
39F0
ENDCHAR
STARTCHAR uni2ED8
ENCODING 11992
BBX 14 14 1 -1
BITMAP
0100
7FF8
0100
7FF8
0100
FFFC
0000
3FF0
2010
3FF0
2010
3FF0
2010
20F0
ENDCHAR
STARTCHAR uni2ED9
ENCODING 11993
BBX 13 14 1 -1
BITMAP
0200
0200
FFF8
0200
7FF0
0200
0200
FFF8
0208
0208
0208
0270
0200
0200
ENDCHAR
STARTCHAR uni2EDA
ENCODING 11994
BBX 14 14 1 -1
BITMAP
FFFC
0200
0200
3FF0
2010
2110
2110
2110
2110
2110
0280
0460
1818
E004
ENDCHAR
STARTCHAR uni2EDB
ENCODING 11995
BBX 14 14 1 -1
BITMAP
3FF0
2010
2050
3090
2890
2510
2310
2310
2690
2450
6834
5014
4014
8008
ENDCHAR
STARTCHAR uni2EDC
ENCODING 11996
BBX 14 14 1 -1
BITMAP
FFC0
0048
0050
0060
0060
0040
00B0
0048
0044
0040
0044
0024
0028
0018
ENDCHAR
STARTCHAR uni2EDD
ENCODING 11997
BBX 14 14 1 -1
BITMAP
0100
0700
1EE0
E31C
3FF0
2010
2010
3FF0
2010
3FF8
2310
20E0
2618
3804
ENDCHAR
STARTCHAR uni2EDE
ENCODING 11998
BBX 7 14 1 -1
BITMAP
10
28
44
BA
7C
44
7C
44
7C
40
7C
40
7C
40
ENDCHAR
STARTCHAR uni2EDF
ENCODING 11999
BBX 6 14 1 -1
BITMAP
10
38
74
84
00
7C
44
7C
44
7C
48
48
4C
74
ENDCHAR
STARTCHAR uni2EE0
ENCODING 12000
BBX 6 13 5 0
BITMAP
20
60
7C
44
A8
20
20
20
20
20
24
28
30
ENDCHAR
STARTCHAR uni2EE1
ENCODING 12001
BBX 14 13 1 0
BITMAP
1188
2230
6620
1198
FFFC
0200
3FF0
2010
3FF0
2010
3FF0
2010
3FF0
ENDCHAR
STARTCHAR uni2EE2
ENCODING 12002
BBX 14 14 1 -1
BITMAP
7FF8
0008
2008
2010
2010
2010
3FFC
0004
0004
FFE4
0004
0004
0008
01F8
ENDCHAR
STARTCHAR uni2EE3
ENCODING 12003
BBX 14 14 1 -1
BITMAP
3FF0
2010
23F0
2210
FFFC
8004
BFF4
2010
3F90
2070
4790
3C10
6010
40F0
ENDCHAR
STARTCHAR uni2EE4
ENCODING 12004
BBX 14 14 1 -1
BITMAP
0400
0400
3FF0
2210
3FF0
2210
2210
3FF0
0540
0560
09A0
11F4
2104
C1F8
ENDCHAR
STARTCHAR uni2EE5
ENCODING 12005
BBX 14 14 1 -1
BITMAP
0400
0FC0
1080
6100
FFF0
2210
2210
3FF0
2210
2210
3FF0
0000
0000
FFFC
ENDCHAR
STARTCHAR uni2EE6
ENCODING 12006
BBX 13 15 2 -1
BITMAP
0800
0800
7FF0
4010
4810
4610
4110
40E0
7FF8
0008
0008
FFC8
0008
0010
0070
ENDCHAR
STARTCHAR uni2EE7
ENCODING 12007
BBX 12 14 2 -1
BITMAP
0400
07F0
0400
FFF0
8010
A090
9110
8E10
8610
9910
E090
8050
FFF0
8010
ENDCHAR
STARTCHAR uni2EE8
ENCODING 12008
BBX 14 14 1 -1
BITMAP
0100
7FF8
0100
0100
7FF8
0100
FFFC
0800
1FE0
2860
C4C0
0780
0480
F87C
ENDCHAR
STARTCHAR uni2EE9
ENCODING 12009
BBX 14 14 1 -1
BITMAP
0840
FFFC
0840
0840
FFFC
0100
7FF8
4108
7FF8
4108
7FF8
0000
0CE0
F01C
ENDCHAR
STARTCHAR uni2EEA
ENCODING 12010
BBX 13 14 2 -1
BITMAP
7FE0
4020
4020
7FE0
0400
FFF0
8410
8410
FFF0
8410
FFF0
0408
0408
07F0
ENDCHAR
STARTCHAR uni2EEB
ENCODING 12011
BBX 14 14 1 -1
BITMAP
0200
0100
FFFC
1860
0CC0
0780
3860
5038
1FE0
1020
1FE0
1020
2020
C020
ENDCHAR
STARTCHAR uni2EEC
ENCODING 12012
BBX 14 14 1 -1
BITMAP
0200
0100
FFFC
1860
0480
0300
1CC0
E03C
0840
0840
0840
1040
3040
C040
ENDCHAR
STARTCHAR uni2EED
ENCODING 12013
BBX 14 14 1 -1
BITMAP
0100
21F8
2100
2100
FFFC
1120
4D48
4188
5FE8
4788
4D48
5128
4008
3FF8
ENDCHAR
STARTCHAR uni2EEE
ENCODING 12014
BBX 14 14 1 -1
BITMAP
0100
21F8
2100
2100
FFFC
0100
4108
4308
4688
4C48
5828
4008
7FF8
0008
ENDCHAR
STARTCHAR uni2EEF
ENCODING 12015
BBX 13 14 2 -1
BITMAP
0600
7FF0
1040
0880
FFF8
0000
7FF0
4210
7FF0
4210
7FF0
0208
0208
03F8
ENDCHAR
STARTCHAR uni2EF0
ENCODING 12016
BBX 14 14 1 -1
BITMAP
0240
0220
0210
0200
FFFC
0280
0288
0490
04B0
08E0
08C4
1184
6E84
80F8
ENDCHAR
STARTCHAR uni2EF1
ENCODING 12017
BBX 14 14 1 -1
BITMAP
0400
0800
7FF8
4008
7DF8
7500
15F8
FD68
7528
0568
7508
FDF8
7504
07F8
ENDCHAR
STARTCHAR uni2EF2
ENCODING 12018
BBX 14 14 1 -1
BITMAP
0400
1FC0
3080
FFF0
3FF0
2210
3FF0
0200
7FF8
7FF8
4208
7FF8
0204
03F8
ENDCHAR
STARTCHAR uni2EF3
ENCODING 12019
BBX 14 15 1 -1
BITMAP
0400
0800
1FC0
2040
4080
BFF8
2108
2108
3FF8
2108
2108
3FF8
0104
0104
01F8
ENDCHAR
STARTCHAR uni2F00
ENCODING 12032
BBX 14 1 1 6
BITMAP
FFFC
ENDCHAR
STARTCHAR uni2F01
ENCODING 12033
BBX 1 14 8 -1
BITMAP
80
80
80
80
80
80
80
80
80
80
80
80
80
80
ENDCHAR
STARTCHAR uni2F02
ENCODING 12034
BBX 6 5 5 4
BITMAP
80
60
30
08
04
ENDCHAR
STARTCHAR uni2F03
ENCODING 12035
BBX 5 14 4 -1
BITMAP
08
08
08
08
08
08
08
08
08
08
10
10
60
C0
ENDCHAR
STARTCHAR uni2F04
ENCODING 12036
BBX 14 14 1 -1
BITMAP
7FF0
0020
0040
0180
0200
0400
0800
1000
2004
4004
4004
8004
8008
7FF0
ENDCHAR
STARTCHAR uni2F05
ENCODING 12037
BBX 4 14 5 -1
BITMAP
10
10
10
10
10
10
10
10
10
10
10
10
10
F0
ENDCHAR
STARTCHAR uni2F06
ENCODING 12038
BBX 14 13 1 0
BITMAP
7FF8
0000
0000
0000
0000
0000
0000
0000
0000
0000
0000
0000
FFFC
ENDCHAR
STARTCHAR uni2F07
ENCODING 12039
BBX 14 3 1 6
BITMAP
0200
0100
FFFC
ENDCHAR
STARTCHAR uni2F08
ENCODING 12040
BBX 14 14 2 -1
BITMAP
0200
0200
0200
0200
0300
0500
0500
0480
0880
0840
1020
2030
4018
8004
ENDCHAR
STARTCHAR uni2F09
ENCODING 12041
BBX 14 15 1 -1
BITMAP
0840
0840
0840
0840
0840
0840
0840
0840
0840
0840
1044
1044
2044
4044
8078
ENDCHAR
STARTCHAR uni2F0A
ENCODING 12042
BBX 14 14 1 -1
BITMAP
0400
0200
0100
0100
0100
0300
0280
0480
0440
0840
1020
2010
4008
8004
ENDCHAR
STARTCHAR uni2F0B
ENCODING 12043
BBX 14 14 1 -1
BITMAP
0840
0840
0840
0840
0840
0840
1040
1020
1020
1020
2010
2010
4008
8004
ENDCHAR
STARTCHAR uni2F0C
ENCODING 12044
BBX 12 14 2 -1
BITMAP
FFF0
8010
8010
8010
8010
8010
8010
8010
8010
8010
8010
8010
8010
80F0
ENDCHAR
STARTCHAR uni2F0D
ENCODING 12045
BBX 14 3 1 5
BITMAP
FFFC
8004
8004
ENDCHAR
STARTCHAR uni2F0E
ENCODING 12046
BBX 4 13 6 0
BITMAP
80
60
10
00
00
00
00
10
20
20
40
40
80
ENDCHAR
STARTCHAR uni2F0F
ENCODING 12047
BBX 14 14 1 -1
BITMAP
1FC0
1040
1040
1040
1040
1040
1040
1040
1040
3040
2044
6044
4044
8078
ENDCHAR
STARTCHAR uni2F10
ENCODING 12048
BBX 12 14 2 -1
BITMAP
8010
8010
8010
8010
8010
8010
8010
8010
8010
8010
8010
8010
FFF0
0010
ENDCHAR
STARTCHAR uni2F11
ENCODING 12049
BBX 13 14 1 -1
BITMAP
7FF8
0208
0208
0208
0208
0208
0408
0408
0C08
0808
1008
3010
6010
81F0
ENDCHAR
STARTCHAR uni2F12
ENCODING 12050
BBX 12 14 2 -1
BITMAP
0200
0200
0200
FFF0
0210
0210
0210
0410
0410
0410
0810
1010
6030
C1E0
ENDCHAR
STARTCHAR uni2F13
ENCODING 12051
BBX 13 14 1 -1
BITMAP
0800
1000
1FF8
2008
2008
4008
8008
0008
0008
0008
0008
0008
0008
00F0
ENDCHAR
STARTCHAR uni2F14
ENCODING 12052
BBX 12 14 3 -1
BITMAP
8000
8000
8000
8060
8180
9E00
E000
8000
8000
8010
8010
8010
8010
FFE0
ENDCHAR
STARTCHAR uni2F15
ENCODING 12053
BBX 13 14 2 -1
BITMAP
FFF8
8000
8000
8000
8000
8000
8000
8000
8000
8000
8000
8000
8000
FFF8
ENDCHAR
STARTCHAR uni2F16
ENCODING 12054
BBX 14 13 1 0
BITMAP
FFFC
4000
4000
4000
4000
4000
4000
4000
4000
4000
4000
4000
7FFC
ENDCHAR
STARTCHAR uni2F17
ENCODING 12055
BBX 14 14 1 -1
BITMAP
0100
0100
0100
0100
0100
FFFC
0100
0100
0100
0100
0100
0100
0100
0100
ENDCHAR
STARTCHAR uni2F18
ENCODING 12056
BBX 9 15 6 -1
BITMAP
8000
8000
8000
8000
C000
B000
8C00
8600
8100
8080
8000
8000
8000
8000
8000
ENDCHAR
STARTCHAR uni2F19
ENCODING 12057
BBX 6 14 5 -1
BITMAP
FC
84
84
84
84
84
84
84
84
84
84
BC
80
80
ENDCHAR
STARTCHAR uni2F1A
ENCODING 12058
BBX 15 14 1 -1
BITMAP
3FFE
2000
2000
2000
2000
2000
2000
2000
2000
6000
4000
4000
C000
8000
ENDCHAR
STARTCHAR uni2F1B
ENCODING 12059
BBX 12 10 2 2
BITMAP
0800
0800
1000
1000
2000
2080
4040
4020
BFE0
4010
ENDCHAR
STARTCHAR uni2F1C
ENCODING 12060
BBX 14 14 1 -1
BITMAP
7FF0
2010
2010
1020
1020
1840
0840
0480
0700
0300
0580
0840
3030
C00C
ENDCHAR
STARTCHAR uni2F1D
ENCODING 12061
BBX 11 13 3 -1
BITMAP
FFE0
8020
8020
8020
8020
8020
8020
8020
8020
8020
8020
FFE0
8020
ENDCHAR
STARTCHAR uni2F1E
ENCODING 12062
BBX 12 14 2 -1
BITMAP
FFF0
8010
8010
8010
8010
8010
8010
8010
8010
8010
8010
8010
FFF0
8010
ENDCHAR
STARTCHAR uni2F1F
ENCODING 12063
BBX 14 14 1 -1
BITMAP
0100
0100
0100
0100
0100
7FF8
0100
0100
0100
0100
0100
0100
0100
FFFC
ENDCHAR
STARTCHAR uni2F20
ENCODING 12064
BBX 14 14 1 -1
BITMAP
0100
0100
0100
0100
0100
FFFC
0100
0100
0100
0100
0100
0100
0100
7FF8
ENDCHAR
STARTCHAR uni2F21
ENCODING 12065
BBX 14 9 1 4
BITMAP
0400
0800
1FF0
6820
C640
0380
0480
3860
C01C
ENDCHAR
STARTCHAR uni2F22
ENCODING 12066
BBX 14 15 1 -1
BITMAP
0400
0400
0800
2FE0
2820
1040
1840
2880
4480
0700
0300
0580
1840
2030
C00C
ENDCHAR
STARTCHAR uni2F23
ENCODING 12067
BBX 8 14 4 -1
BITMAP
10
10
3F
21
41
42
92
0A
04
04
08
10
60
C0
ENDCHAR
STARTCHAR uni2F24
ENCODING 12068
BBX 13 14 1 -1
BITMAP
0200
0200
0200
0200
FFF8
0300
0700
0500
0480
0880
1040
3020
6010
8008
ENDCHAR
STARTCHAR uni2F25
ENCODING 12069
BBX 14 14 1 -1
BITMAP
0200
0400
0400
0400
FFFC
0820
1040
1040
2080
1C80
0300
02C0
1C30
E008
ENDCHAR
STARTCHAR uni2F26
ENCODING 12070
BBX 14 13 1 -1
BITMAP
3FF0
0030
0040
0080
0100
0100
FFFC
0100
0100
0100
0100
0100
0F00
ENDCHAR
STARTCHAR uni2F27
ENCODING 12071
BBX 13 5 2 6
BITMAP
0400
0200
FFF8
8008
8008
ENDCHAR
STARTCHAR uni2F28
ENCODING 12072
BBX 14 15 1 -1
BITMAP
0020
0020
0020
FFFC
0020
0020
1020
0820
0420
0420
0220
0020
0020
0020
03E0
ENDCHAR
STARTCHAR uni2F29
ENCODING 12073
BBX 14 14 1 -1
BITMAP
0100
0100
0100
1120
1110
2110
2118
2108
4108
4104
8104
0100
0100
0F00
ENDCHAR
STARTCHAR uni2E90.dup3
ENCODING 12074
BBX 14 15 1 -1
BITMAP
0200
0200
0200
FFFC
0200
0280
0280
0480
0480
0480
0880
1884
3084
6084
80F8
ENDCHAR
STARTCHAR uni2F2B
ENCODING 12075
BBX 13 14 1 -1
BITMAP
3FF8
2008
2008
2008
2008
3FF8
2000
2000
2000
2000
6000
4000
4000
8000
ENDCHAR
STARTCHAR uni2F2C
ENCODING 12076
BBX 12 14 2 -1
BITMAP
0200
8210
8210
8210
8210
8210
8210
8210
FFF0
0200
0200
0200
0200
0200
ENDCHAR
STARTCHAR uni2F2D
ENCODING 12077
BBX 12 15 2 -1
BITMAP
0200
0200
8210
8210
8210
8210
8210
8210
8210
8210
8210
8210
8210
FFF0
0010
ENDCHAR
STARTCHAR uni2F2E
ENCODING 12078
BBX 14 14 1 -1
BITMAP
1084
210C
2108
2108
4210
4210
8420
8420
4210
4210
2108
2108
1084
1084
ENDCHAR
STARTCHAR uni2F2F
ENCODING 12079
BBX 14 13 1 -1
BITMAP
7FF8
0100
0100
0100
0100
0100
0100
0100
0100
0100
0100
0100
FFFC
ENDCHAR
STARTCHAR uni2F30
ENCODING 12080
BBX 14 14 1 -1
BITMAP
FFF8
0008
0008
0008
0008
7FF8
4000
4000
4000
4004
4004
4004
4004
7FF8
ENDCHAR
STARTCHAR uni2F31
ENCODING 12081
BBX 12 15 2 -1
BITMAP
0200
0200
0200
FFF0
8210
8210
8210
8210
8210
8210
8210
8210
8270
0200
0200
ENDCHAR
STARTCHAR uni2F32
ENCODING 12082
BBX 14 14 1 -1
BITMAP
7FF8
0100
0100
0100
0100
0100
FFFC
0100
0100
0100
0100
0100
0100
0100
ENDCHAR
STARTCHAR uni2F33
ENCODING 12083
BBX 13 14 2 -1
BITMAP
0400
0800
0800
1020
2040
2080
4380
FF00
0240
0460
0820
10F0
6790
F808
ENDCHAR
STARTCHAR uni2F34
ENCODING 12084
BBX 15 14 1 -1
BITMAP
0100
0080
3FFE
2000
2000
2000
2000
2000
2000
2000
6000
4000
4000
8000
ENDCHAR
STARTCHAR uni2F35
ENCODING 12085
BBX 14 14 1 -1
BITMAP
3F80
0080
0100
0200
0600
07C0
0040
10C0
3880
4980
0D00
0600
0900
F0FC
ENDCHAR
STARTCHAR uni2F36
ENCODING 12086
BBX 14 15 1 -1
BITMAP
0820
0820
0820
0820
0820
0820
FFFC
0820
0820
0820
0820
1020
1020
2020
4020
ENDCHAR
STARTCHAR uni2F37
ENCODING 12087
BBX 14 15 1 -1
BITMAP
0200
0240
0220
0210
0200
0200
FFFC
0200
0200
0200
0100
0104
0084
00C8
0030
ENDCHAR
STARTCHAR uni2F38
ENCODING 12088
BBX 14 14 1 -1
BITMAP
FFF8
0008
0008
0008
3FF8
2000
4000
4000
7FFC
0004
0004
0008
0008
01F0
ENDCHAR
STARTCHAR uni2F39
ENCODING 12089
BBX 14 14 1 -1
BITMAP
7FF0
0010
0010
0010
0010
0010
3FF0
0010
0010
0010
0010
0010
0010
FFFC
ENDCHAR
STARTCHAR uni2F3A
ENCODING 12090
BBX 7 15 5 -1
BITMAP
04
08
10
60
80
02
04
08
30
42
04
0C
10
60
C0
ENDCHAR
STARTCHAR uni2F3B
ENCODING 12091
BBX 12 14 2 -1
BITMAP
0080
0300
0C10
3060
C0C0
0300
0E00
3200
C200
0200
0200
0200
0200
0200
ENDCHAR
STARTCHAR uni2F3C
ENCODING 12092
BBX 14 14 1 -1
BITMAP
0400
0200
0100
0100
0880
2810
2810
4808
4808
4828
8824
8824
0820
0FC0
ENDCHAR
STARTCHAR uni2F3D
ENCODING 12093
BBX 14 14 1 -1
BITMAP
0260
0218
0200
02FC
FF00
0210
0220
0240
0180
0100
0684
18C4
6068
0038
ENDCHAR
STARTCHAR uni2F3E
ENCODING 12094
BBX 13 14 1 -1
BITMAP
0078
3F80
2000
2000
3FF8
2008
2008
2008
3FF8
2000
2000
4000
4000
8000
ENDCHAR
STARTCHAR uni2F3F
ENCODING 12095
BBX 14 14 1 -1
BITMAP
0078
7F80
0100
0100
7FF8
0100
0100
0100
FFFC
0100
0100
0100
0100
0F00
ENDCHAR
STARTCHAR uni2F40
ENCODING 12096
BBX 15 15 0 -1
BITMAP
0100
0100
FFFE
0100
0100
0100
3FF8
1008
0810
0820
0440
0380
0380
1C70
E00E
ENDCHAR
STARTCHAR uni2F41
ENCODING 12097
BBX 14 14 1 -1
BITMAP
0200
0200
03FC
0200
0200
7FF0
2010
1020
1840
0C80
0700
0780
1860
E01C
ENDCHAR
STARTCHAR uni2F42
ENCODING 12098
BBX 14 14 1 -1
BITMAP
0400
0200
0100
FFFC
1020
0840
0840
0480
0280
0300
0300
0CC0
3030
C00C
ENDCHAR
STARTCHAR uni2F43
ENCODING 12099
BBX 14 15 1 -1
BITMAP
0020
1820
0420
0320
00A0
2020
1820
0420
0220
003C
0FE0
F020
0020
0020
0020
ENDCHAR
STARTCHAR uni2F44
ENCODING 12100
BBX 15 15 1 -1
BITMAP
0038
3FC0
2000
2000
2000
2000
3FFE
2040
2040
2040
2040
6040
4040
4040
8040
ENDCHAR
STARTCHAR uni2F45
ENCODING 12101
BBX 14 15 1 -1
BITMAP
0400
0200
0100
FFFC
0800
0800
0800
0FF0
0810
0810
1010
1010
2010
4020
81E0
ENDCHAR
STARTCHAR uni2F46
ENCODING 12102
BBX 14 14 1 -1
BITMAP
7FF8
0200
0200
0200
0200
FFFC
0300
0300
0700
0500
0904
1104
2104
C1F8
ENDCHAR
STARTCHAR uni2F47
ENCODING 12103
BBX 10 14 3 -1
BITMAP
FFC0
8040
8040
8040
8040
8040
FFC0
8040
8040
8040
8040
8040
FFC0
8040
ENDCHAR
STARTCHAR uni2F48
ENCODING 12104
BBX 12 14 2 -1
BITMAP
FFF0
8010
8010
8010
8010
8010
FF90
8010
8010
8010
8010
8010
FFF0
8010
ENDCHAR
STARTCHAR uni2F49
ENCODING 12105
BBX 13 14 1 -1
BITMAP
3FF8
2008
2008
2008
3FF8
2008
2008
2008
3FF8
2008
2008
4008
4008
8078
ENDCHAR
STARTCHAR uni2F4A
ENCODING 12106
BBX 14 15 1 -1
BITMAP
0100
0100
0100
FFFC
0380
0580
0580
0940
0940
1120
2110
4108
8104
0100
0100
ENDCHAR
STARTCHAR uni2F4B
ENCODING 12107
BBX 14 15 1 -1
BITMAP
0400
0800
0FF8
1808
1108
2110
4110
0120
0300
0280
0680
0440
1820
3018
C004
ENDCHAR
STARTCHAR uni2F4C
ENCODING 12108
BBX 13 14 2 -1
BITMAP
0100
0100
0100
2100
2100
21F0
2100
2100
2100
2100
2100
2100
2100
FFF8
ENDCHAR
STARTCHAR uni2F4D
ENCODING 12109
BBX 14 14 1 -1
BITMAP
FFFC
0200
0400
0800
0FF0
1010
6020
8820
0440
0280
0100
0600
1800
E000
ENDCHAR
STARTCHAR uni2F4E
ENCODING 12110
BBX 14 14 0 -1
BITMAP
0FE0
0820
0820
3020
603C
0000
3FF8
1018
0830
0440
0380
0780
1860
E01C
ENDCHAR
STARTCHAR uni2F4F
ENCODING 12111
BBX 14 14 1 -1
BITMAP
3FF0
2110
2110
2210
2210
FFFC
2210
2210
4210
4210
4210
7FFC
0010
00E0
ENDCHAR
STARTCHAR uni2F50
ENCODING 12112
BBX 13 14 2 -1
BITMAP
8100
8100
8100
8108
8130
FD60
8180
8100
8100
8108
8108
8508
B908
C1F0
ENDCHAR
STARTCHAR uni2F51
ENCODING 12113
BBX 14 14 1 -1
BITMAP
0030
00C0
0F00
7200
0238
0FC0
7200
021C
07E0
FA00
0204
0204
0204
03F8
ENDCHAR
STARTCHAR uni2F52
ENCODING 12114
BBX 13 14 2 -1
BITMAP
00E0
FF00
8200
8200
8200
8200
FFF0
8200
8200
8200
8108
8508
B890
C060
ENDCHAR
STARTCHAR uni2F53
ENCODING 12115
BBX 14 15 1 -1
BITMAP
1000
3000
3FF8
6000
4000
9FF0
0000
7FE0
0020
0020
0020
0024
0024
001C
0018
ENDCHAR
STARTCHAR uni2F54
ENCODING 12116
BBX 13 15 2 -1
BITMAP
0200
0200
0210
0220
7A20
0A40
0B80
0B00
1280
1280
2240
2220
4210
8208
0E00
ENDCHAR
STARTCHAR uni2F55
ENCODING 12117
BBX 14 14 1 -1
BITMAP
0200
0200
1208
1210
2210
2220
4340
0700
0500
0C80
0840
1020
6018
8004
ENDCHAR
STARTCHAR uni2F56
ENCODING 12118
BBX 14 14 1 -1
BITMAP
0038
3FD0
2210
2210
2210
2210
2210
2210
2208
2208
4208
4208
4204
8204
ENDCHAR
STARTCHAR uni2F57
ENCODING 12119
BBX 14 14 1 -1
BITMAP
0500
0880
1040
3020
7030
8848
0840
0480
0580
0300
0780
0840
3030
C00C
ENDCHAR
STARTCHAR uni2F58
ENCODING 12120
BBX 13 15 2 -1
BITMAP
0020
60C0
1980
0600
0D80
3060
C010
1040
0880
0880
0500
0200
0D80
1860
E018
ENDCHAR
STARTCHAR uni2F59
ENCODING 12121
BBX 12 14 1 -1
BITMAP
1010
1010
1010
1010
1FF0
0010
0010
7FF0
0810
0810
0810
1010
2010
C010
ENDCHAR
STARTCHAR uni2F5A
ENCODING 12122
BBX 14 14 1 -1
BITMAP
1040
1040
1040
1040
1FFC
1000
1000
2000
1FE0
2020
2020
4020
4020
8020
ENDCHAR
STARTCHAR uni2F5B
ENCODING 12123
BBX 14 14 1 -1
BITMAP
7FF8
0040
2040
2040
4040
7FFC
00C0
0140
0240
0440
0840
3040
C040
03C0
ENDCHAR
STARTCHAR uni2F5C
ENCODING 12124
BBX 14 14 1 -1
BITMAP
0100
1100
2100
3FF8
4100
4100
8100
0100
FFFC
0100
0100
0100
0100
0100
ENDCHAR
STARTCHAR uni2F5D
ENCODING 12125
BBX 13 15 1 -1
BITMAP
0200
0280
0260
0210
0200
FFF8
0200
0600
0500
0900
0880
1040
3020
6010
8008
ENDCHAR
STARTCHAR uni2F5E
ENCODING 12126
BBX 13 15 2 -1
BITMAP
0400
0200
FFF8
0200
0440
0880
1180
2700
7A00
0640
0420
0820
1010
23F8
7C08
ENDCHAR
STARTCHAR uni2F5F
ENCODING 12127
BBX 14 14 1 -1
BITMAP
7FF8
0200
0200
0200
0200
0200
7FF8
0200
0220
0210
0210
0208
0200
FFFC
ENDCHAR
STARTCHAR uni2F60
ENCODING 12128
BBX 14 14 1 -1
BITMAP
0018
3FE0
2220
2220
2220
2220
2220
2220
2210
2290
4290
4288
4348
8044
ENDCHAR
STARTCHAR uni2F61
ENCODING 12129
BBX 14 14 1 -1
BITMAP
FFFC
0800
0800
0800
0FE0
1020
1820
1420
1220
1140
2044
2044
2F44
F078
ENDCHAR
STARTCHAR uni2F62
ENCODING 12130
BBX 13 15 2 -1
BITMAP
2020
2020
FFF8
2020
2020
2020
2020
3FE0
2020
2020
2020
2020
2020
3FE0
2020
ENDCHAR
STARTCHAR uni2F63
ENCODING 12131
BBX 14 14 1 -1
BITMAP
0100
1100
2100
3FFC
4100
8100
0100
3FF8
0100
0100
0100
0100
0100
FFFC
ENDCHAR
STARTCHAR uni2F64
ENCODING 12132
BBX 13 14 1 -1
BITMAP
3FF8
2108
2108
2108
3FF8
2108
2108
2108
3FF8
2108
2108
4108
4108
8138
ENDCHAR
STARTCHAR uni2F65
ENCODING 12133
BBX 12 14 2 -1
BITMAP
FFF0
8410
8410
8410
8410
8410
FFF0
8410
8410
8410
8410
8410
FFF0
8010
ENDCHAR
STARTCHAR uni2F66
ENCODING 12134
BBX 15 14 1 -1
BITMAP
FFFC
0104
0104
1104
1108
1100
11F8
1100
1100
3100
2900
4D00
4700
81FE
ENDCHAR
STARTCHAR uni2F67
ENCODING 12135
BBX 15 15 1 -1
BITMAP
0100
0080
3FFE
A000
6000
6000
2000
6000
A000
A000
2000
6000
4000
C000
8000
ENDCHAR
STARTCHAR uni2F68
ENCODING 12136
BBX 14 7 1 6
BITMAP
0020
3F60
06C8
6CF0
1860
3010
C00C
ENDCHAR
STARTCHAR uni2F69
ENCODING 12137
BBX 12 15 2 -1
BITMAP
0400
0800
1000
FFF0
8010
8010
8010
8010
FFF0
8010
8010
8010
8010
FFF0
8010
ENDCHAR
STARTCHAR uni2F6A
ENCODING 12138
BBX 15 14 1 -1
BITMAP
0100
0100
3FFC
2104
2104
2100
3FF8
2808
2410
2410
4360
4080
4770
B80E
ENDCHAR
STARTCHAR uni2F6B
ENCODING 12139
BBX 14 14 1 -1
BITMAP
7FF8
4488
4488
4488
4488
4488
4488
4488
4488
4488
4488
4488
4488
FFFC
ENDCHAR
STARTCHAR uni2F6C
ENCODING 12140
BBX 10 14 3 -1
BITMAP
FFC0
8040
8040
8040
FFC0
8040
8040
8040
FFC0
8040
8040
8040
FFC0
8040
ENDCHAR
STARTCHAR uni2F6D
ENCODING 12141
BBX 14 14 1 -1
BITMAP
3FF8
0018
0620
03C0
00C0
FFFC
0284
0488
0C90
18A0
2080
C080
0080
0780
ENDCHAR
STARTCHAR uni2F6E
ENCODING 12142
BBX 14 15 1 -1
BITMAP
1000
2000
3FF8
4200
4200
8200
0200
FFFC
0500
0500
0880
1840
1020
6018
800C
ENDCHAR
STARTCHAR uni2F6F
ENCODING 12143
BBX 14 14 1 -1
BITMAP
FFFC
0200
0200
0400
0400
0800
1FF8
3808
6808
8808
0808
0808
0FF8
0808
ENDCHAR
STARTCHAR uni2F70
ENCODING 12144
BBX 14 14 1 -1
BITMAP
3FF0
0000
0000
0000
FFFC
0100
0100
0940
1120
2110
4108
8104
0100
0100
ENDCHAR
STARTCHAR uni2F71
ENCODING 12145
BBX 12 14 2 -1
BITMAP
0200
0200
0200
FFF0
8210
8210
8290
8290
83D0
8650
B810
8010
8010
80F0
ENDCHAR
STARTCHAR uni2F72
ENCODING 12146
BBX 14 15 1 -1
BITMAP
0018
01E0
7F00
0100
0100
0100
FFFC
0380
0580
0540
0920
1110
6108
8104
0100
ENDCHAR
STARTCHAR uni2F73
ENCODING 12147
BBX 14 14 1 -1
BITMAP
0600
0100
0000
7FF8
4008
4488
0480
0480
0840
0840
1020
3020
6018
800C
ENDCHAR
STARTCHAR uni2F74
ENCODING 12148
BBX 14 13 1 0
BITMAP
0400
0200
0100
7FF8
0000
1020
1020
1040
0840
0840
0840
0080
FFFC
ENDCHAR
STARTCHAR uni2F75
ENCODING 12149
BBX 14 14 1 -1
BITMAP
0820
1040
1040
3EFC
2890
4910
8A10
0810
0810
0810
0810
0810
0810
08F0
ENDCHAR
STARTCHAR uni2F76
ENCODING 12150
BBX 14 14 1 -1
BITMAP
0100
4110
2110
2120
1120
0100
FFFC
0300
0580
0940
1120
6118
8104
0100
ENDCHAR
STARTCHAR uni2F77
ENCODING 12151
BBX 14 15 1 -1
BITMAP
0100
0200
0410
1860
3F80
0320
0410
3818
7FE8
0104
0960
1130
6108
8104
0700
ENDCHAR
STARTCHAR uni2F78
ENCODING 12152
BBX 15 15 1 -1
BITMAP
0400
0800
1FFC
2100
4100
8100
0100
FFFE
0100
2108
2108
2108
2108
3FF8
0008
ENDCHAR
STARTCHAR uni2F79
ENCODING 12153
BBX 12 14 2 -1
BITMAP
FFF0
8010
8450
C650
AA90
9990
9890
9890
9950
9550
A530
A210
C210
8070
ENDCHAR
STARTCHAR uni2F7A
ENCODING 12154
BBX 14 14 1 -1
BITMAP
1020
08C0
0000
FFFC
0200
0200
7FF8
0200
0200
0200
FFFC
0200
0200
0200
ENDCHAR
STARTCHAR uni2F7B
ENCODING 12155
BBX 13 14 2 -1
BITMAP
7DF8
0408
4508
2488
3448
1428
0408
1418
2428
44C8
8508
0408
0408
3C78
ENDCHAR
STARTCHAR uni2F7C
ENCODING 12156
BBX 14 14 1 -1
BITMAP
0200
0208
7FF0
0220
0240
FFFC
0100
0600
3830
C9C0
0E08
0808
0808
0FF0
ENDCHAR
STARTCHAR uni2F7D
ENCODING 12157
BBX 14 14 1 -1
BITMAP
FFFC
0200
0200
0200
7FF8
4488
4488
4488
4488
4488
4488
4488
4488
44B8
ENDCHAR
STARTCHAR uni2F7E
ENCODING 12158
BBX 14 15 1 -1
BITMAP
0100
0100
0178
7F80
0100
7FF8
0100
0100
FFFC
0380
0540
1920
2118
C104
0100
ENDCHAR
STARTCHAR uni2F7F
ENCODING 12159
BBX 13 14 2 -1
BITMAP
FFF8
2020
2020
3FE0
2020
2020
2020
3FE0
2020
2020
FFF8
0020
0020
0020
ENDCHAR
STARTCHAR uni2F80
ENCODING 12160
BBX 14 15 1 -1
BITMAP
0200
7FF0
0210
0210
FFFC
0210
0210
7FF0
0200
7FF8
0200
0200
FFFC
0200
0200
ENDCHAR
STARTCHAR uni2F81
ENCODING 12161
BBX 13 15 2 -1
BITMAP
0200
0200
FFF8
8408
8708
8888
9048
A228
8608
8708
8888
9048
A028
8008
8078
ENDCHAR
STARTCHAR uni2F82
ENCODING 12162
BBX 13 14 2 -1
BITMAP
FFF8
8200
8200
8200
FFF0
8010
8010
8010
8010
FFF0
8200
8200
8200
FFF8
ENDCHAR
STARTCHAR uni2F83
ENCODING 12163
BBX 11 15 3 -1
BITMAP
0400
0800
FFE0
8020
8020
FFE0
8020
8020
8020
FFE0
8020
8020
8020
FFE0
8020
ENDCHAR
STARTCHAR uni2F84
ENCODING 12164
BBX 14 14 1 -1
BITMAP
FFFC
0200
0440
0820
10F0
3F08
0100
0100
0100
7FF8
0100
0100
0100
FFFC
ENDCHAR
STARTCHAR uni2F85
ENCODING 12165
BBX 12 15 2 -1
BITMAP
0400
1800
71F0
C010
8010
8010
8010
F9F0
8010
8010
8010
8010
8010
FFF0
8010
ENDCHAR
STARTCHAR uni2F86
ENCODING 12166
BBX 14 14 1 -1
BITMAP
0038
7FC0
0100
0100
FFFC
0100
0100
0100
3FF0
2010
2010
2010
3FF0
2010
ENDCHAR
STARTCHAR uni2F87
ENCODING 12167
BBX 14 14 1 -1
BITMAP
2010
2010
3E10
23FC
4210
4290
E510
9510
0D10
09FC
1810
3010
6010
8010
ENDCHAR
STARTCHAR uni2F88
ENCODING 12168
BBX 14 15 1 -1
BITMAP
0200
0200
3FF0
2010
2210
2110
2010
FFFC
2010
2410
2210
4110
4010
4010
81F0
ENDCHAR
STARTCHAR uni2F89
ENCODING 12169
BBX 13 14 2 -1
BITMAP
FFE0
8020
8020
FFE0
8020
8020
FFE0
8800
8430
82C0
8100
8880
B060
C018
ENDCHAR
STARTCHAR uni2F8A
ENCODING 12170
BBX 14 15 1 -1
BITMAP
0400
0FE0
3040
6180
BFF8
2108
2108
2108
2108
3FF8
2000
2004
2004
2004
3FF8
ENDCHAR
STARTCHAR uni2F8B
ENCODING 12171
BBX 13 14 2 -1
BITMAP
2040
2040
A548
A548
A548
A548
A548
A548
FDF8
2040
2040
2040
4040
8040
ENDCHAR
STARTCHAR uni2F8C
ENCODING 12172
BBX 14 14 1 -1
BITMAP
0200
03F8
0200
0200
7FFC
4268
5FC0
5208
4208
43F0
4000
4000
8000
8000
ENDCHAR
STARTCHAR uni2F8D
ENCODING 12173
BBX 14 15 1 -1
BITMAP
0200
0200
0200
7FF8
4208
4208
4208
4208
7FF8
0200
0220
0210
0238
0FC8
F004
ENDCHAR
STARTCHAR uni2F8E
ENCODING 12174
BBX 14 14 1 -1
BITMAP
0200
0C00
3FF8
2448
2448
2448
2448
2448
2448
2448
2448
2448
2448
FFFC
ENDCHAR
STARTCHAR uni2F8F
ENCODING 12175
BBX 14 14 1 -1
BITMAP
0800
11F8
6000
8000
0400
0BFC
1010
7010
9010
1010
1010
1010
1010
10F0
ENDCHAR
STARTCHAR uni2F90
ENCODING 12176
BBX 14 14 1 -1
BITMAP
0600
0100
0000
FFFC
0500
0508
0910
18A0
68C0
C880
0840
08A0
0B18
1C04
ENDCHAR
STARTCHAR uni2F91
ENCODING 12177
BBX 14 14 1 -1
BITMAP
FFFC
0480
0480
0480
7FF8
4488
4488
4488
4488
4788
4008
4008
4008
4008
ENDCHAR
STARTCHAR uni2F92
ENCODING 12178
BBX 14 14 1 -1
BITMAP
3FF0
2010
2010
3FF0
2010
3FF0
2010
2010
3FF0
0480
0484
0884
3084
C0F8
ENDCHAR
STARTCHAR uni2F93
ENCODING 12179
BBX 13 14 1 -1
BITMAP
0400
0FE0
1040
6080
BFF8
2108
2108
3FF8
2108
2108
3FF8
6008
4008
8078
ENDCHAR
STARTCHAR uni2F94
ENCODING 12180
BBX 14 15 1 -1
BITMAP
0200
0100
FFFC
0000
7FF8
0000
0000
7FF8
0000
0000
7FF8
4008
4008
7FF8
4008
ENDCHAR
STARTCHAR uni2F95
ENCODING 12181
BBX 14 14 1 -1
BITMAP
0480
0860
3010
6108
0780
08C0
3030
C00C
1FF0
1010
1010
1010
1FF0
1010
ENDCHAR
STARTCHAR uni2F96
ENCODING 12182
BBX 14 13 1 0
BITMAP
FFFC
0000
0000
3FF0
2010
2010
2010
3FF0
1020
0840
0840
0480
FFFC
ENDCHAR
STARTCHAR uni2F97
ENCODING 12183
BBX 14 14 1 -1
BITMAP
FFFC
0300
0600
3E10
E120
0760
09C0
73C0
82A0
0CB0
1898
308C
C100
0F00
ENDCHAR
STARTCHAR uni2F98
ENCODING 12184
BBX 12 14 2 -1
BITMAP
00C0
0700
FA10
1960
0480
0700
3C80
C180
0E40
F0C0
0340
1C40
E040
0780
ENDCHAR
STARTCHAR uni2F99
ENCODING 12185
BBX 15 14 1 -1
BITMAP
3FF8
2008
2008
3FF8
2008
2008
3FF8
2008
2008
3FF8
0400
1860
2018
C006
ENDCHAR
STARTCHAR uni2F9A
ENCODING 12186
BBX 14 15 1 -1
BITMAP
0100
0100
7FF8
0100
0100
FFFC
0480
2490
2490
4488
4888
8884
1084
3080
4380
ENDCHAR
STARTCHAR uni2F9B
ENCODING 12187
BBX 14 14 1 -1
BITMAP
0100
0100
7FF8
0100
0100
FFFC
0100
1100
1100
11F8
3100
3100
4D00
83FC
ENDCHAR
STARTCHAR uni2F9C
ENCODING 12188
BBX 14 14 1 -1
BITMAP
3FF0
2010
2010
2010
2010
3FF0
0100
1100
1100
11F8
2100
3100
4D00
83FC
ENDCHAR
STARTCHAR uni2F9D
ENCODING 12189
BBX 14 15 1 -1
BITMAP
0400
0800
3FF0
2010
3FF0
2010
2010
3FF4
2018
23F0
FC50
0190
0610
3810
C0F0
ENDCHAR
STARTCHAR uni2F9E
ENCODING 12190
BBX 13 15 2 -1
BITMAP
0200
0200
FFF8
0200
7FF0
4210
4210
7FF0
4210
4210
7FF0
0200
FFF8
0200
0200
ENDCHAR
STARTCHAR uni2F9F
ENCODING 12191
BBX 14 14 1 -1
BITMAP
0200
0100
7FF8
1020
1040
0840
0080
FFFC
0100
0100
7FF8
0100
0100
0100
ENDCHAR
STARTCHAR uni2FA0
ENCODING 12192
BBX 14 14 1 -1
BITMAP
3FF8
2000
2000
2FF0
2000
2000
3FFC
2900
2888
28B0
4840
4860
4990
8E0C
ENDCHAR
STARTCHAR uni2FA1
ENCODING 12193
BBX 15 14 1 -1
BITMAP
0030
03C0
7C18
01E0
7E0C
0030
07C0
7900
1100
11FC
2100
3100
4900
87FE
ENDCHAR
STARTCHAR uni2FA2
ENCODING 12194
BBX 13 14 2 -1
BITMAP
7FE0
4020
4020
7FE0
0000
FFF0
8210
8210
8210
FFF0
8000
8008
8008
FFF0
ENDCHAR
STARTCHAR uni2FA3
ENCODING 12195
BBX 14 14 1 -1
BITMAP
FFFC
0480
0480
7FF8
4488
4888
4888
70E8
4008
7FF8
4008
4008
7FF8
4008
ENDCHAR
STARTCHAR uni2FA4
ENCODING 12196
BBX 14 15 1 -1
BITMAP
00F0
7F00
2210
1220
1220
0A40
0200
FFFC
0700
0A80
0A40
1220
6218
8204
0200
ENDCHAR
STARTCHAR uni2FA5
ENCODING 12197
BBX 14 14 1 -1
BITMAP
7FF8
4208
4208
7FF8
4208
4208
4208
7FF8
0200
0200
7FF8
0200
0200
FFFC
ENDCHAR
STARTCHAR uni2FA6
ENCODING 12198
BBX 14 14 1 -1
BITMAP
0200
0500
0880
1060
7FF8
8204
0200
7FF8
0200
2210
1220
0A40
0200
7FF8
ENDCHAR
STARTCHAR uni2ED1.dup4
ENCODING 12199
BBX 13 14 2 -1
BITMAP
3FF0
2000
3FE0
2000
3FE0
2000
2000
FFF8
2000
2410
2260
2180
2CC0
3038
ENDCHAR
STARTCHAR uni2FA8
ENCODING 12200
BBX 13 14 2 -1
BITMAP
FDF8
8508
8508
FDF8
8508
8508
FDF8
8008
8008
8008
8008
8008
8008
8078
ENDCHAR
STARTCHAR uni2FA9
ENCODING 12201
BBX 13 15 2 -1
BITMAP
0600
7FF0
4010
4010
7FF0
4000
7FF0
4010
4010
7FF0
0200
FFF8
0200
0200
0200
ENDCHAR
STARTCHAR uni2FAA
ENCODING 12202
BBX 14 14 1 -1
BITMAP
0100
0100
3FF8
0108
FFFC
0108
3FF8
4108
3190
0960
0720
3D10
C10C
0F00
ENDCHAR
STARTCHAR uni2FAB
ENCODING 12203
BBX 14 15 1 -1
BITMAP
1200
1100
2100
3FFC
6100
6100
BFF8
A100
2100
3FF8
2100
2100
2100
3FFC
2000
ENDCHAR
STARTCHAR uni2FAC
ENCODING 12204
BBX 14 14 1 -1
BITMAP
FFFC
0100
0100
7FF8
4108
5188
4948
4528
4108
5188
4948
4528
4108
4138
ENDCHAR
STARTCHAR uni2FAD
ENCODING 12205
BBX 14 14 1 -1
BITMAP
0100
7FF8
0100
7FF8
0100
FFFC
0000
3FF0
2110
2110
3FF0
2010
2010
20F0
ENDCHAR
STARTCHAR uni2FAE
ENCODING 12206
BBX 14 14 1 -1
BITMAP
0480
0480
FCFC
0480
0480
0480
FCF8
0480
0480
0480
FCFC
0480
0480
0480
ENDCHAR
STARTCHAR uni2FAF
ENCODING 12207
BBX 14 14 1 -1
BITMAP
FFFC
0100
0200
7FF8
4848
4848
4FC8
4848
4848
4FC8
4848
4848
7FF8
4008
ENDCHAR
STARTCHAR uni2FB0
ENCODING 12208
BBX 14 14 1 -1
BITMAP
0840
FFFC
0840
0FC0
0200
3FF0
2210
2210
3FF0
0200
0200
FFFC
0200
0200
ENDCHAR
STARTCHAR uni2FB1
ENCODING 12209
BBX 14 14 1 -1
BITMAP
0100
3FF0
0410
FFFC
0000
3FF0
2010
2010
3FF0
7FF8
2100
6100
7FFC
0100
ENDCHAR
STARTCHAR uni2FB2
ENCODING 12210
BBX 14 15 1 -1
BITMAP
0480
0480
0480
7CF8
0480
0480
7CF8
0480
0480
0480
7CF8
0480
0480
0480
FFFC
ENDCHAR
STARTCHAR uni2FB3
ENCODING 12211
BBX 14 15 1 -1
BITMAP
0200
0100
7FF8
1020
0840
FFFC
0000
0000
3FF0
2010
3FF0
2010
2010
3FF0
2010
ENDCHAR
STARTCHAR uni2FB4
ENCODING 12212
BBX 14 14 1 -1
BITMAP
FFFC
0200
0200
3FF0
2010
3FF0
2010
3FF0
2010
2010
3FF0
0C00
30E0
C01C
ENDCHAR
STARTCHAR uni2FB5
ENCODING 12213
BBX 14 14 1 -1
BITMAP
3FF0
2010
27D0
2910
2110
2FD0
2950
2950
2950
4FD0
4154
4154
C1D4
BE28
ENDCHAR
STARTCHAR uni2FB6
ENCODING 12214
BBX 14 14 1 -1
BITMAP
7FC8
0048
0A78
324C
D240
1224
FFD8
1244
1278
1258
2244
2260
4224
8218
ENDCHAR
STARTCHAR uni2EDD.dup5
ENCODING 12215
BBX 14 14 1 -1
BITMAP
0100
0700
1EE0
E31C
3FF0
2010
2010
3FF0
2010
3FF8
2310
20E0
2618
3804
ENDCHAR
STARTCHAR uni2FB8
ENCODING 12216
BBX 14 14 1 -1
BITMAP
1020
0840
0000
FFFC
0200
3FF0
2010
3FF0
2010
3FF0
2010
2010
3FF0
2010
ENDCHAR
STARTCHAR uni2FB9
ENCODING 12217
BBX 14 14 1 -1
BITMAP
0070
7F80
0100
FFFC
0780
0D40
3130
FFFC
2010
2010
3FF0
2010
3FF0
2010
ENDCHAR
STARTCHAR uni2FBA
ENCODING 12218
BBX 14 14 1 -1
BITMAP
3FFC
2100
3FF8
2100
3FF8
2100
2100
3FFC
0004
2944
2524
44A4
4488
8078
ENDCHAR
STARTCHAR uni2FBB
ENCODING 12219
BBX 14 14 1 -1
BITMAP
3FF0
2010
23F0
2210
FFFC
8004
BFF4
A014
2010
3FF0
2010
3FF0
2010
20F0
ENDCHAR
STARTCHAR uni2FBC
ENCODING 12220
BBX 14 15 1 -1
BITMAP
0200
0100
FFFC
0000
1FE0
1020
1FE0
0000
7FF8
4008
4FC8
4848
4FC8
4008
4038
ENDCHAR
STARTCHAR uni2FBD
ENCODING 12221
BBX 14 14 1 -1
BITMAP
7E08
4010
7C60
4180
4004
7C08
4010
4060
FF80
2004
2408
4210
BE60
C180
ENDCHAR
STARTCHAR uni2FBE
ENCODING 12222
BBX 12 14 2 -1
BITMAP
FFD0
9090
9090
B9D0
9090
FFD0
8010
8010
8010
8010
8010
8010
8010
80F0
ENDCHAR
STARTCHAR uni2FBF
ENCODING 12223
BBX 13 14 2 -1
BITMAP
8490
A310
FAD0
9630
9D90
B450
8210
FFF0
0000
8020
87C0
F808
8008
FFF0
ENDCHAR
STARTCHAR uni2FC0
ENCODING 12224
BBX 14 14 1 -1
BITMAP
FFFC
0000
3FF0
2010
2010
3FF0
0000
7FF8
4848
4488
5FE8
4208
4208
4278
ENDCHAR
STARTCHAR uni2FC1
ENCODING 12225
BBX 15 15 0 -1
BITMAP
0200
0200
3FF8
2108
3FF8
2108
2108
3FF8
0500
0520
0948
0958
116A
2102
C1FC
ENDCHAR
STARTCHAR uni2FC2
ENCODING 12226
BBX 14 14 1 -1
BITMAP
0400
0FC0
1040
6080
FFF8
2108
3FF8
2108
2108
3FF8
0000
2490
4248
8244
ENDCHAR
STARTCHAR uni2FC3
ENCODING 12227
BBX 14 15 1 -1
BITMAP
0400
3FF0
2010
3FF0
2010
3FF0
2000
3FFC
2000
3FF8
0008
4A48
4928
8908
8870
ENDCHAR
STARTCHAR uni2FC4
ENCODING 12228
BBX 12 15 2 -1
BITMAP
0400
07F0
0400
FFF0
8810
A690
9110
CA10
B650
8D30
9C90
A650
8210
FFF0
8010
ENDCHAR
STARTCHAR uni2FC5
ENCODING 12229
BBX 14 14 1 -1
BITMAP
0200
0200
7FFC
4440
7FF8
4448
4448
7FF8
4840
4858
4F60
8844
8944
9E78
ENDCHAR
STARTCHAR uni2FC6
ENCODING 12230
BBX 14 14 1 -1
BITMAP
0100
FFFC
1110
2120
3130
4BC8
8D44
3230
C40C
1FE0
6C40
0380
0E40
F030
ENDCHAR
STARTCHAR uni2FC7
ENCODING 12231
BBX 15 15 1 -1
BITMAP
0180
7FFE
4000
4410
5F7E
4410
5554
5554
5554
5554
5554
9554
A5D4
A456
0410
ENDCHAR
STARTCHAR uni2FC8
ENCODING 12232
BBX 14 14 1 -1
BITMAP
0820
FFFC
0820
0FE0
0000
FFFC
0100
3FF8
2108
3FF8
2108
3FF8
0CE0
F01C
ENDCHAR
STARTCHAR uni2FC9
ENCODING 12233
BBX 14 15 1 -1
BITMAP
0038
7FE0
0100
FFFC
0580
1970
E30C
06C0
3930
C92C
0540
0100
1D70
6108
0700
ENDCHAR
STARTCHAR uni2FCA
ENCODING 12234
BBX 14 14 1 -1
BITMAP
7FF8
4108
5968
4108
7FF8
0100
0100
7FF8
0100
FFFC
0000
2488
4244
8244
ENDCHAR
STARTCHAR uni2FCB
ENCODING 12235
BBX 14 13 1 -1
BITMAP
3248
0A70
FFFC
1920
3118
FFFC
2108
2548
2548
2928
2928
3108
2138
ENDCHAR
STARTCHAR uni2FCC
ENCODING 12236
BBX 13 14 2 -1
BITMAP
FFF0
8910
8910
F9F0
0900
F9F0
8910
8910
F9F0
8910
F9F0
0808
0808
0FF0
ENDCHAR
STARTCHAR uni2FCD
ENCODING 12237
BBX 14 14 1 -1
BITMAP
0FE0
4828
4FE8
4828
4FE8
4828
4FE8
4008
7CF8
0480
FCFC
2488
4488
8488
ENDCHAR
STARTCHAR uni2FCE
ENCODING 12238
BBX 14 15 1 -1
BITMAP
1020
FE20
11FC
1020
7C20
01F8
7D08
4508
4490
7C90
4460
6860
2C50
3988
C204
ENDCHAR
STARTCHAR uni2FCF
ENCODING 12239
BBX 13 14 2 -1
BITMAP
0C00
F1F0
8010
FBF0
8010
FFF0
0000
B5A0
8C60
A620
9528
8CA8
9CE8
E710
ENDCHAR
STARTCHAR uni2FD0
ENCODING 12240
BBX 14 15 1 -1
BITMAP
0400
3FF0
2010
3FF0
2010
7FF8
4208
7FF8
4208
7FF8
0000
FFFC
0840
1040
E040
ENDCHAR
STARTCHAR uni2FD1
ENCODING 12241
BBX 14 15 1 -1
BITMAP
0100
FFFC
0480
FD18
2A60
2A50
4A68
5A44
A010
3FF0
2010
2010
7FF0
4010
8010
ENDCHAR
STARTCHAR uni2FD2
ENCODING 12242
BBX 14 14 1 -1
BITMAP
1100
11F8
1100
FFFC
0440
4CC8
7328
4008
7FF8
4448
4CC8
7328
4008
3FF8
ENDCHAR
STARTCHAR uni2FD3
ENCODING 12243
BBX 14 14 1 -1
BITMAP
1100
7FFC
4500
29F8
FC08
01F8
7D00
45F8
7D00
45F8
4500
7DF8
4504
4DF8
ENDCHAR
STARTCHAR uni2FD4
ENCODING 12244
BBX 14 15 1 -1
BITMAP
0800
1FC0
6180
FFF8
4508
7DF8
1500
FFF8
1558
7528
1558
FFF8
1400
7404
07FC
ENDCHAR
STARTCHAR uni2FD5
ENCODING 12245
BBX 15 14 1 -1
BITMAP
0100
0680
0860
77D8
C006
7BBC
4AA4
7BBC
7FFC
4444
4444
7FFC
4444
445C
ENDCHAR
STARTCHAR uni3000
ENCODING 12288
BBX 1 1 0 0
BITMAP
00
ENDCHAR
STARTCHAR uni3001
ENCODING 12289
BBX 3 3 6 5
BITMAP
80
40
20
ENDCHAR
STARTCHAR uni3002
ENCODING 12290
BBX 4 4 7 4
BITMAP
60
90
90
60
ENDCHAR
STARTCHAR uni3003
ENCODING 12291
BBX 5 6 5 3
BITMAP
28
78
50
50
F0
A0
ENDCHAR
STARTCHAR uni3004
ENCODING 12292
BBX 14 14 1 -1
BITMAP
0C00
1860
2050
4048
C248
83C4
8204
9A04
9604
9204
4808
6618
3260
0FC0
ENDCHAR
STARTCHAR uni3005
ENCODING 12293
BBX 9 9 3 2
BITMAP
0800
1000
1F80
2080
2100
5200
8C00
0200
0100
ENDCHAR
STARTCHAR uni3006
ENCODING 12294
BBX 10 9 3 2
BITMAP
0040
0080
1B00
2600
2E00
5200
6000
C000
8000
ENDCHAR
STARTCHAR uni3007
ENCODING 12295
BBX 12 12 2 0
BITMAP
0F00
30C0
4020
4020
8010
8010
8010
8010
4020
4020
30C0
0F00
ENDCHAR
STARTCHAR uni3008
ENCODING 12296
BBX 4 14 8 -1
BITMAP
10
20
20
40
40
80
80
80
80
40
40
20
20
10
ENDCHAR
STARTCHAR uni3009
ENCODING 12297
BBX 4 14 4 -1
BITMAP
80
40
40
20
20
10
10
10
10
20
20
40
40
80
ENDCHAR
STARTCHAR uni300A
ENCODING 12298
BBX 7 14 8 -1
BITMAP
0A
14
14
28
50
50
A0
A0
B0
50
58
28
2C
14
ENDCHAR
STARTCHAR uni300B
ENCODING 12299
BBX 6 14 2 -1
BITMAP
A0
A0
50
50
28
28
14
14
34
28
68
50
D0
A0
ENDCHAR
STARTCHAR uni300C
ENCODING 12300
BBX 5 7 8 6
BITMAP
F8
80
80
80
80
80
80
ENDCHAR
STARTCHAR uni300D
ENCODING 12301
BBX 5 7 3 -1
BITMAP
08
08
08
08
08
08
F8
ENDCHAR
STARTCHAR uni300E
ENCODING 12302
BBX 5 7 8 6
BITMAP
F8
88
B8
A0
A0
A0
E0
ENDCHAR
STARTCHAR uni300F
ENCODING 12303
BBX 5 7 3 -1
BITMAP
38
28
28
28
E8
88
F8
ENDCHAR
STARTCHAR uni3010
ENCODING 12304
BBX 5 14 8 -1
BITMAP
F8
F0
E0
E0
C0
C0
C0
C0
C0
C0
E0
E0
F0
F8
ENDCHAR
STARTCHAR uni3011
ENCODING 12305
BBX 5 14 3 -1
BITMAP
78
78
38
38
18
18
18
18
18
18
38
38
78
F8
ENDCHAR
STARTCHAR uni3012
ENCODING 12306
BBX 12 13 2 -1
BITMAP
FFF0
0000
0000
FFF0
0200
0200
0200
0200
0200
0200
0200
0200
0200
ENDCHAR
STARTCHAR uni3013
ENCODING 12307
BBX 12 10 2 1
BITMAP
FFF0
FFF0
FFF0
0000
0000
0000
0000
FFF0
FFF0
FFF0
ENDCHAR
STARTCHAR uni3014
ENCODING 12308
BBX 4 14 8 -1
BITMAP
10
60
C0
80
80
80
80
80
80
80
80
80
E0
30
ENDCHAR
STARTCHAR uni3015
ENCODING 12309
BBX 4 14 4 -1
BITMAP
80
60
30
10
10
10
10
10
10
10
10
10
70
C0
ENDCHAR
STARTCHAR uni3016
ENCODING 12310
BBX 5 14 9 -1
BITMAP
F8
90
90
A0
A0
A0
A0
A0
A0
A0
A0
90
90
F8
ENDCHAR
STARTCHAR uni3017
ENCODING 12311
BBX 5 14 3 -1
BITMAP
F8
48
48
28
28
28
28
28
28
28
28
48
48
F8
ENDCHAR
STARTCHAR uni3018
ENCODING 12312
BBX 3 15 9 -1
BITMAP
20
40
C0
C0
C0
C0
C0
C0
C0
C0
C0
C0
C0
40
20
ENDCHAR
STARTCHAR uni3019
ENCODING 12313
BBX 4 15 4 -1
BITMAP
80
40
60
70
50
50
50
50
50
50
50
50
70
60
80
ENDCHAR
STARTCHAR uni301A
ENCODING 12314
BBX 4 14 9 -1
BITMAP
F0
C0
C0
C0
C0
C0
C0
C0
C0
C0
C0
C0
C0
F0
ENDCHAR
STARTCHAR uni301B
ENCODING 12315
BBX 4 14 3 -1
BITMAP
F0
30
30
30
30
30
30
30
30
30
30
30
30
F0
ENDCHAR
STARTCHAR uni301C
ENCODING 12316
BBX 10 4 3 4
BITMAP
7000
C840
8680
0180
ENDCHAR
STARTCHAR uni301D
ENCODING 12317
BBX 5 3 9 10
BITMAP
A0
50
28
ENDCHAR
STARTCHAR uni301E
ENCODING 12318
BBX 4 4 2 9
BITMAP
50
50
A0
A0
ENDCHAR
STARTCHAR uni301F
ENCODING 12319
BBX 4 4 2 -1
BITMAP
50
50
A0
A0
ENDCHAR
STARTCHAR uni3020
ENCODING 12320
BBX 13 10 2 1
BITMAP
3FE0
0000
3FE0
72D0
AAA8
9A78
5050
4F90
2060
1FC0
ENDCHAR
STARTCHAR uni3021
ENCODING 12321
BBX 1 9 8 1
BITMAP
80
80
80
80
80
80
80
80
80
ENDCHAR
STARTCHAR uni3022
ENCODING 12322
BBX 4 9 6 1
BITMAP
10
90
90
90
90
90
90
90
10
ENDCHAR
STARTCHAR uni3023
ENCODING 12323
BBX 7 9 5 1
BITMAP
02
82
92
92
92
92
92
82
02
ENDCHAR
STARTCHAR uni3024
ENCODING 12324
BBX 8 9 3 2
BITMAP
41
22
12
0C
0C
1A
32
61
81
ENDCHAR
STARTCHAR uni3025
ENCODING 12325
BBX 6 10 5 1
BITMAP
48
90
90
A0
FC
44
44
48
48
30
ENDCHAR
STARTCHAR uni3026
ENCODING 12326
BBX 8 6 4 4
BITMAP
08
08
08
08
08
FF
ENDCHAR
STARTCHAR uni3027
ENCODING 12327
BBX 8 7 4 3
BITMAP
08
08
08
FF
00
00
7E
ENDCHAR
STARTCHAR uni3028
ENCODING 12328
BBX 8 9 4 2
BITMAP
08
08
08
FF
00
7E
00
00
7E
ENDCHAR
STARTCHAR uni3029
ENCODING 12329
BBX 9 10 4 2
BITMAP
1000
3000
3E00
6200
4200
A400
1800
1C00
2200
C180
ENDCHAR
STARTCHAR uni302A
ENCODING 12330
BBX 3 3 4 2
BITMAP
E0
A0
E0
ENDCHAR
STARTCHAR uni302B
ENCODING 12331
BBX 4 4 4 7
BITMAP
60
90
90
60
ENDCHAR
STARTCHAR uni302C
ENCODING 12332
BBX 4 4 9 7
BITMAP
60
90
90
60
ENDCHAR
STARTCHAR uni302D
ENCODING 12333
BBX 3 3 9 2
BITMAP
E0
A0
E0
ENDCHAR
STARTCHAR uni302E
ENCODING 12334
BBX 2 2 2 5
BITMAP
C0
C0
ENDCHAR
STARTCHAR uni302F
ENCODING 12335
BBX 2 5 2 4
BITMAP
C0
C0
00
C0
C0
ENDCHAR
STARTCHAR uni3030
ENCODING 12336
BBX 14 3 1 5
BITMAP
3870
CCC8
8304
ENDCHAR
STARTCHAR uni3031
ENCODING 12337
BBX 6 12 5 0
BITMAP
04
08
10
20
40
80
40
20
10
18
08
04
ENDCHAR
STARTCHAR uni3032
ENCODING 12338
BBX 9 12 3 0
BITMAP
0400
0900
1280
2100
4000
8000
4000
2000
3000
1800
0800
0400
ENDCHAR
STARTCHAR uni3033
ENCODING 12339
BBX 7 11 4 1
BITMAP
02
06
04
04
08
08
10
20
20
40
80
ENDCHAR
STARTCHAR uni3034
ENCODING 12340
BBX 10 11 3 1
BITMAP
0200
0600
0400
0C80
0940
1880
1000
2000
6000
4000
8000
ENDCHAR
STARTCHAR uni3035
ENCODING 12341
BBX 6 12 5 0
BITMAP
80
40
40
20
20
10
10
10
08
08
04
04
ENDCHAR
STARTCHAR uni3036
ENCODING 12342
BBX 14 14 1 -1
BITMAP
0FC0
1860
2010
5FE8
C00C
8004
9FE4
8104
8104
C10C
4108
2110
1860
0FC0
ENDCHAR
STARTCHAR uni3037
ENCODING 12343
BBX 12 12 2 0
BITMAP
4510
4510
28A0
28A0
2860
1040
1040
3060
28A0
4920
4510
8610
ENDCHAR
STARTCHAR uni3038
ENCODING 12344
BBX 12 12 2 0
BITMAP
0200
0200
0200
0200
FFF0
0200
0200
0200
0200
0200
0200
0200
ENDCHAR
STARTCHAR uni3039
ENCODING 12345
BBX 12 12 2 0
BITMAP
1080
1080
1080
1080
1080
FFF0
1080
1080
1080
1080
1080
1080
ENDCHAR
STARTCHAR uni303A
ENCODING 12346
BBX 13 12 1 0
BITMAP
1020
1220
1220
1220
1220
7FF8
1220
1220
3220
2220
6220
8020
ENDCHAR
STARTCHAR uni303B
ENCODING 12347
BBX 3 6 7 3
BITMAP
80
40
40
80
C0
20
ENDCHAR
STARTCHAR uni303C
ENCODING 12348
BBX 10 10 3 1
BITMAP
FFC0
80C0
8140
8240
8440
8840
9040
A040
C040
FFC0
ENDCHAR
STARTCHAR uni303D
ENCODING 12349
BBX 9 10 3 1
BITMAP
6000
6C00
9200
0200
0200
0200
0100
0100
0100
0080
ENDCHAR
STARTCHAR uni303E
ENCODING 12350
BBX 14 14 1 -1
BITMAP
FB7C
0000
8004
8004
0740
8484
8084
8FC4
8304
0FC0
8604
8004
0000
FB7C
ENDCHAR
STARTCHAR uni303F
ENCODING 12351
BBX 8 13 4 0
BITMAP
FF
C3
C3
A5
AD
99
91
99
A5
A5
C3
C3
FF
ENDCHAR
STARTCHAR uni3041
ENCODING 12353
BBX 10 10 3 0
BITMAP
2000
2600
F800
2400
3F80
64C0
E840
9840
9880
E300
ENDCHAR
STARTCHAR uni3042
ENCODING 12354
BBX 12 13 2 0
BITMAP
1000
1000
11C0
7E00
1100
1FC0
3260
5210
D210
8C10
8830
9860
6180
ENDCHAR
STARTCHAR uni3043
ENCODING 12355
BBX 10 8 3 0
BITMAP
8200
8100
8080
8080
8040
8840
D800
7000
ENDCHAR
STARTCHAR uni3044
ENCODING 12356
BBX 12 10 2 1
BITMAP
4080
8040
8040
8020
8020
8010
8810
8800
5000
6000
ENDCHAR
STARTCHAR uni3045
ENCODING 12357
BBX 7 10 5 0
BITMAP
60
1C
00
3C
C2
02
02
04
0C
30
ENDCHAR
STARTCHAR uni3046
ENCODING 12358
BBX 9 13 4 0
BITMAP
3000
0F00
0000
0000
3F00
C180
0080
0080
0080
0100
0100
0600
1800
ENDCHAR
STARTCHAR uni3047
ENCODING 12359
BBX 9 10 4 0
BITMAP
3000
0C00
0000
7E00
0400
0800
1C00
2400
4400
8780
ENDCHAR
STARTCHAR uni3048
ENCODING 12360
BBX 12 13 2 0
BITMAP
1800
0700
0000
0000
7F80
0100
0200
0400
0F00
1900
2100
4100
81F0
ENDCHAR
STARTCHAR uni3049
ENCODING 12361
BBX 10 10 4 0
BITMAP
2000
2A00
F180
2040
3E00
6180
A080
A080
A880
E700
ENDCHAR
STARTCHAR uni304A
ENCODING 12362
BBX 12 13 2 0
BITMAP
1000
1000
1040
1120
7E10
1000
17C0
1860
7010
D010
9210
9130
60E0
ENDCHAR
STARTCHAR uni304B
ENCODING 12363
BBX 13 13 1 0
BITMAP
0400
0400
0800
0840
FF20
1120
1110
2110
2108
2108
4100
5200
8E00
ENDCHAR
STARTCHAR uni304C
ENCODING 12364
BBX 14 13 1 0
BITMAP
0408
0424
0814
0848
FF20
1120
1110
2110
2108
2108
4100
5200
8E00
ENDCHAR
STARTCHAR uni304D
ENCODING 12365
BBX 11 14 3 -1
BITMAP
0800
0800
0780
FC00
0400
03E0
FD00
0100
1F80
20C0
4000
4000
6000
3F80
ENDCHAR
STARTCHAR uni304E
ENCODING 12366
BBX 12 14 3 -1
BITMAP
0840
08B0
07C0
FC20
0400
03E0
FD00
0100
1F80
20C0
4000
4000
6000
3F80
ENDCHAR
STARTCHAR uni304F
ENCODING 12367
BBX 8 13 4 0
BITMAP
02
04
08
10
20
40
80
40
20
18
0C
02
01
ENDCHAR
STARTCHAR uni3050
ENCODING 12368
BBX 11 12 4 0
BITMAP
0200
04C0
0920
1080
2040
C000
8000
6000
1000
0C00
0600
0100
ENDCHAR
STARTCHAR uni3051
ENCODING 12369
BBX 11 13 3 -1
BITMAP
0100
8100
8100
81E0
9F00
8100
8100
8100
8100
8100
8200
4200
0400
ENDCHAR
STARTCHAR uni3052
ENCODING 12370
BBX 12 14 3 -1
BITMAP
0020
8190
8140
8120
81F0
9F00
8100
8100
8100
8100
8100
4200
4200
0400
ENDCHAR
STARTCHAR uni3053
ENCODING 12371
BBX 10 11 3 0
BITMAP
7F80
0000
0000
0000
0000
0000
8000
8000
8000
8000
7FC0
ENDCHAR
STARTCHAR uni3054
ENCODING 12372
BBX 12 13 3 0
BITMAP
0060
00D0
7FA0
0000
0000
0000
0000
0000
8000
8000
8000
8000
7FC0
ENDCHAR
STARTCHAR uni3055
ENCODING 12373
BBX 10 12 3 0
BITMAP
0800
0800
04C0
FF00
0200
0100
3F80
C0C0
8000
8000
4000
3F00
ENDCHAR
STARTCHAR uni3056
ENCODING 12374
BBX 12 13 3 0
BITMAP
0860
0850
04C0
FF20
0200
0200
0100
7F00
C180
8000
8000
4000
3F00
ENDCHAR
STARTCHAR uni3057
ENCODING 12375
BBX 9 12 4 0
BITMAP
8000
8000
8000
8000
8000
8000
8000
8000
8080
8100
C600
7800
ENDCHAR
STARTCHAR uni3058
ENCODING 12376
BBX 10 12 4 0
BITMAP
8300
8880
8600
8000
8000
8000
8000
8000
8040
8080
C300
7C00
ENDCHAR
STARTCHAR uni3059
ENCODING 12377
BBX 13 14 2 -1
BITMAP
0100
0100
0100
FFF8
0100
0F00
1100
1100
1100
0F00
0100
0200
0400
0800
ENDCHAR
STARTCHAR uni305A
ENCODING 12378
BBX 13 14 2 -1
BITMAP
0150
0128
0100
FFF8
0100
0F00
1100
1100
1100
0F00
0100
0200
0400
0800
ENDCHAR
STARTCHAR uni305B
ENCODING 12379
BBX 13 12 2 0
BITMAP
0040
1040
1040
1078
FFC0
1040
1040
1040
13C0
1000
1000
1FE0
ENDCHAR
STARTCHAR uni305C
ENCODING 12380
BBX 13 13 2 0
BITMAP
0010
00C8
10A0
1090
10F0
FF80
1080
1080
1080
1380
1000
1000
0FE0
ENDCHAR
STARTCHAR uni305D
ENCODING 12381
BBX 12 12 2 0
BITMAP
0380
3D00
0200
0C00
18F0
FF00
0400
0800
0800
0800
0400
0380
ENDCHAR
STARTCHAR uni305E
ENCODING 12382
BBX 13 13 2 0
BITMAP
0020
0390
3F78
0200
0C00
18F0
FF00
0400
0800
0800
0800
0400
0380
ENDCHAR
STARTCHAR uni305F
ENCODING 12383
BBX 12 12 2 0
BITMAP
1000
1000
1600
F800
2000
21E0
2300
2000
4000
4000
4400
83F0
ENDCHAR
STARTCHAR uni3060
ENCODING 12384
BBX 12 13 2 0
BITMAP
1040
10A0
1050
1620
F800
2000
21E0
2600
2000
4000
4000
4400
83E0
ENDCHAR
STARTCHAR uni3061
ENCODING 12385
BBX 11 12 2 0
BITMAP
0800
0800
1180
FE00
1000
2000
27C0
3860
4020
0020
00C0
0F00
ENDCHAR
STARTCHAR uni3062
ENCODING 12386
BBX 13 13 2 0
BITMAP
0830
0848
0820
1190
FE00
1000
2000
27C0
3860
4020
0020
00C0
0F00
ENDCHAR
STARTCHAR uni3063
ENCODING 12387
BBX 10 8 2 0
BITMAP
0F00
7080
8040
0040
0040
0080
0380
1C00
ENDCHAR
STARTCHAR uni3064
ENCODING 12388
BBX 12 10 2 0
BITMAP
0FC0
7060
C030
0010
0010
0010
0030
0020
01C0
0F00
ENDCHAR
STARTCHAR uni3065
ENCODING 12389
BBX 13 13 2 0
BITMAP
0010
0068
0010
0FC0
7060
C030
0010
0010
0010
0030
0020
01C0
0F00
ENDCHAR
STARTCHAR uni3066
ENCODING 12390
BBX 12 12 2 0
BITMAP
03F0
FD80
0200
0400
0C00
0800
0800
0800
0800
0400
0300
00E0
ENDCHAR
STARTCHAR uni3067
ENCODING 12391
BBX 13 12 2 0
BITMAP
03F8
FCC0
0310
0408
0448
0820
0810
0800
0800
0400
0300
00E0
ENDCHAR
STARTCHAR uni3068
ENCODING 12392
BBX 9 13 3 0
BITMAP
1000
1000
1000
1000
1000
1180
1E00
3000
4000
8000
8000
C000
3F80
ENDCHAR
STARTCHAR uni3069
ENCODING 12393
BBX 11 13 3 0
BITMAP
1040
1020
1120
10C0
1000
1180
1E00
3000
4000
8000
8000
C000
3F80
ENDCHAR
STARTCHAR uni306A
ENCODING 12394
BBX 13 14 2 -1
BITMAP
0800
0800
1600
F8C0
1030
2008
2080
4080
4080
4080
8F80
10E0
1090
0F00
ENDCHAR
STARTCHAR uni306B
ENCODING 12395
BBX 12 11 2 1
BITMAP
4000
4000
8FE0
8000
8000
8000
8000
8000
8800
8400
83F0
ENDCHAR
STARTCHAR uni306C
ENCODING 12396
BBX 13 12 2 0
BITMAP
0200
4200
4200
4FC0
3460
6410
6410
9810
99D0
9A30
9230
61C8
ENDCHAR
STARTCHAR uni306D
ENCODING 12397
BBX 15 13 1 0
BITMAP
0800
1000
1000
38F0
5B18
1408
1808
3008
3008
50F8
911C
1112
10E0
ENDCHAR
STARTCHAR uni306E
ENCODING 12398
BBX 12 11 2 0
BITMAP
0F80
3460
6420
4410
8810
8810
8810
8820
5020
70C0
0300
ENDCHAR
STARTCHAR uni306F
ENCODING 12399
BBX 12 12 2 0
BITMAP
4080
4080
4080
9FF0
8080
8080
8080
8080
8780
88E0
8890
8700
ENDCHAR
STARTCHAR uni3070
ENCODING 12400
BBX 13 13 2 0
BITMAP
0010
40A8
4090
4080
9FF0
8080
8080
8080
8080
87C0
88B0
8888
8700
ENDCHAR
STARTCHAR uni3071
ENCODING 12401
BBX 13 13 2 0
BITMAP
0030
40C8
40C8
40B0
9FF0
8080
8080
8080
8080
87C0
88B0
8888
8700
ENDCHAR
STARTCHAR uni3072
ENCODING 12402
BBX 14 12 1 0
BITMAP
0880
38C0
D040
1060
2060
2050
2048
2044
2040
20C0
1080
0F00
ENDCHAR
STARTCHAR uni3073
ENCODING 12403
BBX 14 13 1 0
BITMAP
0018
003C
1888
F8C0
1040
1060
2050
2048
2044
2040
2040
1080
0F00
ENDCHAR
STARTCHAR uni3074
ENCODING 12404
BBX 14 13 1 0
BITMAP
0018
00A4
18E4
F858
1060
1060
2050
2048
2044
2040
20C0
1080
0F00
ENDCHAR
STARTCHAR uni3075
ENCODING 12405
BBX 14 12 1 0
BITMAP
0C00
0380
0000
0800
0800
0C20
0310
1188
2084
4080
8880
0700
ENDCHAR
STARTCHAR uni3076
ENCODING 12406
BBX 14 13 1 0
BITMAP
0820
0650
0128
0010
0800
0800
0620
0110
1088
2084
4080
8880
0700
ENDCHAR
STARTCHAR uni3077
ENCODING 12407
BBX 14 12 1 0
BITMAP
0818
0624
01A4
0818
0800
0C20
0310
1188
2084
4080
8880
0700
ENDCHAR
STARTCHAR uni3078
ENCODING 12408
BBX 13 7 1 2
BITMAP
0C00
1A00
3180
60C0
8020
0010
0008
ENDCHAR
STARTCHAR uni3079
ENCODING 12409
BBX 13 10 2 2
BITMAP
0040
00A0
0050
0C20
1200
2100
40C0
8060
0010
0008
ENDCHAR
STARTCHAR uni307A
ENCODING 12410
BBX 13 9 2 2
BITMAP
0020
0050
0C50
1260
2100
40C0
8060
0010
0008
ENDCHAR
STARTCHAR uni307B
ENCODING 12411
BBX 13 12 2 0
BITMAP
4000
CFF0
8080
8080
9FF8
8080
8080
8080
87C0
88B0
8888
8700
ENDCHAR
STARTCHAR uni307C
ENCODING 12412
BBX 13 13 2 0
BITMAP
0030
4068
4FF0
8080
8080
9FF0
8080
8080
8080
8F80
90E0
9198
8F00
ENDCHAR
STARTCHAR uni307D
ENCODING 12413
BBX 13 13 2 0
BITMAP
0030
4048
4FC8
C130
8100
9FF0
8100
8100
8100
8F80
9160
9110
8E00
ENDCHAR
STARTCHAR uni307E
ENCODING 12414
BBX 12 13 2 -1
BITMAP
0200
0200
FFF0
0200
0200
7FE0
0200
0200
3F00
42C0
4220
4210
3C00
ENDCHAR
STARTCHAR uni307F
ENCODING 12415
BBX 14 13 1 -1
BITMAP
0700
3900
0200
0210
0410
3F20
68E0
8838
8824
9040
6040
0080
0100
ENDCHAR
STARTCHAR uni3080
ENCODING 12416
BBX 12 13 2 0
BITMAP
1000
1000
1700
F840
1020
1010
7000
8800
8840
F040
1040
1040
0F80
ENDCHAR
STARTCHAR uni3081
ENCODING 12417
BBX 12 13 2 0
BITMAP
0200
4200
4400
2F80
3460
2420
6410
5410
9810
8810
8820
9440
6180
ENDCHAR
STARTCHAR uni3082
ENCODING 12418
BBX 10 12 3 0
BITMAP
0800
0800
0800
7E00
1000
1000
FE00
1080
1040
1040
18C0
0F80
ENDCHAR
STARTCHAR uni3083
ENCODING 12419
BBX 10 10 3 -1
BITMAP
0400
2400
2F80
7840
D040
1440
1380
1000
0800
0800
ENDCHAR
STARTCHAR uni3084
ENCODING 12420
BBX 12 12 2 0
BITMAP
0200
2200
2200
23E0
1C10
7010
9210
11E0
0800
0800
0C00
0400
ENDCHAR
STARTCHAR uni3085
ENCODING 12421
BBX 9 11 4 -1
BITMAP
0400
8400
9F00
B580
A480
C480
E480
9580
8F00
8800
1000
ENDCHAR
STARTCHAR uni3086
ENCODING 12422
BBX 12 13 3 -1
BITMAP
0200
0200
4FC0
5220
A210
C210
C210
9210
8E20
87C0
4200
0600
0400
ENDCHAR
STARTCHAR uni3087
ENCODING 12423
BBX 9 10 4 0
BITMAP
0800
0800
0900
0E00
0800
0800
7C00
8B00
8880
7000
ENDCHAR
STARTCHAR uni3088
ENCODING 12424
BBX 11 13 3 -1
BITMAP
0400
0400
0400
07E0
0400
0400
0400
0400
7E00
8580
84C0
8820
7800
ENDCHAR
STARTCHAR uni3089
ENCODING 12425
BBX 10 14 3 -1
BITMAP
6000
1800
0600
0000
4000
4000
4000
4F00
90C0
E040
C040
0040
0180
1E00
ENDCHAR
STARTCHAR uni308A
ENCODING 12426
BBX 8 13 4 0
BITMAP
41
41
81
81
81
81
91
A1
E1
02
06
0C
30
ENDCHAR
STARTCHAR uni308B
ENCODING 12427
BBX 11 13 3 0
BITMAP
0180
3F80
0100
0200
0C00
1780
3840
6020
9820
2420
2260
32C0
0F80
ENDCHAR
STARTCHAR uni308C
ENCODING 12428
BBX 15 14 1 -1
BITMAP
0800
0800
0800
3DE0
6B20
0C20
0820
1820
2820
6822
4822
8824
0818
0800
ENDCHAR
STARTCHAR uni308D
ENCODING 12429
BBX 11 12 2 0
BITMAP
3F80
0100
0200
0400
0800
1F80
3040
4020
8020
0020
00C0
1F00
ENDCHAR
STARTCHAR uni308E
ENCODING 12430
BBX 10 11 3 -1
BITMAP
2000
2000
2000
F780
28C0
3040
2040
6040
A080
A300
2000
ENDCHAR
STARTCHAR uni308F
ENCODING 12431
BBX 14 14 1 -1
BITMAP
0800
0800
0C00
7CF0
0908
0A04
1C04
1804
2804
480C
8808
0830
08C0
0800
ENDCHAR
STARTCHAR uni3090
ENCODING 12432
BBX 12 12 2 0
BITMAP
3E00
0200
0200
07C0
1C20
2430
4810
8810
8990
9250
9260
61C0
ENDCHAR
STARTCHAR uni3091
ENCODING 12433
BBX 14 13 1 0
BITMAP
0380
1E80
0300
07E0
1C30
2710
0910
0B20
07C0
0C00
1870
7F88
C204
ENDCHAR
STARTCHAR uni3092
ENCODING 12434
BBX 10 14 3 -1
BITMAP
0800
0800
1180
FE00
1000
2000
3C00
64C0
8700
1C00
2400
4000
4000
3F80
ENDCHAR
STARTCHAR uni3093
ENCODING 12435
BBX 12 12 2 0
BITMAP
0400
0800
0800
1800
1000
1010
2C10
3210
6220
4220
C240
81C0
ENDCHAR
STARTCHAR uni3094
ENCODING 12436
BBX 11 13 3 0
BITMAP
0040
20A0
1E40
0040
3F00
C180
0080
0080
0080
0100
0200
0C00
3000
ENDCHAR
STARTCHAR uni3095
ENCODING 12437
BBX 10 10 3 0
BITMAP
1000
1100
3080
FC80
2240
2240
4200
4200
D600
8C00
ENDCHAR
STARTCHAR uni3096
ENCODING 12438
BBX 11 9 4 0
BITMAP
4100
8100
BFE0
8100
8100
8100
8200
4200
0400
ENDCHAR
STARTCHAR uni3099
ENCODING 12441
BBX 4 3 11 10
BITMAP
20
D0
20
ENDCHAR
STARTCHAR uni309A
ENCODING 12442
BBX 3 3 12 10
BITMAP
E0
A0
E0
ENDCHAR
STARTCHAR uni309B
ENCODING 12443
BBX 4 3 1 10
BITMAP
20
D0
20
ENDCHAR
STARTCHAR uni309C
ENCODING 12444
BBX 3 3 2 10
BITMAP
E0
A0
E0
ENDCHAR
STARTCHAR uni309D
ENCODING 12445
BBX 6 10 5 1
BITMAP
80
40
40
20
10
18
08
04
18
20
ENDCHAR
STARTCHAR uni309E
ENCODING 12446
BBX 8 10 5 1
BITMAP
82
49
45
22
10
10
08
04
18
60
ENDCHAR
STARTCHAR uni309F
ENCODING 12447
BBX 10 13 3 -1
BITMAP
0800
0800
10C0
1F00
1000
2000
2780
38C0
2040
4040
4040
8180
9E00
ENDCHAR
STARTCHAR uni30A0
ENCODING 12448
BBX 6 4 5 4
BITMAP
FC
00
00
FC
ENDCHAR
STARTCHAR uni30A1
ENCODING 12449
BBX 10 9 3 0
BITMAP
FFC0
00C0
0980
0A00
0800
0800
1800
3000
6000
ENDCHAR
STARTCHAR uni30A2
ENCODING 12450
BBX 12 11 2 0
BITMAP
FFF0
0010
0420
04C0
0500
0400
0400
0800
1800
3000
4000
ENDCHAR
STARTCHAR uni30A3
ENCODING 12451
BBX 8 10 3 0
BITMAP
01
02
06
0C
1C
34
C4
04
04
04
ENDCHAR
STARTCHAR uni30A4
ENCODING 12452
BBX 10 12 2 0
BITMAP
0040
0080
0180
0300
0600
1A00
3200
C200
0200
0200
0200
0200
ENDCHAR
STARTCHAR uni30A5
ENCODING 12453
BBX 8 10 4 0
BITMAP
08
08
FF
81
81
81
02
04
08
30
ENDCHAR
STARTCHAR uni30A6
ENCODING 12454
BBX 10 13 3 0
BITMAP
0400
0400
0400
FFC0
8040
8040
8040
8080
0080
0100
0300
0400
1800
ENDCHAR
STARTCHAR uni30A7
ENCODING 12455
BBX 10 7 3 0
BITMAP
7F80
0400
0400
0400
0400
0400
FFC0
ENDCHAR
STARTCHAR uni30A8
ENCODING 12456
BBX 12 9 2 1
BITMAP
7FE0
0200
0200
0200
0200
0200
0200
0200
FFF0
ENDCHAR
STARTCHAR uni30A9
ENCODING 12457
BBX 10 9 3 0
BITMAP
0400
0400
FFC0
0C00
1400
1400
6400
8400
1C00
ENDCHAR
STARTCHAR uni30AA
ENCODING 12458
BBX 12 12 2 0
BITMAP
0100
0100
0100
FFF0
0300
0500
0900
1100
2100
C100
0100
0700
ENDCHAR
STARTCHAR uni30AB
ENCODING 12459
BBX 11 12 2 0
BITMAP
0400
0400
0400
FFE0
0420
0420
0820
0820
1820
1020
6040
81C0
ENDCHAR
STARTCHAR uni30AC
ENCODING 12460
BBX 13 13 2 0
BITMAP
0420
0450
0428
0400
FFE0
0420
0420
0820
0820
1820
1020
6040
81C0
ENDCHAR
STARTCHAR uni30AD
ENCODING 12461
BBX 13 13 1 0
BITMAP
0400
0400
0400
07E0
7E00
0200
0200
03F8
FE00
0200
0100
0100
0100
ENDCHAR
STARTCHAR uni30AE
ENCODING 12462
BBX 14 13 1 0
BITMAP
0428
0414
0414
07E0
7E00
0200
0200
03F8
FE00
0200
0100
0100
0100
ENDCHAR
STARTCHAR uni30AF
ENCODING 12463
BBX 10 13 2 0
BITMAP
0800
1800
1000
3FC0
2040
4040
8080
0080
0100
0200
0400
0800
3000
ENDCHAR
STARTCHAR uni30B0
ENCODING 12464
BBX 13 13 2 0
BITMAP
0830
1848
1020
3FC0
2040
4040
8080
0080
0100
0200
0400
0800
3000
ENDCHAR
STARTCHAR uni30B1
ENCODING 12465
BBX 12 13 2 -1
BITMAP
0800
0800
1000
1FF0
2080
2080
4080
8100
0100
0200
0200
0400
0800
ENDCHAR
STARTCHAR uni30B2
ENCODING 12466
BBX 13 14 2 -1
BITMAP
1010
1048
2020
2000
3FF0
4080
4080
8100
0100
0100
0200
0400
0800
1000
ENDCHAR
STARTCHAR uni30B3
ENCODING 12467
BBX 10 9 2 1
BITMAP
FFC0
0040
0040
0040
0040
0040
0040
FFC0
0040
ENDCHAR
STARTCHAR uni30B4
ENCODING 12468
BBX 12 12 3 1
BITMAP
0020
0090
0040
FFC0
0040
0040
0040
0040
0040
0040
FFC0
0040
ENDCHAR
STARTCHAR uni30B5
ENCODING 12469
BBX 12 13 2 0
BITMAP
1080
1080
1080
1080
FFF0
1080
1080
1080
1080
0100
0100
0200
0C00
ENDCHAR
STARTCHAR uni30B6
ENCODING 12470
BBX 13 14 2 0
BITMAP
0010
10C8
10A8
1090
1080
FFF8
1080
1080
1080
1080
0100
0100
0200
0C00
ENDCHAR
STARTCHAR uni30B7
ENCODING 12471
BBX 12 12 2 0
BITMAP
2000
1000
0800
0000
C010
3020
0020
0040
0080
0300
0C00
3000
ENDCHAR
STARTCHAR uni30B8
ENCODING 12472
BBX 12 13 2 0
BITMAP
0040
2120
10A0
0840
0000
C010
3020
0020
0040
0080
0300
0C00
3000
ENDCHAR
STARTCHAR uni30B9
ENCODING 12473
BBX 12 11 2 0
BITMAP
7F80
0080
0100
0100
0200
0600
0D00
1880
3040
6020
8010
ENDCHAR
STARTCHAR uni30BA
ENCODING 12474
BBX 13 13 2 0
BITMAP
0020
0050
7FA8
00A0
0100
0100
0200
0600
0D00
1880
3040
6020
8010
ENDCHAR
STARTCHAR uni30BB
ENCODING 12475
BBX 12 12 2 0
BITMAP
0800
0800
0800
08F0
3F90
C820
0840
0880
0800
0800
0800
0FF0
ENDCHAR
STARTCHAR uni30BC
ENCODING 12476
BBX 13 13 2 0
BITMAP
0020
0850
0828
0800
08F0
3F10
C820
0840
0880
0800
0800
0800
0FF0
ENDCHAR
STARTCHAR uni30BD
ENCODING 12477
BBX 9 11 3 0
BITMAP
8080
8080
4080
4100
0100
0100
0200
0400
0800
3000
6000
ENDCHAR
STARTCHAR uni30BE
ENCODING 12478
BBX 11 13 3 0
BITMAP
0040
01A0
8040
4080
4080
2080
0100
0100
0200
0600
0C00
1000
6000
ENDCHAR
STARTCHAR uni30BF
ENCODING 12479
BBX 10 13 2 0
BITMAP
0800
1800
1000
3FC0
2040
4040
9880
0680
0180
0240
0400
0800
3000
ENDCHAR
STARTCHAR uni30C0
ENCODING 12480
BBX 13 13 2 0
BITMAP
0830
1848
1020
3FD0
2040
4040
9880
0680
0180
0240
0400
0800
3000
ENDCHAR
STARTCHAR uni30C1
ENCODING 12481
BBX 12 12 2 0
BITMAP
01C0
7E00
0200
0200
0200
FFF0
0200
0200
0200
0400
0C00
1000
ENDCHAR
STARTCHAR uni30C2
ENCODING 12482
BBX 13 13 2 0
BITMAP
0050
01A8
7E10
0200
0200
0200
FFF0
0200
0200
0200
0400
0C00
1000
ENDCHAR
STARTCHAR uni30C3
ENCODING 12483
BBX 10 9 3 0
BITMAP
1040
8840
C440
4080
0080
0100
0200
0C00
3000
ENDCHAR
STARTCHAR uni30C4
ENCODING 12484
BBX 11 12 2 0
BITMAP
1020
8820
4820
4440
2040
0040
0080
0080
0100
0200
0C00
3000
ENDCHAR
STARTCHAR uni30C5
ENCODING 12485
BBX 13 13 2 0
BITMAP
00A0
0050
0828
8820
4420
2440
0040
0040
0080
0100
0200
0C00
3000
ENDCHAR
STARTCHAR uni30C6
ENCODING 12486
BBX 12 11 2 0
BITMAP
3FC0
0000
0000
FFF0
0200
0200
0200
0400
0400
0800
1000
ENDCHAR
STARTCHAR uni30C7
ENCODING 12487
BBX 13 13 2 0
BITMAP
0030
0048
3FA0
0010
0000
FFF0
0200
0200
0200
0400
0400
0800
1000
ENDCHAR
STARTCHAR uni30C8
ENCODING 12488
BBX 7 12 6 0
BITMAP
80
80
80
80
C0
B0
8C
82
80
80
80
80
ENDCHAR
STARTCHAR uni30C9
ENCODING 12489
BBX 8 12 6 0
BITMAP
86
89
84
82
C0
B0
8C
82
80
80
80
80
ENDCHAR
STARTCHAR uni30CA
ENCODING 12490
BBX 13 13 1 0
BITMAP
0100
0100
0100
0100
FFF8
0100
0100
0100
0100
0200
0200
0400
1800
ENDCHAR
STARTCHAR uni30CB
ENCODING 12491
BBX 12 8 2 2
BITMAP
3FC0
0000
0000
0000
0000
0000
0000
FFF0
ENDCHAR
STARTCHAR uni30CC
ENCODING 12492
BBX 11 10 2 1
BITMAP
7FC0
0040
0080
3080
0D00
0200
0580
0840
3020
C000
ENDCHAR
STARTCHAR uni30CD
ENCODING 12493
BBX 13 12 2 0
BITMAP
0200
0200
7FC0
00C0
0100
0200
0EC0
3230
C208
0200
0200
0200
ENDCHAR
STARTCHAR uni30CE
ENCODING 12494
BBX 7 12 4 0
BITMAP
02
02
02
04
04
04
08
08
10
20
40
80
ENDCHAR
STARTCHAR uni30CF
ENCODING 12495
BBX 13 8 1 2
BITMAP
0880
1840
1040
1020
2010
6010
4008
8008
ENDCHAR
STARTCHAR uni30D0
ENCODING 12496
BBX 14 10 1 2
BITMAP
0018
0024
0890
1840
1040
1020
2010
6010
4008
8008
ENDCHAR
STARTCHAR uni30D1
ENCODING 12497
BBX 14 11 1 1
BITMAP
0018
0024
08A4
1858
1020
1020
2010
2010
4008
4004
8004
ENDCHAR
STARTCHAR uni30D2
ENCODING 12498
BBX 8 10 4 1
BITMAP
80
80
81
8E
F0
80
80
80
80
FF
ENDCHAR
STARTCHAR uni30D3
ENCODING 12499
BBX 10 12 4 1
BITMAP
0080
8240
8140
8000
8100
8E00
F000
8000
8000
8000
8000
FF00
ENDCHAR
STARTCHAR uni30D4
ENCODING 12500
BBX 11 12 4 1
BITMAP
00C0
0120
8120
80C0
8380
FC00
8000
8000
8000
8000
8000
FF80
ENDCHAR
STARTCHAR uni30D5
ENCODING 12501
BBX 10 10 2 0
BITMAP
FFC0
0040
0040
0080
0080
0100
0300
0600
1800
6000
ENDCHAR
STARTCHAR uni30D6
ENCODING 12502
BBX 13 13 2 0
BITMAP
0050
0048
0020
FFE0
0040
0040
0040
0080
0080
0100
0200
0C00
7000
ENDCHAR
STARTCHAR uni30D7
ENCODING 12503
BBX 14 13 2 0
BITMAP
0018
0024
0024
FFD8
0040
0040
0040
0080
0080
0100
0200
0C00
7000
ENDCHAR
STARTCHAR uni30D8
ENCODING 12504
BBX 12 8 2 2
BITMAP
0C00
1400
1200
2100
4080
8040
0020
0010
ENDCHAR
STARTCHAR uni30D9
ENCODING 12505
BBX 13 10 2 2
BITMAP
0020
00D0
0C20
0A00
1100
2080
4040
8020
0010
0008
ENDCHAR
STARTCHAR uni30DA
ENCODING 12506
BBX 14 10 1 2
BITMAP
0030
0048
0448
0A30
1180
20C0
4060
8030
0008
0004
ENDCHAR
STARTCHAR uni30DB
ENCODING 12507
BBX 12 13 2 0
BITMAP
0200
0200
0200
0200
FFF0
0200
0200
1280
2240
4220
8210
0200
0200
ENDCHAR
STARTCHAR uni30DC
ENCODING 12508
BBX 13 13 2 0
BITMAP
0220
0250
0228
0200
FFF0
0200
0200
1280
2240
4220
8210
0200
0200
ENDCHAR
STARTCHAR uni30DD
ENCODING 12509
BBX 12 13 2 0
BITMAP
0460
0490
0490
0460
FFF0
0400
0400
1480
2440
4420
8410
0400
0400
ENDCHAR
STARTCHAR uni30DE
ENCODING 12510
BBX 11 9 3 1
BITMAP
FFE0
0060
00C0
2100
1200
0C00
0400
0200
0100
ENDCHAR
STARTCHAR uni30DF
ENCODING 12511
BBX 8 11 4 1
BITMAP
78
0E
00
00
60
1C
02
00
E0
3E
03
ENDCHAR
STARTCHAR uni30E0
ENCODING 12512
BBX 12 12 2 0
BITMAP
0400
0400
0800
0800
0800
1800
1100
1080
2040
2060
FFE0
0010
ENDCHAR
STARTCHAR uni30E1
ENCODING 12513
BBX 9 12 4 0
BITMAP
0100
0100
0200
2200
1A00
0600
0500
0880
1000
3000
4000
8000
ENDCHAR
STARTCHAR uni30E2
ENCODING 12514
BBX 12 10 2 1
BITMAP
7FC0
0400
0400
0400
FFF0
0400
0400
0400
0400
07E0
ENDCHAR
STARTCHAR uni30E3
ENCODING 12515
BBX 10 10 3 0
BITMAP
2000
2000
11C0
3F40
D080
0900
0800
0800
0400
0400
ENDCHAR
STARTCHAR uni30E4
ENCODING 12516
BBX 12 14 2 -1
BITMAP
1000
1000
1800
0870
1F90
E820
0840
0480
0400
0400
0400
0400
0200
0200
ENDCHAR
STARTCHAR uni30E5
ENCODING 12517
BBX 10 7 3 0
BITMAP
7E00
0200
0200
0200
0200
0200
FFC0
ENDCHAR
STARTCHAR uni30E6
ENCODING 12518
BBX 13 9 1 1
BITMAP
3FC0
0040
0040
0040
0040
0040
0040
0040
FFF8
ENDCHAR
STARTCHAR uni30E7
ENCODING 12519
BBX 7 9 5 -1
BITMAP
FE
02
02
FE
02
02
02
FE
02
ENDCHAR
STARTCHAR uni30E8
ENCODING 12520
BBX 9 11 4 0
BITMAP
FF80
0080
0080
0080
7F80
0080
0080
0080
0080
FF80
0080
ENDCHAR
STARTCHAR uni30E9
ENCODING 12521
BBX 10 12 3 0
BITMAP
7F80
0000
0000
FFC0
0040
0040
0080
0080
0100
0300
0400
1800
ENDCHAR
STARTCHAR uni30EA
ENCODING 12522
BBX 7 12 5 0
BITMAP
02
82
82
82
82
82
82
02
04
04
08
30
ENDCHAR
STARTCHAR uni30EB
ENCODING 12523
BBX 14 12 1 0
BITMAP
0100
1100
1100
1100
1100
1104
1108
3108
2110
6160
4180
8000
ENDCHAR
STARTCHAR uni30EC
ENCODING 12524
BBX 10 11 3 1
BITMAP
8000
8000
8000
8000
8040
80C0
8080
8100
8600
8800
F000
ENDCHAR
STARTCHAR uni30ED
ENCODING 12525
BBX 9 10 4 1
BITMAP
FF80
8080
8080
8080
8080
8080
8080
8080
FF80
8080
ENDCHAR
STARTCHAR uni30EE
ENCODING 12526
BBX 8 9 4 0
BITMAP
FF
81
81
81
02
02
04
08
30
ENDCHAR
STARTCHAR uni30EF
ENCODING 12527
BBX 10 12 3 -1
BITMAP
FFC0
8040
8040
8040
8040
8080
0080
0080
0100
0200
0C00
1800
ENDCHAR
STARTCHAR uni30F0
ENCODING 12528
BBX 13 12 2 0
BITMAP
0100
0100
0100
7FF0
1100
1100
1100
FFF8
0100
0100
0100
0100
ENDCHAR
STARTCHAR uni30F1
ENCODING 12529
BBX 14 9 1 2
BITMAP
3FF0
0030
0060
02C0
0300
0200
0200
0200
FFFC
ENDCHAR
STARTCHAR uni30F2
ENCODING 12530
BBX 10 11 3 1
BITMAP
FFC0
0040
0040
0080
FF80
0080
0100
0200
0400
1800
6000
ENDCHAR
STARTCHAR uni30F3
ENCODING 12531
BBX 11 11 3 1
BITMAP
8000
6000
1000
0020
0060
0040
0080
0100
0600
1C00
E000
ENDCHAR
STARTCHAR uni30F4
ENCODING 12532
BBX 13 13 2 0
BITMAP
0030
04C8
0420
FFE0
8020
8020
8020
8040
0040
0080
0180
0200
0C00
ENDCHAR
STARTCHAR uni30F5
ENCODING 12533
BBX 9 10 4 0
BITMAP
0800
0800
0800
FF80
0880
0880
1080
1080
6080
C700
ENDCHAR
STARTCHAR uni30F6
ENCODING 12534
BBX 10 10 3 -1
BITMAP
1000
2000
3FC0
2200
4200
8200
0400
0400
0800
1000
ENDCHAR
STARTCHAR uni30F7
ENCODING 12535
BBX 13 13 2 0
BITMAP
0010
0048
FFA0
8080
8080
8080
0080
0100
0100
0300
0200
0C00
1000
ENDCHAR
STARTCHAR uni30F8
ENCODING 12536
BBX 13 12 2 1
BITMAP
0050
0128
0100
7FE0
2100
2100
2100
FFF0
0100
0100
0100
0100
ENDCHAR
STARTCHAR uni30F9
ENCODING 12537
BBX 13 13 2 1
BITMAP
0050
0028
0000
7FC0
0040
0080
0100
0600
0400
0400
0400
0400
FFF0
ENDCHAR
STARTCHAR uni30FA
ENCODING 12538
BBX 12 13 2 1
BITMAP
0020
0050
FFA0
0080
0080
FF80
0080
0100
0100
0300
0600
0C00
1800
ENDCHAR
STARTCHAR uni30FB
ENCODING 12539
BBX 2 2 7 5
BITMAP
C0
C0
ENDCHAR
STARTCHAR uni30FC
ENCODING 12540
BBX 12 1 2 6
BITMAP
FFF0
ENDCHAR
STARTCHAR uni30FD
ENCODING 12541
BBX 5 5 6 4
BITMAP
80
40
20
10
08
ENDCHAR
STARTCHAR uni30FE
ENCODING 12542
BBX 7 8 6 4
BITMAP
0C
12
08
84
40
20
10
08
ENDCHAR
STARTCHAR uni30FF
ENCODING 12543
BBX 6 10 4 1
BITMAP
FC
04
04
04
04
04
04
04
04
04
ENDCHAR
STARTCHAR uni3105
ENCODING 12549
BBX 9 12 4 0
BITMAP
4000
4000
8000
FF80
0080
0080
0080
0080
0080
0080
0080
0F00
ENDCHAR
STARTCHAR uni3106
ENCODING 12550
BBX 11 12 2 0
BITMAP
0800
1000
2000
3FC0
0040
0080
3080
0D00
0300
0CC0
3020
C000
ENDCHAR
STARTCHAR uni3107
ENCODING 12551
BBX 10 10 3 1
BITMAP
FFC0
8040
8040
8040
8040
8040
8040
8040
8040
8040
ENDCHAR
STARTCHAR uni3108
ENCODING 12552
BBX 10 10 3 1
BITMAP
FFC0
4000
4000
4000
4000
4000
4000
4000
4000
7FC0
ENDCHAR
STARTCHAR uni3109
ENCODING 12553
BBX 10 11 3 1
BITMAP
2000
2000
4000
7FC0
0440
0440
0840
0840
1040
60C0
C780
ENDCHAR
STARTCHAR uni310A
ENCODING 12554
BBX 10 12 3 0
BITMAP
0400
0400
0400
FFC0
0400
0800
0800
1200
2100
4080
7F80
0040
ENDCHAR
STARTCHAR uni310B
ENCODING 12555
BBX 10 11 4 1
BITMAP
FE00
0200
0400
0800
0FC0
0040
0040
0040
0040
0080
0780
ENDCHAR
STARTCHAR uni310C
ENCODING 12556
BBX 11 12 2 0
BITMAP
2200
2200
4200
7FE0
0220
0220
0420
0420
0820
1020
6040
83C0
ENDCHAR
STARTCHAR uni310D
ENCODING 12557
BBX 8 12 3 0
BITMAP
11
12
22
44
44
88
88
44
44
22
12
11
ENDCHAR
STARTCHAR uni310E
ENCODING 12558
BBX 12 11 2 1
BITMAP
FFF0
0800
0800
1000
1FC0
0040
0040
0040
0040
0080
0780
ENDCHAR
STARTCHAR uni310F
ENCODING 12559
BBX 12 11 2 0
BITMAP
7FF0
2000
2000
2000
2000
2000
2000
2000
4000
4000
8000
ENDCHAR
STARTCHAR uni3110
ENCODING 12560
BBX 6 11 5 1
BITMAP
04
44
44
44
44
44
7C
C4
04
04
04
ENDCHAR
STARTCHAR uni3111
ENCODING 12561
BBX 5 12 5 0
BITMAP
08
10
10
20
40
80
80
40
20
10
10
08
ENDCHAR
STARTCHAR uni3112
ENCODING 12562
BBX 10 11 3 0
BITMAP
FFC0
0400
0400
0400
0400
0400
0400
0400
0400
0400
0400
ENDCHAR
STARTCHAR uni3113
ENCODING 12563
BBX 11 11 3 1
BITMAP
0400
4440
4440
4440
4440
4440
7FC0
0400
0400
0400
FFE0
ENDCHAR
STARTCHAR uni3114
ENCODING 12564
BBX 8 11 3 1
BITMAP
02
04
19
22
C4
08
18
68
88
08
08
ENDCHAR
STARTCHAR uni3115
ENCODING 12565
BBX 11 12 2 0
BITMAP
3FE0
0020
0020
0020
3FE0
2000
2000
2000
6000
4000
4000
8000
ENDCHAR
STARTCHAR uni3116
ENCODING 12566
BBX 8 10 4 1
BITMAP
FF
81
81
A1
99
85
81
81
FF
81
ENDCHAR
STARTCHAR uni3117
ENCODING 12567
BBX 10 10 3 1
BITMAP
FFC0
1040
1040
1040
1040
1040
1380
1000
1000
1000
ENDCHAR
STARTCHAR uni3118
ENCODING 12568
BBX 11 12 3 0
BITMAP
0400
0C00
0800
FFE0
1000
1000
3F80
0080
0080
0100
0200
0400
ENDCHAR
STARTCHAR uni3119
ENCODING 12569
BBX 10 10 3 1
BITMAP
0800
0800
1000
1000
3000
2000
2200
4100
4780
F840
ENDCHAR
STARTCHAR uni311A
ENCODING 12570
BBX 10 12 3 0
BITMAP
8040
4080
2180
2100
1200
0400
0400
0400
0400
0400
0400
0400
ENDCHAR
STARTCHAR uni311B
ENCODING 12571
BBX 10 10 3 1
BITMAP
FFC0
0400
0400
1C00
2000
4000
4000
4000
2080
1F00
ENDCHAR
STARTCHAR uni311C
ENCODING 12572
BBX 10 12 3 0
BITMAP
0400
0400
FFC0
0400
0400
3C00
6000
4000
4000
4000
2080
1F00
ENDCHAR
STARTCHAR uni311D
ENCODING 12573
BBX 11 10 2 1
BITMAP
1080
1080
1080
FFE0
1080
1080
1100
1000
1000
1FC0
ENDCHAR
STARTCHAR uni311E
ENCODING 12574
BBX 11 11 3 1
BITMAP
FFE0
0400
4400
4400
7FC0
0840
0840
1040
3080
6080
8100
ENDCHAR
STARTCHAR uni311F
ENCODING 12575
BBX 12 10 2 1
BITMAP
3800
C800
0400
0400
0400
0200
0100
0080
0040
0030
ENDCHAR
STARTCHAR uni3120
ENCODING 12576
BBX 10 12 3 0
BITMAP
0800
1000
2100
2200
4200
FC00
0800
0900
1080
2080
FF40
0040
ENDCHAR
STARTCHAR uni3121
ENCODING 12577
BBX 11 11 3 0
BITMAP
7F80
0080
0100
4100
3200
0E00
0600
0980
1040
6020
8000
ENDCHAR
STARTCHAR uni3122
ENCODING 12578
BBX 10 11 3 0
BITMAP
FF80
0080
2080
2100
4000
7FC0
0040
0040
0040
0080
0080
ENDCHAR
STARTCHAR uni3123
ENCODING 12579
BBX 10 12 3 0
BITMAP
4000
4000
8000
8000
8000
FFC0
0040
0040
0040
0040
0080
0080
ENDCHAR
STARTCHAR uni3124
ENCODING 12580
BBX 11 12 3 0
BITMAP
0800
0800
0800
7FE0
0A00
0A00
0A00
1200
1200
2200
4200
83E0
ENDCHAR
STARTCHAR uni3125
ENCODING 12581
BBX 10 10 3 1
BITMAP
0800
0800
1000
1000
2000
2000
4000
4000
8000
FFC0
ENDCHAR
STARTCHAR uni3126
ENCODING 12582
BBX 12 11 2 1
BITMAP
0880
0880
0880
0880
0880
0880
1880
1080
3080
6080
80F0
ENDCHAR
STARTCHAR uni3127
ENCODING 12583
BBX 10 1 3 6
BITMAP
FFC0
ENDCHAR
STARTCHAR uni3128
ENCODING 12584
BBX 11 10 2 1
BITMAP
0080
4180
3100
0A00
0600
0700
0880
1040
6020
8000
ENDCHAR
STARTCHAR uni3129
ENCODING 12585
BBX 9 10 4 1
BITMAP
8080
8080
8080
8080
8080
8080
8080
8080
FF80
0080
ENDCHAR
STARTCHAR uni312A
ENCODING 12586
BBX 11 11 3 1
BITMAP
FFE0
0800
0800
0800
0FC0
1040
1040
1040
2040
4040
8380
ENDCHAR
STARTCHAR uni312B
ENCODING 12587
BBX 11 11 2 1
BITMAP
FFE0
0900
0900
0900
0900
0900
1900
1100
3100
6100
81E0
ENDCHAR
STARTCHAR uni312C
ENCODING 12588
BBX 14 14 1 -1
BITMAP
0100
0100
3FFC
2000
2000
2000
2000
2000
2000
2000
2000
4000
4000
8000
ENDCHAR
STARTCHAR uni312D
ENCODING 12589
BBX 11 10 3 1
BITMAP
FFE0
0400
0400
7FC0
4440
4440
4440
4440
4440
0400
ENDCHAR
STARTCHAR uni3190
ENCODING 12688
BBX 1 7 8 7
BITMAP
80
80
80
80
80
80
80
ENDCHAR
STARTCHAR uni3191
ENCODING 12689
BBX 6 7 6 7
BITMAP
80
80
84
88
B0
C0
80
ENDCHAR
STARTCHAR uni3192
ENCODING 12690
BBX 5 1 2 10
BITMAP
F8
ENDCHAR
STARTCHAR uni3193
ENCODING 12691
BBX 6 4 2 8
BITMAP
7C
00
00
FC
ENDCHAR
STARTCHAR uni3194
ENCODING 12692
BBX 6 6 2 7
BITMAP
7C
00
78
00
00
FC
ENDCHAR
STARTCHAR uni3195
ENCODING 12693
BBX 7 7 2 6
BITMAP
FE
AA
AA
CE
82
FE
82
ENDCHAR
STARTCHAR uni3196
ENCODING 12694
BBX 6 6 2 7
BITMAP
20
20
38
20
20
FC
ENDCHAR
STARTCHAR uni3197
ENCODING 12695
BBX 5 6 2 7
BITMAP
20
F8
A8
F8
20
20
ENDCHAR
STARTCHAR uni3198
ENCODING 12696
BBX 5 6 2 7
BITMAP
F8
20
30
28
20
20
ENDCHAR
STARTCHAR uni3199
ENCODING 12697
BBX 6 6 2 7
BITMAP
FC
94
FC
94
FC
10
ENDCHAR
STARTCHAR uni319A
ENCODING 12698
BBX 6 6 2 7
BITMAP
F8
10
20
40
84
FC
ENDCHAR
STARTCHAR uni319B
ENCODING 12699
BBX 7 6 2 7
BITMAP
FE
20
FC
A4
DC
8C
ENDCHAR
STARTCHAR uni319C
ENCODING 12700
BBX 5 6 2 7
BITMAP
F8
20
20
20
20
60
ENDCHAR
STARTCHAR uni319D
ENCODING 12701
BBX 6 6 1 7
BITMAP
7C
10
FC
10
28
C4
ENDCHAR
STARTCHAR uni319E
ENCODING 12702
BBX 7 7 1 6
BITMAP
48
58
FC
7C
5C
F2
1E
ENDCHAR
STARTCHAR uni319F
ENCODING 12703
BBX 7 6 1 7
BITMAP
10
10
10
28
4C
82
ENDCHAR
STARTCHAR uni31A0
ENCODING 12704
BBX 10 12 3 0
BITMAP
2000
4000
8000
FFC0
0040
0040
0040
0040
0040
0780
0480
0700
ENDCHAR
STARTCHAR uni31A1
ENCODING 12705
BBX 10 11 3 1
BITMAP
FFC0
0840
0840
0840
0840
0840
0840
0B80
7800
4800
7800
ENDCHAR
STARTCHAR uni31A2
ENCODING 12706
BBX 6 12 5 0
BITMAP
04
44
44
44
44
5C
E4
04
1C
14
14
1C
ENDCHAR
STARTCHAR uni31A3
ENCODING 12707
BBX 11 13 2 0
BITMAP
0880
1100
1100
2200
4200
4400
8400
4400
4200
23C0
11A0
11A0
08C0
ENDCHAR
STARTCHAR uni31A4
ENCODING 12708
BBX 11 12 2 0
BITMAP
1000
1000
1000
FFE0
1020
1040
1080
1100
1000
1000
1000
1FE0
ENDCHAR
STARTCHAR uni31A5
ENCODING 12709
BBX 12 12 2 0
BITMAP
1000
1000
FFE0
1020
1040
1080
1000
1060
1090
1090
1FE0
0010
ENDCHAR
STARTCHAR uni31A6
ENCODING 12710
BBX 10 10 3 1
BITMAP
FFC0
0400
0400
1C00
2000
4000
4000
2080
1300
0C00
ENDCHAR
STARTCHAR uni31A7
ENCODING 12711
BBX 11 11 3 0
BITMAP
FFE0
0400
0400
1C00
3000
43C0
4240
4240
4180
2140
1E00
ENDCHAR
STARTCHAR uni31A8
ENCODING 12712
BBX 12 11 2 1
BITMAP
2040
20C0
1080
1080
0900
0B00
07E0
0F00
1880
6060
8010
ENDCHAR
STARTCHAR uni31A9
ENCODING 12713
BBX 10 12 3 0
BITMAP
8040
4080
2080
1100
0A00
0400
0400
0400
0400
3C00
2400
3C00
ENDCHAR
STARTCHAR uni31AA
ENCODING 12714
BBX 12 5 2 4
BITMAP
0070
0050
0050
FFE0
0030
ENDCHAR
STARTCHAR uni31AB
ENCODING 12715
BBX 13 12 2 0
BITMAP
2040
2040
1080
1080
0980
0900
0600
0630
0948
30C8
C070
0030
ENDCHAR
STARTCHAR uni31AC
ENCODING 12716
BBX 12 10 2 1
BITMAP
FFF0
2210
2210
2210
2210
2210
2210
2210
2210
20E0
ENDCHAR
STARTCHAR uni31AD
ENCODING 12717
BBX 11 10 2 1
BITMAP
FFE0
2480
2480
2480
2480
2480
2480
2480
4480
84E0
ENDCHAR
STARTCHAR uni31AE
ENCODING 12718
BBX 11 12 2 0
BITMAP
FFE0
0200
4200
4200
7FE0
0220
0220
6440
A840
9040
7080
1000
ENDCHAR
STARTCHAR uni31AF
ENCODING 12719
BBX 10 12 3 0
BITMAP
0800
1000
1000
2200
4400
FC00
0800
1180
1240
23C0
FF00
0080
ENDCHAR
STARTCHAR uni31B0
ENCODING 12720
BBX 10 13 3 0
BITMAP
4080
3100
1100
0A00
FFC0
8440
8440
8440
8440
8440
8440
8440
84C0
ENDCHAR
STARTCHAR uni31B1
ENCODING 12721
BBX 12 12 2 0
BITMAP
FFF0
0200
0200
7FE0
4220
4E20
5020
50A0
5120
4E20
4020
40E0
ENDCHAR
STARTCHAR uni31B2
ENCODING 12722
BBX 12 10 2 1
BITMAP
FFF0
0200
0200
0200
0200
0200
0200
0200
0200
FFF0
ENDCHAR
STARTCHAR uni31B3
ENCODING 12723
BBX 4 12 5 0
BITMAP
10
10
10
10
10
10
10
10
70
90
90
70
ENDCHAR
STARTCHAR uni31B4
ENCODING 12724
BBX 5 7 2 0
BITMAP
80
80
F8
08
08
08
30
ENDCHAR
STARTCHAR uni31B5
ENCODING 12725
BBX 6 7 1 0
BITMAP
40
40
7C
14
34
64
D8
ENDCHAR
STARTCHAR uni31B6
ENCODING 12726
BBX 6 5 2 0
BITMAP
FC
40
78
08
30
ENDCHAR
STARTCHAR uni31B7
ENCODING 12727
BBX 6 6 1 -1
BITMAP
7C
40
40
40
40
80
ENDCHAR
STARTCHAR uni31C0
ENCODING 12736
BBX 12 9 2 2
BITMAP
0010
0020
0040
0080
0100
0600
0800
3000
C000
ENDCHAR
STARTCHAR uni31C1
ENCODING 12737
BBX 6 13 3 -1
BITMAP
04
04
04
04
04
04
04
04
08
08
10
20
C0
ENDCHAR
STARTCHAR uni31C2
ENCODING 12738
BBX 5 12 6 0
BITMAP
40
80
80
80
80
80
80
80
88
88
50
60
ENDCHAR
STARTCHAR uni31C3
ENCODING 12739
BBX 14 5 1 4
BITMAP
8000
6000
1800
0704
00F8
ENDCHAR
STARTCHAR uni31C4
ENCODING 12740
BBX 10 14 3 -1
BITMAP
8000
8000
8000
8000
8000
8000
8000
8000
8000
8000
8000
8000
8000
FFC0
ENDCHAR
STARTCHAR uni31C5
ENCODING 12741
BBX 11 10 3 1
BITMAP
FE00
0200
0200
0400
0400
0400
0400
0800
0800
0FE0
ENDCHAR
STARTCHAR uni31C6
ENCODING 12742
BBX 11 12 3 0
BITMAP
FFE0
0020
0020
0020
0020
0020
0020
0020
0020
0020
0040
03C0
ENDCHAR
STARTCHAR uni31C7
ENCODING 12743
BBX 11 11 2 1
BITMAP
FFE0
0020
0020
0040
0040
0080
0080
0100
0600
1800
6000
ENDCHAR
STARTCHAR uni31C8
ENCODING 12744
BBX 13 11 2 1
BITMAP
FFE0
0020
0020
0020
0020
0020
0020
0020
0020
0020
0038
ENDCHAR
STARTCHAR uni31C9
ENCODING 12745
BBX 11 13 3 0
BITMAP
8000
8000
8000
8000
8000
8000
FFE0
0020
0020
0020
0020
0060
03C0
ENDCHAR
STARTCHAR uni31CA
ENCODING 12746
BBX 12 11 2 0
BITMAP
FE00
0200
0200
0200
0400
0400
0400
0410
0460
0580
0600
ENDCHAR
STARTCHAR uni31CB
ENCODING 12747
BBX 10 13 4 -1
BITMAP
FE00
0200
0400
0800
0FC0
0040
0040
0040
0080
0080
0100
0200
0C00
ENDCHAR
STARTCHAR uni31CC
ENCODING 12748
BBX 5 13 6 -1
BITMAP
F8
08
10
10
20
30
10
08
08
08
08
08
70
ENDCHAR
STARTCHAR uni31CD
ENCODING 12749
BBX 11 10 3 1
BITMAP
FE00
0200
0400
0400
0400
0400
0400
0400
0400
03E0
ENDCHAR
STARTCHAR uni31CE
ENCODING 12750
BBX 9 12 3 0
BITMAP
F000
1000
1000
1000
1000
1F80
0080
0080
0080
0080
0080
0080
ENDCHAR
STARTCHAR uni31CF
ENCODING 12751
BBX 8 10 4 1
BITMAP
80
80
80
40
40
20
20
18
04
03
ENDCHAR
STARTCHAR uni2F00.dup6
ENCODING 12752
BBX 14 1 1 6
BITMAP
FFFC
ENDCHAR
STARTCHAR uni2F01.dup7
ENCODING 12753
BBX 1 14 8 -1
BITMAP
80
80
80
80
80
80
80
80
80
80
80
80
80
80
ENDCHAR
STARTCHAR uni31D2
ENCODING 12754
BBX 10 8 3 2
BITMAP
0040
0080
0100
0200
0400
0800
3000
C000
ENDCHAR
STARTCHAR uni2F03.dup8
ENCODING 12755
BBX 5 14 4 -1
BITMAP
08
08
08
08
08
08
08
08
08
08
10
10
60
C0
ENDCHAR
STARTCHAR uni2F02.dup9
ENCODING 12756
BBX 6 5 5 4
BITMAP
80
60
30
08
04
ENDCHAR
STARTCHAR uni31D5
ENCODING 12757
BBX 11 12 3 0
BITMAP
FFE0
0020
0020
0020
0020
0020
0020
0020
0020
0020
0020
0020
ENDCHAR
STARTCHAR uni2E82.dup10
ENCODING 12758
BBX 14 5 1 7
BITMAP
FFFC
0004
0008
0008
0010
ENDCHAR
STARTCHAR uni31D7
ENCODING 12759
BBX 11 12 3 0
BITMAP
8000
8000
8000
8000
8000
8000
8000
8000
8000
8000
8000
FFE0
ENDCHAR
STARTCHAR uni31D8
ENCODING 12760
BBX 11 12 2 0
BITMAP
0020
0020
0020
0020
0020
0020
0020
0020
0020
0020
FFE0
0020
ENDCHAR
STARTCHAR uni31D9
ENCODING 12761
BBX 6 13 6 0
BITMAP
80
80
80
80
80
80
80
80
84
88
90
E0
80
ENDCHAR
STARTCHAR uni2F05.dup11
ENCODING 12762
BBX 4 14 5 -1
BITMAP
10
10
10
10
10
10
10
10
10
10
10
10
10
F0
ENDCHAR
STARTCHAR uni31DB
ENCODING 12763
BBX 6 13 5 0
BITMAP
04
08
10
10
20
40
80
40
20
10
18
08
04
ENDCHAR
STARTCHAR uni31DC
ENCODING 12764
BBX 11 11 3 1
BITMAP
0400
0400
0800
0800
1000
1000
2000
2000
4000
4000
FFE0
ENDCHAR
STARTCHAR uni31DD
ENCODING 12765
BBX 12 12 2 0
BITMAP
0800
7800
8800
0400
0400
0400
0200
0200
0100
0080
0060
0030
ENDCHAR
STARTCHAR uni31DE
ENCODING 12766
BBX 10 13 3 0
BITMAP
8000
8000
8000
8000
8000
FFC0
0040
0040
0040
0040
0040
0040
0040
ENDCHAR
STARTCHAR uni2E83.dup12
ENCODING 12767
BBX 11 14 3 -1
BITMAP
8000
8000
8000
8000
8000
8000
8000
8000
8000
8020
8020
8020
8020
FFC0
ENDCHAR
STARTCHAR uni2F04.dup13
ENCODING 12768
BBX 14 14 1 -1
BITMAP
7FF0
0020
0040
0180
0200
0400
0800
1000
2004
4004
4004
8004
8008
7FF0
ENDCHAR
STARTCHAR uni31E1
ENCODING 12769
BBX 13 14 2 -1
BITMAP
FFE0
0020
0040
0040
0080
00F8
0008
0008
0008
0008
0010
0010
0010
01E0
ENDCHAR
STARTCHAR uni31E2
ENCODING 12770
BBX 11 13 2 -1
BITMAP
0020
0020
0040
0040
0040
0080
0080
0100
0100
8200
8400
9800
6000
ENDCHAR
STARTCHAR uni31E3
ENCODING 12771
BBX 12 7 2 3
BITMAP
1F80
6060
8010
8010
8010
4020
3FC0
ENDCHAR
STARTCHAR uni31F0
ENCODING 12784
BBX 8 10 3 0
BITMAP
10
30
3F
61
41
82
02
04
18
30
ENDCHAR
STARTCHAR uni31F1
ENCODING 12785
BBX 9 9 3 0
BITMAP
4000
2000
1000
C080
2100
0300
0600
1800
6000
ENDCHAR
STARTCHAR uni31F2
ENCODING 12786
BBX 9 8 3 0
BITMAP
7E00
0200
0400
0800
0C00
3200
6100
8080
ENDCHAR
STARTCHAR uni31F3
ENCODING 12787
BBX 6 9 7 0
BITMAP
80
80
80
E0
98
84
80
80
80
ENDCHAR
STARTCHAR uni31F4
ENCODING 12788
BBX 8 8 4 1
BITMAP
7E
02
24
14
0C
12
61
80
ENDCHAR
STARTCHAR uni31F5
ENCODING 12789
BBX 11 6 2 2
BITMAP
1100
2080
2080
6040
4020
8020
ENDCHAR
STARTCHAR uni31F6
ENCODING 12790
BBX 6 8 5 1
BITMAP
80
80
8C
F0
80
80
80
FC
ENDCHAR
STARTCHAR uni31F7
ENCODING 12791
BBX 8 8 3 0
BITMAP
FF
01
01
02
02
04
18
60
ENDCHAR
STARTCHAR uni31F8
ENCODING 12792
BBX 10 6 3 2
BITMAP
1800
2400
4200
8100
0080
0040
ENDCHAR
STARTCHAR uni31F9
ENCODING 12793
BBX 10 9 3 0
BITMAP
0400
0400
FFC0
0400
2500
4480
4480
8440
0400
ENDCHAR
STARTCHAR uni31FA
ENCODING 12794
BBX 10 8 3 1
BITMAP
0800
0800
1000
1000
1200
2100
2380
FC40
ENDCHAR
STARTCHAR uni31FB
ENCODING 12795
BBX 8 9 4 0
BITMAP
7E
00
00
FF
01
02
02
0C
30
ENDCHAR
STARTCHAR uni31FC
ENCODING 12796
BBX 6 9 5 0
BITMAP
84
84
84
84
84
04
0C
18
30
ENDCHAR
STARTCHAR uni31FD
ENCODING 12797
BBX 10 10 3 0
BITMAP
2400
2400
2400
2400
2440
2480
6480
4500
4600
8000
ENDCHAR
STARTCHAR uni31FE
ENCODING 12798
BBX 8 8 5 1
BITMAP
80
80
80
81
82
84
88
F0
ENDCHAR
STARTCHAR uni31FF
ENCODING 12799
BBX 8 7 4 1
BITMAP
FF
81
81
81
81
FF
81
ENDCHAR
STARTCHAR uni322A
ENCODING 12842
BBX 15 15 1 -1
BITMAP
2010
4008
4FE4
8824
8824
8FE2
8822
8822
8FE2
8822
8824
8824
5024
51E8
2010
ENDCHAR
STARTCHAR uni322B
ENCODING 12843
BBX 15 15 1 -1
BITMAP
2010
4108
4104
8104
8914
8912
9322
9342
A282
8282
8444
8444
4824
5018
2010
ENDCHAR
STARTCHAR uni322C
ENCODING 12844
BBX 15 15 1 -1
BITMAP
2010
4108
4104
8104
9D14
8522
8542
8982
8942
8942
9124
9114
610C
4608
2010
ENDCHAR
STARTCHAR uni322D
ENCODING 12845
BBX 15 15 1 -1
BITMAP
2010
4108
4104
8104
9FFC
8382
85C2
8542
8922
8922
9114
A10C
4104
4108
2010
ENDCHAR
STARTCHAR uni322E
ENCODING 12846
BBX 15 15 1 -1
BITMAP
2010
4108
4384
8444
9824
A7DA
8102
8102
9FF2
8102
8924
8544
5FF4
4008
2010
ENDCHAR
STARTCHAR uni322F
ENCODING 12847
BBX 15 15 1 -1
BITMAP
2010
4108
4104
8104
8104
8102
8FE2
8102
8102
8102
8104
8104
5FF4
4008
2010
ENDCHAR
STARTCHAR uni3230
ENCODING 12848
BBX 15 15 1 -1
BITMAP
2010
4008
4FE4
8824
8824
8822
8822
8FE2
8822
8822
8824
8824
4FE4
4828
2010
ENDCHAR
STARTCHAR uni3231
ENCODING 12849
BBX 16 15 0 -1
BITMAP
1008
2824
48A2
49A2
BDFE
8C21
B821
A9FD
A821
C8F1
88AA
4926
4A22
2824
1008
ENDCHAR
STARTCHAR uni3233
ENCODING 12851
BBX 15 15 1 -1
BITMAP
2010
4848
4844
8844
BC44
8442
8BF2
9842
BC42
EA42
8844
8844
4844
4FB8
2010
ENDCHAR
STARTCHAR uni3234
ENCODING 12852
BBX 15 15 1 -1
BITMAP
2010
4108
43E4
8444
8C44
B282
8302
8202
8FE2
B422
8424
8424
47E4
4428
2010
ENDCHAR
STARTCHAR uni3235
ENCODING 12853
BBX 15 15 1 -1
BITMAP
2010
4848
6844
A9F4
BE44
A842
ABFA
AA12
8FFA
B912
8894
8894
4814
48F8
2010
ENDCHAR
STARTCHAR uni3236
ENCODING 12854
BBX 15 15 1 -1
BITMAP
2010
5E18
5214
9214
9FFC
9232
9232
9E52
9252
9E92
8094
9514
5214
61F8
2010
ENDCHAR
STARTCHAR uni3237
ENCODING 12855
BBX 15 15 1 -1
BITMAP
2010
5008
51F4
9114
BD14
8912
91F2
98A2
B4A2
D2A2
912C
912C
522C
5438
2010
ENDCHAR
STARTCHAR uni3238
ENCODING 12856
BBX 15 15 1 -1
BITMAP
2010
4A28
4924
8544
9FF4
9112
9112
8FE2
8122
8222
8224
8424
4844
51C8
2010
ENDCHAR
STARTCHAR uni323A
ENCODING 12858
BBX 15 15 1 -1
BITMAP
2010
4038
5FC4
9454
9654
9662
9562
9442
97FA
9442
9C44
9444
4044
4188
2010
ENDCHAR
STARTCHAR uni323B
ENCODING 12859
BBX 15 15 1 -1
BITMAP
2010
4A18
4A24
8544
9FFC
900A
8FC2
8082
8102
BFFA
8104
8104
4104
4708
2010
ENDCHAR
STARTCHAR uni323C
ENCODING 12860
BBX 15 15 1 -1
BITMAP
2010
4028
5FA4
9244
9F7C
9182
9F02
9272
9F82
8FE2
8AA4
8AA4
4AA4
5FF8
2010
ENDCHAR
STARTCHAR uni323D
ENCODING 12861
BBX 15 15 1 -1
BITMAP
2010
4108
4304
8684
8D64
9932
A10A
8902
89E2
8902
8904
8904
4904
5FF8
2010
ENDCHAR
STARTCHAR uni323E
ENCODING 12862
BBX 15 15 1 -1
BITMAP
2010
4088
4DF4
8254
84E4
BF22
8FFA
8822
8FE2
8822
8FE4
8FE4
46C4
5838
2010
ENDCHAR
STARTCHAR uni323F
ENCODING 12863
BBX 15 15 1 -1
BITMAP
2010
50C8
5084
97F4
B894
9112
9662
9222
97FA
92AA
92CC
94CC
5D54
53B8
2010
ENDCHAR
STARTCHAR uni3240
ENCODING 12864
BBX 15 15 1 -1
BITMAP
2010
4508
4F74
9B94
B6E4
9442
8822
B39A
8002
9FF2
8544
8924
5114
4708
2010
ENDCHAR
STARTCHAR uni3241
ENCODING 12865
BBX 15 15 1 -1
BITMAP
2010
4888
4884
9084
97FC
B0C2
B1C2
D1E2
92A2
94B2
9494
988C
5084
5088
2010
ENDCHAR
STARTCHAR uni3242
ENCODING 12866
BBX 15 15 1 -1
BITMAP
2010
4108
4204
8FE4
8824
8822
8FE2
8822
8822
8FE2
8824
8824
4FE4
4828
2010
ENDCHAR
STARTCHAR uni3243
ENCODING 12867
BBX 15 15 1 -1
BITMAP
2010
4008
5FF4
84C4
8444
8BE2
9C12
8102
8102
9FF2
8104
8104
4104
5FF8
2010
ENDCHAR
STARTCHAR uni3250
ENCODING 12880
BBX 14 12 2 0
BITMAP
EFFC
9240
9240
9240
9240
9278
E240
8240
8240
8240
8240
827C
ENDCHAR
STARTCHAR uni3251
ENCODING 12881
BBX 15 15 1 -1
BITMAP
07C0
1830
2008
5C44
92C4
8242
8242
8442
8442
8842
9844
5EF4
2008
1030
0FC0
ENDCHAR
STARTCHAR uni3252
ENCODING 12882
BBX 15 15 1 -1
BITMAP
07C0
1830
2008
5CE4
9294
8212
8212
8422
8422
8842
98C4
5EF4
2008
1030
0FC0
ENDCHAR
STARTCHAR uni3253
ENCODING 12883
BBX 15 15 1 -1
BITMAP
07C0
1830
2008
5CE4
9214
8212
8232
84E2
8412
8812
9814
44E4
2008
1030
0FC0
ENDCHAR
STARTCHAR uni3254
ENCODING 12884
BBX 15 15 1 -1
BITMAP
07C0
1830
2008
5C64
9264
82E2
82A2
8522
85F2
8822
9824
5E24
2008
1030
0FC0
ENDCHAR
STARTCHAR uni3255
ENCODING 12885
BBX 15 15 1 -1
BITMAP
07C0
1830
2008
5CF4
9284
8282
82E2
8412
8C12
8812
9814
44E4
2008
1030
0FC0
ENDCHAR
STARTCHAR uni3256
ENCODING 12886
BBX 15 15 1 -1
BITMAP
07C0
1830
2008
5C74
9244
8282
82E2
8492
8492
8892
9894
5E64
2008
1030
0FC0
ENDCHAR
STARTCHAR uni3257
ENCODING 12887
BBX 15 15 1 -1
BITMAP
07C0
1830
2008
5CF4
9214
8222
8222
8422
8442
8842
9844
5EC4
2008
1030
0FC0
ENDCHAR
STARTCHAR uni3258
ENCODING 12888
BBX 15 15 1 -1
BITMAP
07C0
1830
2008
5C64
9294
8292
82E2
84A2
8492
8892
9894
5E64
2008
1030
0FC0
ENDCHAR
STARTCHAR uni3259
ENCODING 12889
BBX 15 15 1 -1
BITMAP
07C0
1830
2008
5C64
9294
8292
8292
8472
8C12
8812
9824
44E4
2008
1030
0FC0
ENDCHAR
STARTCHAR uni325A
ENCODING 12890
BBX 15 15 1 -1
BITMAP
07C0
1830
2008
5C64
8294
8292
8692
9C92
8292
8292
8294
5C64
2008
1030
0FC0
ENDCHAR
STARTCHAR uni325B
ENCODING 12891
BBX 15 15 1 -1
BITMAP
07C0
1830
2008
5C64
82A4
8222
8222
8C22
8222
8222
8224
5CF4
2008
1030
0FC0
ENDCHAR
STARTCHAR uni325C
ENCODING 12892
BBX 15 15 1 -1
BITMAP
07C0
1830
2008
5CE4
8294
8212
8612
9C22
8222
8242
8284
5CF4
2008
1030
0FC0
ENDCHAR
STARTCHAR uni325D
ENCODING 12893
BBX 15 15 1 -1
BITMAP
07C0
1830
2008
5CE4
8214
8212
8632
9CE2
8212
8212
8214
5CE4
2008
1030
0FC0
ENDCHAR
STARTCHAR uni325E
ENCODING 12894
BBX 15 15 1 -1
BITMAP
07C0
1830
2008
5C24
8264
8262
86A2
9CA2
82F2
8222
8224
5C24
2008
1030
0FC0
ENDCHAR
STARTCHAR uni325F
ENCODING 12895
BBX 15 15 1 -1
BITMAP
07C0
1830
2008
5CF4
8284
8282
86E2
9C12
8212
8212
8214
5CE4
2008
1030
0FC0
ENDCHAR
STARTCHAR uni3280
ENCODING 12928
BBX 15 15 1 -1
BITMAP
07C0
1830
2008
4004
8004
8002
8002
BFF2
8002
8002
8004
4004
2008
1030
0FC0
ENDCHAR
STARTCHAR uni3281
ENCODING 12929
BBX 15 15 1 -1
BITMAP
07C0
1830
2008
4004
9FE4
8002
8002
8002
8002
8002
BFF4
4004
2008
1030
0FC0
ENDCHAR
STARTCHAR uni3283
ENCODING 12931
BBX 15 15 1 -1
BITMAP
07C0
1830
2008
5FF4
9294
9292
9292
92B2
94F2
9812
9014
5FF4
2008
1030
0FC0
ENDCHAR
STARTCHAR uni3284
ENCODING 12932
BBX 15 15 1 -1
BITMAP
07C0
1830
2008
5FF4
8204
8202
8FE2
8222
8222
8222
8224
5FF4
2008
1030
0FC0
ENDCHAR
STARTCHAR uni3285
ENCODING 12933
BBX 15 15 1 -1
BITMAP
07C0
1830
2108
4104
8104
9FF2
8482
8442
8842
8822
9024
5014
2008
1030
0FC0
ENDCHAR
STARTCHAR uni3286
ENCODING 12934
BBX 15 15 1 -1
BITMAP
07C0
1830
2208
4204
8204
8272
BFC2
A202
8202
8212
8214
43E4
2008
1030
0FC0
ENDCHAR
STARTCHAR uni3287
ENCODING 12935
BBX 15 15 1 -1
BITMAP
07C0
1830
2008
4444
8444
8442
8442
8842
8822
9022
A014
4004
2008
1030
0FC0
ENDCHAR
STARTCHAR uni3288
ENCODING 12936
BBX 15 15 1 -1
BITMAP
07C0
1830
2208
4204
8204
9FC2
8242
8242
844A
844A
884C
5074
2008
1030
0FC0
ENDCHAR
STARTCHAR uni3289
ENCODING 12937
BBX 15 15 1 -1
BITMAP
07C0
1830
2108
4104
8104
8102
BFF2
8102
8102
8102
8104
4104
2108
1030
0FC0
ENDCHAR
STARTCHAR uni3290
ENCODING 12944
BBX 15 15 1 -1
BITMAP
07C0
1830
2008
4FE4
8824
8822
8822
8FE2
8822
8822
8824
4FE4
2828
1030
0FC0
ENDCHAR
STARTCHAR uni3291
ENCODING 12945
BBX 15 15 1 -1
BITMAP
07C0
1830
2848
4944
BDF4
8A42
9E42
9FFA
AA62
A9E2
8954
4A4C
2848
1030
0FC0
ENDCHAR
STARTCHAR uni3292
ENCODING 12946
BBX 15 15 1 -1
BITMAP
07C0
1830
2108
4104
9FF4
8202
87E2
8C22
97E2
A422
87E4
4424
2468
1030
0FC0
ENDCHAR
STARTCHAR uni3293
ENCODING 12947
BBX 15 15 1 -1
BITMAP
07C0
1830
2848
4844
BE44
8442
89F2
8C42
9A42
A942
8844
4BF4
2008
1030
0FC0
ENDCHAR
STARTCHAR uni3294
ENCODING 12948
BBX 15 15 1 -1
BITMAP
07C0
1830
2308
4604
8FE4
B242
8182
8202
9FE2
A422
8424
47E4
2008
1030
0FC0
ENDCHAR
STARTCHAR uni3295
ENCODING 12949
BBX 15 15 1 -1
BITMAP
07C0
1830
2848
4844
99F4
9C42
ABF2
8C22
B9F2
C922
88A4
4824
28E8
1030
0FC0
ENDCHAR
STARTCHAR uni3296
ENCODING 12950
BBX 15 15 1 -1
BITMAP
07C0
1830
2008
5E24
9224
9FF2
9222
9E62
92A2
9EA2
8D24
5224
20E8
1030
0FC0
ENDCHAR
STARTCHAR uni3298
ENCODING 12952
BBX 15 15 1 -1
BITMAP
07C0
1830
2208
5924
8544
9FF2
9112
8102
9FE2
8222
8424
4844
31C8
1030
0FC0
ENDCHAR
STARTCHAR uni329A
ENCODING 12954
BBX 15 15 1 -1
BITMAP
07C0
1830
2008
5FF4
9114
9FF2
9112
9FF2
BFF2
8112
8214
4C14
3068
1030
0FC0
ENDCHAR
STARTCHAR uni329B
ENCODING 12955
BBX 15 15 1 -1
BITMAP
07C0
1830
2208
4404
BFFC
8442
8C42
8882
9E82
8382
8264
5C14
2008
1030
0FC0
ENDCHAR
STARTCHAR uni329C
ENCODING 12956
BBX 15 15 1 -1
BITMAP
07C0
1830
2088
57F4
8944
83F2
9A92
8BD2
8BD2
8B52
8BD4
5464
23F8
1030
0FC0
ENDCHAR
STARTCHAR uni329D
ENCODING 12957
BBX 15 15 1 -1
BITMAP
07C0
1830
2808
53E4
93E4
9222
93E2
B7F2
9772
9792
9664
57E4
3C38
1030
0FC0
ENDCHAR
STARTCHAR uni329E
ENCODING 12958
BBX 15 15 1 -1
BITMAP
07C0
1830
2308
5C04
90F4
9092
9E92
9092
9092
9092
9EB4
5084
2088
1030
0FC0
ENDCHAR
STARTCHAR uni329F
ENCODING 12959
BBX 15 15 1 -1
BITMAP
07C0
1830
2088
5044
8BF4
A882
9082
89E2
8482
8482
8884
57F4
2008
1030
0FC0
ENDCHAR
STARTCHAR uni32A0
ENCODING 12960
BBX 15 15 1 -1
BITMAP
07C0
1830
2008
43F4
9FE4
8A22
8BE2
8A22
8BE2
8E22
9BE4
6324
2418
1030
0FC0
ENDCHAR
STARTCHAR uni32A1
ENCODING 12961
BBX 15 15 1 -1
BITMAP
07C0
1830
2888
4884
8884
9FF2
9882
A9C2
8AC2
8AA2
8C94
4884
2888
1030
0FC0
ENDCHAR
STARTCHAR uni32A2
ENCODING 12962
BBX 15 15 1 -1
BITMAP
07C0
1830
2008
5FF4
9414
87E2
8402
8C02
8FE2
8022
9FF4
4064
21C8
1030
0FC0
ENDCHAR
STARTCHAR uni32A3
ENCODING 12963
BBX 15 14 1 -1
BITMAP
07C0
1830
2008
5FF4
C106
8902
89E2
8902
8902
C906
5FF4
2008
1830
07C0
ENDCHAR
STARTCHAR uni32A9
ENCODING 12969
BBX 15 15 1 -1
BITMAP
07C0
1830
2008
5FF4
9204
93E2
9482
97F2
9182
9262
9C14
5FF4
2008
1030
0FC0
ENDCHAR
STARTCHAR uni32AA
ENCODING 12970
BBX 15 15 1 -1
BITMAP
07C0
1830
2108
5FF4
9014
9FD2
8002
BFF2
8102
8542
8924
7114
2608
1030
0FC0
ENDCHAR
STARTCHAR uni32AB
ENCODING 12971
BBX 15 15 1 -1
BITMAP
07C0
1830
2208
5124
8944
9FF2
9012
9FD2
8182
BFFA
8104
4104
2608
1030
0FC0
ENDCHAR
STARTCHAR uni32AC
ENCODING 12972
BBX 15 15 1 -1
BITMAP
07C0
1830
2048
5FC4
9F74
9182
9F02
9FF2
8002
8FE2
8AA4
5FF4
2008
1030
0FC0
ENDCHAR
STARTCHAR uni32AD
ENCODING 12973
BBX 15 15 1 -1
BITMAP
07C0
1830
2108
46C4
8824
B11A
8102
89E2
8902
8902
8904
5FF4
2008
1030
0FC0
ENDCHAR
STARTCHAR uni32AE
ENCODING 12974
BBX 15 15 1 -1
BITMAP
07C0
1830
3888
47F4
84E4
9B3A
8002
8FE2
8FE2
8FE2
8FE4
46E4
2818
1030
0FC0
ENDCHAR
STARTCHAR uni32AF
ENCODING 12975
BBX 15 15 1 -1
BITMAP
07C0
1830
2888
4BF4
8894
BF12
8C62
8A22
8FF2
8AB2
8AF4
4CD4
2FA8
1030
0FC0
ENDCHAR
STARTCHAR uni32B0
ENCODING 12976
BBX 15 15 1 -1
BITMAP
07C0
1830
2108
5FF4
8904
9102
93E2
96A2
B6C2
99C2
9084
5F74
2008
1030
0FC0
ENDCHAR
STARTCHAR uni32B1
ENCODING 12977
BBX 15 15 1 -1
BITMAP
07C0
1830
2008
5C74
8244
8282
86E2
9C92
8292
8292
8294
5C64
2008
1030
0FC0
ENDCHAR
STARTCHAR uni32B2
ENCODING 12978
BBX 15 15 1 -1
BITMAP
07C0
1830
2008
5CF4
8214
8222
8222
8C22
8262
8242
8244
5CC4
2008
1030
0FC0
ENDCHAR
STARTCHAR uni32B3
ENCODING 12979
BBX 15 15 1 -1
BITMAP
07C0
1830
2008
5C64
8294
8292
8692
9C62
82A2
8292
8294
5C64
2008
1030
0FC0
ENDCHAR
STARTCHAR uni32B4
ENCODING 12980
BBX 15 15 1 -1
BITMAP
07C0
1830
2008
5C64
8294
8292
8692
9C72
8212
8212
8224
5CE4
2008
1030
0FC0
ENDCHAR
STARTCHAR uni32B5
ENCODING 12981
BBX 15 15 1 -1
BITMAP
07C0
1830
2008
4C64
8C94
9C92
9492
A492
BE92
8492
8494
4464
2008
1030
0FC0
ENDCHAR
STARTCHAR uni32B6
ENCODING 12982
BBX 15 15 1 -1
BITMAP
07C0
1830
2008
4C44
8CC4
9C42
9442
A442
BE42
8442
8444
44F4
2008
1030
0FC0
ENDCHAR
STARTCHAR uni32B7
ENCODING 12983
BBX 15 15 1 -1
BITMAP
07C0
1830
2008
4CE4
8C14
9C12
9412
A422
BE22
8442
84C4
44F4
2008
1030
0FC0
ENDCHAR
STARTCHAR uni32B8
ENCODING 12984
BBX 15 15 1 -1
BITMAP
07C0
1830
2008
4CE4
8C14
9C12
9432
A4E2
BE12
8412
8414
44E4
2008
1030
0FC0
ENDCHAR
STARTCHAR uni32B9
ENCODING 12985
BBX 15 15 1 -1
BITMAP
07C0
1830
2008
4C64
8C64
9CE2
94A2
A522
BFF2
8422
8424
4424
2008
1030
0FC0
ENDCHAR
STARTCHAR uni32BA
ENCODING 12986
BBX 15 15 1 -1
BITMAP
07C0
1830
2008
4CF4
8C84
9C82
94E2
A412
BE12
8412
8414
44E4
2008
1030
0FC0
ENDCHAR
STARTCHAR uni32BC
ENCODING 12988
BBX 15 15 1 -1
BITMAP
07C0
1830
2008
4CF4
8C14
9422
9422
A422
BE62
8442
8444
44C4
2008
1030
0FC0
ENDCHAR
STARTCHAR uni32BD
ENCODING 12989
BBX 15 15 1 -1
BITMAP
07C0
1830
2008
4C64
8C94
9C92
94E2
A4A2
BE92
8492
8494
4464
2008
1030
0FC0
ENDCHAR
STARTCHAR uni32BE
ENCODING 12990
BBX 15 15 1 -1
BITMAP
07C0
1830
2008
4C64
8C94
9C92
9492
A472
BE12
8412
8424
44E4
2008
1030
0FC0
ENDCHAR
STARTCHAR uni32BF
ENCODING 12991
BBX 15 15 1 -1
BITMAP
07C0
1830
2008
5E64
9094
9092
9C92
8292
8292
8292
8294
5C64
2008
1030
0FC0
ENDCHAR
STARTCHAR uni32C0
ENCODING 12992
BBX 13 12 2 0
BITMAP
21F8
E108
2108
21F8
2108
2108
2108
21F8
2108
2108
2308
FA70
ENDCHAR
STARTCHAR uni32C1
ENCODING 12993
BBX 14 12 1 0
BITMAP
38FC
4484
0484
0484
04FC
0884
1884
10FC
2084
4084
C184
FD3C
ENDCHAR
STARTCHAR uni32C2
ENCODING 12994
BBX 14 12 1 0
BITMAP
78FC
4484
0484
0484
0CFC
7884
0884
04FC
0484
0504
8904
F23C
ENDCHAR
STARTCHAR uni32C3
ENCODING 12995
BBX 14 12 1 0
BITMAP
18FC
1884
1884
28FC
2884
4884
4884
88FC
FC84
0904
0904
0A3C
ENDCHAR
STARTCHAR uni32C4
ENCODING 12996
BBX 14 12 1 0
BITMAP
7EFC
4084
4084
40FC
4084
7884
0484
02FC
0284
0284
8584
F93C
ENDCHAR
STARTCHAR uni32C5
ENCODING 12997
BBX 14 12 1 0
BITMAP
3CFC
6484
4084
80FC
8084
B884
C484
84FC
8484
8504
4D04
3A3C
ENDCHAR
STARTCHAR uni32C6
ENCODING 12998
BBX 14 12 1 0
BITMAP
FCFC
0484
0884
08FC
0884
1084
1084
10FC
2084
2104
2104
423C
ENDCHAR
STARTCHAR uni32C7
ENCODING 12999
BBX 14 12 1 0
BITMAP
78FC
C484
8484
8484
48FC
3084
4884
84FC
8484
8504
CD04
7A3C
ENDCHAR
STARTCHAR uni32C8
ENCODING 13000
BBX 14 12 1 0
BITMAP
38FC
4484
8284
82FC
8284
8284
4684
3AFC
0284
0484
8D84
F13C
ENDCHAR
STARTCHAR uni32C9
ENCODING 13001
BBX 14 12 1 0
BITMAP
4E7C
CA44
5144
517C
5144
5144
5144
517C
5144
5144
5B44
EE9C
ENDCHAR
STARTCHAR uni32CA
ENCODING 13002
BBX 14 12 1 0
BITMAP
447C
CC44
4444
4444
447C
4444
4444
447C
4444
4444
4444
FF9C
ENDCHAR
STARTCHAR uni32CB
ENCODING 13003
BBX 14 12 1 0
BITMAP
4E7C
C944
4144
4144
417C
4244
4244
427C
4444
4444
4844
EF9C
ENDCHAR
STARTCHAR uni32CC
ENCODING 13004
BBX 14 15 1 -3
BITMAP
8400
8400
8400
8474
848C
8584
FD04
8504
8504
8584
848C
8474
0004
008C
00F8
ENDCHAR
STARTCHAR uni32CD
ENCODING 13005
BBX 15 12 0 -3
BITMAP
72DE
5B16
CB32
8A22
FA22
8222
8222
5236
721E
0002
0016
001C
ENDCHAR
STARTCHAR uni32CE
ENCODING 13006
BBX 14 12 1 0
BITMAP
0104
018C
0088
3C88
6688
C298
8250
FE50
8050
C050
4420
3C20
ENDCHAR
STARTCHAR uni32CF
ENCODING 13007
BBX 14 12 1 0
BITMAP
9FF0
8498
848C
8484
8484
8484
8484
8484
8484
848C
8498
F4F0
ENDCHAR
STARTCHAR uni32D0
ENCODING 13008
BBX 15 15 1 -1
BITMAP
07C0
1830
2008
4004
9FF4
8022
8162
8182
8102
8102
8204
4204
2C08
1030
0FC0
ENDCHAR
STARTCHAR uni32D1
ENCODING 13009
BBX 15 15 1 -1
BITMAP
07C0
1830
2028
4044
8084
8102
8702
8902
B102
8102
8104
4104
2108
1030
0FC0
ENDCHAR
STARTCHAR uni32D2
ENCODING 13010
BBX 15 15 1 -1
BITMAP
07C0
1830
2108
4104
9FF4
9012
9012
9022
8022
8022
8044
4184
2608
1030
0FC0
ENDCHAR
STARTCHAR uni32D3
ENCODING 13011
BBX 15 15 1 -1
BITMAP
07C0
1830
2008
4004
9FF4
8102
8102
8102
8102
8102
BFF4
4004
2008
1030
0FC0
ENDCHAR
STARTCHAR uni32D4
ENCODING 13012
BBX 15 15 1 -1
BITMAP
07C0
1830
2088
4084
8084
BFFA
8082
8382
8482
8882
9084
4084
2388
1030
0FC0
ENDCHAR
STARTCHAR uni32D5
ENCODING 13013
BBX 15 15 1 -1
BITMAP
07C0
1830
2108
4104
8104
9FF2
8112
8112
8212
8622
8C24
50E4
2008
1030
0FC0
ENDCHAR
STARTCHAR uni32D6
ENCODING 13014
BBX 15 15 1 -1
BITMAP
07C0
1830
2408
4404
8264
8F82
9102
813A
8FC2
B102
8104
4104
2088
1030
0FC0
ENDCHAR
STARTCHAR uni32D7
ENCODING 13015
BBX 15 15 1 -1
BITMAP
07C0
1830
2208
4404
87E4
8422
8822
8842
9042
8082
8104
4604
2C08
1030
0FC0
ENDCHAR
STARTCHAR uni32D8
ENCODING 13016
BBX 15 15 1 -1
BITMAP
07C0
1830
2408
4404
8804
8FF2
9082
9082
A102
8102
8104
4204
2408
1030
0FC0
ENDCHAR
STARTCHAR uni32D9
ENCODING 13017
BBX 15 15 1 -1
BITMAP
07C0
1830
2008
4004
9FE4
8022
8022
8022
8022
8022
9FE4
4024
2008
1030
0FC0
ENDCHAR
STARTCHAR uni32DA
ENCODING 13018
BBX 15 15 1 -1
BITMAP
07C0
1830
2048
4444
8444
8442
BFFA
8442
8442
8042
8084
4104
2608
1030
0FC0
ENDCHAR
STARTCHAR uni32DB
ENCODING 13019
BBX 15 15 1 -1
BITMAP
07C0
1830
2008
4404
8204
8112
9822
8622
8042
8182
8604
5804
2008
1030
0FC0
ENDCHAR
STARTCHAR uni32DC
ENCODING 13020
BBX 15 15 1 -1
BITMAP
07C0
1830
2008
4FE4
8024
8042
8082
8102
8182
8242
8C24
5014
2008
1030
0FC0
ENDCHAR
STARTCHAR uni32DD
ENCODING 13021
BBX 15 15 1 -1
BITMAP
07C0
1830
2008
4404
8404
8472
9F92
9422
8442
8482
8404
43F4
2008
1030
0FC0
ENDCHAR
STARTCHAR uni32DE
ENCODING 13022
BBX 15 15 1 -1
BITMAP
07C0
1830
2008
4024
9024
8822
8842
8442
8042
8082
8084
4304
2408
1030
0FC0
ENDCHAR
STARTCHAR uni32DF
ENCODING 13023
BBX 15 15 1 -1
BITMAP
07C0
1830
2208
4404
87E4
8822
9022
A642
81C2
81C2
8324
4604
2808
1030
0FC0
ENDCHAR
STARTCHAR uni32E0
ENCODING 13024
BBX 15 15 1 -1
BITMAP
07C0
1830
2068
5F84
8104
8102
8102
BFFA
8102
8102
8204
4604
2808
1030
0FC0
ENDCHAR
STARTCHAR uni32E1
ENCODING 13025
BBX 15 15 1 -1
BITMAP
07C0
1830
2008
4214
9214
9112
8922
8822
8022
8042
8084
4304
2C08
1030
0FC0
ENDCHAR
STARTCHAR uni32E2
ENCODING 13026
BBX 15 15 1 -1
BITMAP
07C0
1830
2008
4FE4
8004
8002
BFFA
8102
8102
8202
8204
4404
2808
1030
0FC0
ENDCHAR
STARTCHAR uni32E3
ENCODING 13027
BBX 15 15 1 -1
BITMAP
07C0
1830
2208
4204
8204
8202
8382
8242
8232
8202
8204
4204
2208
1030
0FC0
ENDCHAR
STARTCHAR uni32E4
ENCODING 13028
BBX 15 15 1 -1
BITMAP
07C0
1830
2108
4104
8104
8102
BFFA
8102
8102
8102
8204
4604
2808
1030
0FC0
ENDCHAR
STARTCHAR uni32E5
ENCODING 13029
BBX 15 15 1 -1
BITMAP
07C0
1830
2008
4004
8FE4
8002
8002
8002
8002
8002
BFF4
4004
2008
1030
0FC0
ENDCHAR
STARTCHAR uni32E6
ENCODING 13030
BBX 15 15 1 -1
BITMAP
07C0
1830
2008
4004
8FE4
8022
8C42
8342
80C2
8122
8214
4C04
2008
1030
0FC0
ENDCHAR
STARTCHAR uni32E7
ENCODING 13031
BBX 15 15 1 -1
BITMAP
07C0
1830
2108
4104
9FE4
8042
8082
8142
8732
890A
B104
4104
2108
1030
0FC0
ENDCHAR
STARTCHAR uni32E8
ENCODING 13032
BBX 15 15 1 -1
BITMAP
07C0
1830
2008
4044
8044
8042
8082
8082
8102
8102
8204
4C04
2008
1030
0FC0
ENDCHAR
STARTCHAR uni32E9
ENCODING 13033
BBX 15 15 1 -1
BITMAP
07C0
1830
2008
4484
8484
8842
8842
8822
9022
9012
A014
4004
2008
1030
0FC0
ENDCHAR
STARTCHAR uni32EA
ENCODING 13034
BBX 15 15 1 -1
BITMAP
07C0
1830
2008
4804
8804
8822
89C2
8E02
8802
8802
8804
47F4
2008
1030
0FC0
ENDCHAR
STARTCHAR uni32EB
ENCODING 13035
BBX 15 15 1 -1
BITMAP
07C0
1830
2008
4004
9FF4
8012
8012
8022
8022
8042
8084
4304
2C08
1030
0FC0
ENDCHAR
STARTCHAR uni32EC
ENCODING 13036
BBX 15 15 1 -1
BITMAP
07C0
1830
2008
4004
8204
8502
8882
90C2
A062
8032
800C
4004
2008
1030
0FC0
ENDCHAR
STARTCHAR uni32ED
ENCODING 13037
BBX 15 15 1 -1
BITMAP
07C0
1830
2108
4104
8104
BFF2
8542
8D22
8922
9112
A114
4104
2108
1030
0FC0
ENDCHAR
STARTCHAR uni32EE
ENCODING 13038
BBX 15 15 1 -1
BITMAP
07C0
1830
2008
4004
9FF4
8012
8022
8842
8682
8302
8184
4084
2048
1030
0FC0
ENDCHAR
STARTCHAR uni32EF
ENCODING 13039
BBX 15 15 1 -1
BITMAP
07C0
1830
2008
4F04
80E4
8002
8E02
81E2
8002
9802
8784
4064
2008
1030
0FC0
ENDCHAR
STARTCHAR uni32F0
ENCODING 13040
BBX 15 15 1 -1
BITMAP
07C0
1830
2208
4204
8204
8402
8482
8442
8442
8822
99E4
4614
2008
1030
0FC0
ENDCHAR
STARTCHAR uni32F1
ENCODING 13041
BBX 15 15 1 -1
BITMAP
07C0
1830
2028
4024
8024
8C42
8342
80C2
8122
8112
8204
4404
2808
1030
0FC0
ENDCHAR
STARTCHAR uni32F2
ENCODING 13042
BBX 15 15 1 -1
BITMAP
07C0
1830
2008
4004
9FE4
8202
8202
BFFA
8202
8202
8204
43E4
2008
1030
0FC0
ENDCHAR
STARTCHAR uni32F3
ENCODING 13043
BBX 15 15 1 -1
BITMAP
07C0
1830
2408
4404
8274
8392
8E22
B222
8242
8202
8104
4104
2108
1030
0FC0
ENDCHAR
STARTCHAR uni32F4
ENCODING 13044
BBX 15 15 1 -1
BITMAP
07C0
1830
2008
4004
8FE4
8022
8022
8022
8022
8022
BFF4
4004
2008
1030
0FC0
ENDCHAR
STARTCHAR uni32F5
ENCODING 13045
BBX 15 15 1 -1
BITMAP
07C0
1830
2008
5FF4
8014
8012
8012
8FF2
8012
8012
9FF4
4014
2008
1030
0FC0
ENDCHAR
STARTCHAR uni32F6
ENCODING 13046
BBX 15 15 1 -1
BITMAP
07C0
1830
2008
4FE4
8004
8002
9FF2
8012
8022
8062
80C4
4104
2608
1030
0FC0
ENDCHAR
STARTCHAR uni32F7
ENCODING 13047
BBX 15 15 1 -1
BITMAP
07C0
1830
2008
4424
8424
8422
8422
8422
8422
8042
8044
4084
2308
1030
0FC0
ENDCHAR
STARTCHAR uni32F8
ENCODING 13048
BBX 15 15 1 -1
BITMAP
07C0
1830
2008
4084
8484
8482
8482
848A
8492
88A2
88C4
5004
2008
1030
0FC0
ENDCHAR
STARTCHAR uni32F9
ENCODING 13049
BBX 15 15 1 -1
BITMAP
07C0
1830
2008
4404
8404
8402
8402
8412
8422
8462
8484
4704
2008
1030
0FC0
ENDCHAR
STARTCHAR uni32FA
ENCODING 13050
BBX 15 15 1 -1
BITMAP
07C0
1830
2008
4004
9FF4
9012
9012
9012
9012
9012
9FF4
5014
2008
1030
0FC0
ENDCHAR
STARTCHAR uni32FB
ENCODING 13051
BBX 15 15 1 -1
BITMAP
07C0
1830
2008
4004
9FF4
9012
9012
8012
8022
8022
8044
4084
2308
1030
0FC0
ENDCHAR
STARTCHAR uni32FC
ENCODING 13052
BBX 15 15 1 -1
BITMAP
07C0
1830
2088
4084
9FF4
8882
8882
8882
8882
BFFA
8084
4084
2088
1030
0FC0
ENDCHAR
STARTCHAR uni32FD
ENCODING 13053
BBX 15 15 1 -1
BITMAP
07C0
1830
2008
5FF4
8014
8022
8142
8182
8102
8102
8104
5FFC
2008
1030
0FC0
ENDCHAR
STARTCHAR uni32FE
ENCODING 13054
BBX 15 15 1 -1
BITMAP
07C0
1830
2008
5FF4
8014
8012
8022
8FE2
8022
8042
8084
4304
2C08
1030
0FC0
ENDCHAR
STARTCHAR uni3385
ENCODING 13189
BBX 13 12 2 0
BITMAP
8DE0
9930
9110
B110
E130
C1E0
C130
A118
B108
9118
8910
8DE0
ENDCHAR
STARTCHAR uni3386
ENCODING 13190
BBX 14 12 1 0
BITMAP
84F0
C498
CC88
CC88
CC98
CCF0
AC8C
B484
B484
B484
B48C
94F8
ENDCHAR
STARTCHAR uni3387
ENCODING 13191
BBX 14 12 1 0
BITMAP
3CF0
6498
4088
C088
8098
80F0
8C8C
8484
C484
4484
648C
3CF8
ENDCHAR
STARTCHAR uni338E
ENCODING 13198
BBX 14 12 1 -3
BITMAP
FCF4
958C
9504
9504
9504
9504
9504
958C
94F4
0004
0008
00F0
ENDCHAR
STARTCHAR uni338F
ENCODING 13199
BBX 14 15 1 -3
BITMAP
8000
8000
8000
84F4
898C
910C
A104
C104
A104
910C
8D8C
86F4
0008
0008
00F0
ENDCHAR
STARTCHAR uni339C
ENCODING 13212
BBX 14 9 1 0
BITMAP
FCFC
9494
9494
9494
9494
9494
9494
9494
9494
ENDCHAR
STARTCHAR uni339D
ENCODING 13213
BBX 13 9 1 0
BITMAP
39D0
4170
4128
4128
8128
4128
4128
4128
3928
ENDCHAR
STARTCHAR uni339E
ENCODING 13214
BBX 14 12 1 0
BITMAP
8000
8000
8000
95B8
9644
A444
A444
C444
A444
A444
9444
8C44
ENDCHAR
STARTCHAR uni33A1
ENCODING 13217
BBX 12 12 2 0
BITMAP
0070
0010
0020
B770
C880
8880
8880
8880
8880
8880
8880
8880
ENDCHAR
STARTCHAR uni33C4
ENCODING 13252
BBX 14 9 1 0
BITMAP
3C3C
6244
4080
8080
8100
8180
C080
62C4
3C3C
ENDCHAR
STARTCHAR uni33CB
ENCODING 13259
BBX 12 12 2 0
BITMAP
83E0
8230
8210
8210
8210
FE30
83E0
8200
8200
8200
8200
8200
ENDCHAR
STARTCHAR uni33CC
ENCODING 13260
BBX 13 12 1 0
BITMAP
3000
2000
0000
0000
E170
2188
2108
2108
2108
2108
2108
F908
ENDCHAR
STARTCHAR uni33CE
ENCODING 13262
BBX 12 11 2 1
BITMAP
8610
8B30
9330
A370
C2D0
C250
A210
A210
9210
8A10
8610
ENDCHAR
STARTCHAR uni33D1
ENCODING 13265
BBX 10 11 3 1
BITMAP
8000
8000
8000
8B80
8C40
8840
8840
8840
8840
8840
8840
ENDCHAR
STARTCHAR uni33D2
ENCODING 13266
BBX 12 16 2 -4
BITMAP
8000
8000
8000
98F0
A590
A510
A510
A510
A510
A590
98F0
0010
0010
0010
0130
00E0
ENDCHAR
STARTCHAR uni33D4
ENCODING 13268
BBX 14 9 1 1
BITMAP
0040
0040
B658
D964
9144
9144
9144
916C
9178
ENDCHAR
STARTCHAR uni33D5
ENCODING 13269
BBX 13 11 2 1
BITMAP
0008
0048
0008
0008
FE48
9248
9248
9248
9248
9248
9248
ENDCHAR
STARTCHAR uni33D7
ENCODING 13271
BBX 14 15 1 -3
BITMAP
0084
0084
0084
0084
B884
CC84
84FC
8484
8484
8484
CC84
B884
8000
8000
8000
ENDCHAR
STARTCHAR uni33D9
ENCODING 13273
BBX 14 12 1 0
BITMAP
E644
B544
9544
956C
956C
B56C
E76C
846C
8474
8454
8454
8454
ENDCHAR
STARTCHAR uni33DA
ENCODING 13274
BBX 14 12 1 0
BITMAP
F9F0
8D18
8508
8508
8508
8D10
F9E0
8130
8118
8108
810C
8104
ENDCHAR
STARTCHAR uni33DE
ENCODING 13278
BBX 16 12 0 0
BITMAP
C4C0
4880
4900
7900
3200
3566
0599
0911
1911
1111
2111
6111
ENDCHAR
STARTCHAR uni33DF
ENCODING 13279
BBX 15 12 0 0
BITMAP
7040
0880
7980
C900
8A00
9ADC
6F32
0622
0A22
1A22
1222
2222
ENDCHAR
STARTCHAR uni3400
ENCODING 13312
BBX 14 14 1 -1
BITMAP
0440
0440
0440
0440
FC7C
0440
0440
0440
0440
0440
0440
0440
0440
FFFC
ENDCHAR
STARTCHAR uni3401
ENCODING 13313
BBX 14 14 1 -1
BITMAP
FFFC
0200
0200
7FF8
4208
4208
4508
4C88
5848
6028
4008
4008
7FF8
4008
ENDCHAR
STARTCHAR uni3402
ENCODING 13314
BBX 14 14 1 -1
BITMAP
0400
041C
FFE0
0404
0404
07F8
0000
2040
2040
FDFC
2040
2044
2644
3878
ENDCHAR
STARTCHAR uni3403
ENCODING 13315
BBX 14 14 1 -1
BITMAP
0300
0480
0840
1020
2010
4008
FFFC
0100
0100
0100
0100
0100
0100
0100
ENDCHAR
STARTCHAR uni3404
ENCODING 13316
BBX 13 14 2 -1
BITMAP
0100
0100
0100
FFF8
4100
4100
4100
8100
8100
FFF8
0100
0100
0100
0100
ENDCHAR
STARTCHAR uni3405
ENCODING 13317
BBX 14 15 1 -1
BITMAP
0010
0010
4020
2020
1040
0840
06C0
0380
0180
0240
0660
0C30
1010
6008
C004
ENDCHAR
STARTCHAR uni3406
ENCODING 13318
BBX 14 14 1 -1
BITMAP
000C
3FF0
2000
3FF8
2008
3FF8
2008
3FF8
3FFC
4004
4004
4004
4004
80F8
ENDCHAR
STARTCHAR uni3407
ENCODING 13319
BBX 14 14 1 -1
BITMAP
0400
7FE0
0420
0420
0824
3024
C03C
7FF0
00C0
0700
1800
2004
4004
7FF8
ENDCHAR
STARTCHAR uni3408
ENCODING 13320
BBX 14 14 1 -1
BITMAP
0600
0100
0680
0860
3030
C00C
0000
7FF0
00C0
0300
0C00
3004
4004
7FF8
ENDCHAR
STARTCHAR uni3409
ENCODING 13321
BBX 14 14 1 -1
BITMAP
FFFC
0100
0100
0100
0100
0F00
0000
7FF8
00E0
0300
1C00
2004
4004
7FF8
ENDCHAR
STARTCHAR uni340A
ENCODING 13322
BBX 14 14 1 -1
BITMAP
0100
0100
FFFC
0100
0100
3FF8
0000
7FF8
00E0
0700
1800
6004
4004
7FF8
ENDCHAR
STARTCHAR uni340B
ENCODING 13323
BBX 14 14 1 -1
BITMAP
0100
0100
3FF8
0100
0100
FFFC
0000
7FF0
00C0
0300
1C00
2004
4004
7FF8
ENDCHAR
STARTCHAR uni340C
ENCODING 13324
BBX 14 14 1 -1
BITMAP
0800
1000
1FFC
2000
4100
9178
1F88
7108
1110
1110
1100
1104
1004
1FF8
ENDCHAR
STARTCHAR uni340D
ENCODING 13325
BBX 13 14 2 -1
BITMAP
0018
FFE0
0410
4420
2220
2240
0000
FFF0
00C0
0700
1800
6008
8008
FFF0
ENDCHAR
STARTCHAR uni340E
ENCODING 13326
BBX 14 14 1 -1
BITMAP
0300
FFFC
1820
04C0
0380
0C60
F01C
7FF0
00C0
0300
1C00
2004
4004
7FF8
ENDCHAR
STARTCHAR uni340F
ENCODING 13327
BBX 14 14 1 -1
BITMAP
FFFC
0400
0400
7FF0
0810
0810
FFFC
0000
7FF0
00C0
0700
3804
4004
7FF8
ENDCHAR
STARTCHAR uni3410
ENCODING 13328
BBX 14 15 1 -1
BITMAP
1000
11F8
FC88
2490
4450
6820
3850
C58C
7FF0
00E0
0300
1C00
6004
4004
3FF8
ENDCHAR
STARTCHAR uni3411
ENCODING 13329
BBX 14 14 1 -1
BITMAP
0400
0FF0
3820
47C0
FCFC
07C0
0E00
01C0
7FF0
00C0
0F00
3004
4004
7FF8
ENDCHAR
STARTCHAR uni3412
ENCODING 13330
BBX 14 14 1 -1
BITMAP
7FF8
0608
F838
0000
3FF8
2008
3FF8
0000
3FF0
01C0
0E00
3004
4004
7FF8
ENDCHAR
STARTCHAR uni3413
ENCODING 13331
BBX 14 14 1 -1
BITMAP
FFFC
0010
3F90
2090
2090
3F90
0030
7FF0
00E0
0300
0C00
3004
4004
7FF8
ENDCHAR
STARTCHAR uni3414
ENCODING 13332
BBX 14 14 1 -1
BITMAP
0100
FFFC
0000
3FF0
2010
2010
3FF0
0000
3FF8
00C0
0700
3804
4004
7FF8
ENDCHAR
STARTCHAR uni3415
ENCODING 13333
BBX 13 14 2 -1
BITMAP
0200
7FF0
4210
7FF0
4210
4210
7FF0
0000
FFF0
01C0
0E00
7008
8008
FFF0
ENDCHAR
STARTCHAR uni3416
ENCODING 13334
BBX 14 14 1 -1
BITMAP
0880
0880
FE80
0880
0880
7E80
0080
0080
7E80
4284
4284
4284
7E84
42F8
ENDCHAR
STARTCHAR uni3417
ENCODING 13335
BBX 14 14 1 -1
BITMAP
0108
3FD0
0160
FFFC
0730
FFC0
0808
0FF8
3FF0
00C0
0700
1804
2004
3FF8
ENDCHAR
STARTCHAR uni3418
ENCODING 13336
BBX 14 14 1 -1
BITMAP
3118
0D60
0100
FFFC
0780
1970
E00C
3FF0
00C0
0300
0C00
1004
2004
3FF8
ENDCHAR
STARTCHAR uni3419
ENCODING 13337
BBX 13 14 2 -1
BITMAP
FFF8
0000
7FF0
4010
7FF0
1040
FFF8
0000
3FE0
0180
0E00
3008
4008
7FF0
ENDCHAR
STARTCHAR uni341A
ENCODING 13338
BBX 13 14 2 -1
BITMAP
7FF8
0800
7FE0
1020
FFF8
3FE0
2020
3FE0
0000
3FE0
0380
1C08
6008
7FF0
ENDCHAR
STARTCHAR uni341B
ENCODING 13339
BBX 14 14 1 -1
BITMAP
1080
2FFC
6100
63F8
A608
2A08
23F8
0000
3FF0
00C0
0700
1804
2004
3FF8
ENDCHAR
STARTCHAR uni341C
ENCODING 13340
BBX 14 14 1 -1
BITMAP
1440
1240
1040
7FF0
1050
5150
3250
1450
3050
7490
5294
9394
1114
3218
ENDCHAR
STARTCHAR uni341D
ENCODING 13341
BBX 14 14 1 -1
BITMAP
1080
FBFC
1604
39F4
D114
11F4
7004
0018
3FF0
00C0
0700
1804
2004
3FF8
ENDCHAR
STARTCHAR uni341E
ENCODING 13342
BBX 14 14 1 -1
BITMAP
1020
7FF8
1020
1FE0
1FE0
1020
FFFC
1020
7FF8
8184
0E00
1008
2008
3FF0
ENDCHAR
STARTCHAR uni341F
ENCODING 13343
BBX 14 14 1 -1
BITMAP
0480
FCFC
0480
7CF8
0480
FCFC
0480
3FF0
00C0
0700
1800
6004
4004
7FF8
ENDCHAR
STARTCHAR uni3420
ENCODING 13344
BBX 14 14 1 -1
BITMAP
0740
F940
6E40
FF40
0F40
FC44
0844
3878
0000
3FF0
01C0
0E04
3004
3FF8
ENDCHAR
STARTCHAR uni3421
ENCODING 13345
BBX 14 14 1 -1
BITMAP
27FC
2040
23F8
FAA8
2AA8
2AA8
2AB8
2820
2FFC
2860
4890
490C
4E04
8FF8
ENDCHAR
STARTCHAR uni3422
ENCODING 13346
BBX 14 14 1 -1
BITMAP
600C
1FF0
06CC
E7F8
0030
1FFC
2040
41C0
8000
3FF0
0180
0E04
3004
3FF8
ENDCHAR
STARTCHAR uni3423
ENCODING 13347
BBX 14 14 1 -1
BITMAP
0080
7FFC
4080
5FFC
4FF8
4FF8
4888
4FF8
5FFC
5FF0
40C0
4304
8C04
8FF8
ENDCHAR
STARTCHAR uni3424
ENCODING 13348
BBX 14 14 1 -1
BITMAP
2040
27F8
2040
FBF0
2BF0
2A10
2BF0
2A10
2BF0
4BFC
4820
4994
CB0C
8FF8
ENDCHAR
STARTCHAR uni3425
ENCODING 13349
BBX 14 14 1 -1
BITMAP
2790
5C90
F7BC
2494
FF94
BCA4
74A4
CF58
0000
7FF0
0380
1C04
6004
7FF8
ENDCHAR
STARTCHAR uni3426
ENCODING 13350
BBX 14 14 1 -1
BITMAP
3478
77F8
4788
74F8
FFFC
1FE0
7FF8
8204
3FF0
0E00
7FF0
0704
7804
7FF8
ENDCHAR
STARTCHAR uni3427
ENCODING 13351
BBX 14 14 1 -1
BITMAP
0100
4100
3100
0900
0100
FFFC
0104
0304
0508
0900
1100
6100
8100
0F00
ENDCHAR
STARTCHAR uni3428
ENCODING 13352
BBX 14 14 1 -1
BITMAP
FEFC
0204
4488
3870
0810
FFFC
1224
1224
1428
1428
1020
1020
1020
70E0
ENDCHAR
STARTCHAR uni3429
ENCODING 13353
BBX 14 14 1 -1
BITMAP
2490
2490
2490
7FFC
2490
2490
2490
2490
FFFC
2490
2490
4510
4510
8610
ENDCHAR
STARTCHAR uni342A
ENCODING 13354
BBX 15 14 0 -1
BITMAP
0080
0080
FFFE
0080
2084
2084
2084
2084
3FFC
0104
0280
0440
1830
E00E
ENDCHAR
STARTCHAR uni342B
ENCODING 13355
BBX 13 14 2 -1
BITMAP
0400
0200
FFF8
0000
5050
4890
4510
4210
4710
4C90
5890
6050
7FF0
0010
ENDCHAR
STARTCHAR uni342C
ENCODING 13356
BBX 14 14 1 -1
BITMAP
0400
0200
FFFC
0200
0C80
3060
7FF0
0008
1220
1220
1220
2220
6220
C23C
ENDCHAR
STARTCHAR uni342D
ENCODING 13357
BBX 14 15 1 -1
BITMAP
0200
0100
FFFC
0000
0000
7FF8
4008
4FC8
4848
4848
4848
4FC8
4008
7FF8
4008
ENDCHAR
STARTCHAR uni342E
ENCODING 13358
BBX 14 15 1 -1
BITMAP
0200
0100
FFFC
0C60
F038
0844
7FFC
0840
7FF8
0840
FFFC
0710
18E0
EB20
0C1C
ENDCHAR
STARTCHAR uni342F
ENCODING 13359
BBX 14 16 1 -2
BITMAP
0180
FFFC
1FF0
1010
1FF0
3FF8
3FF8
0000
7FF0
FFFC
0D40
FFF0
101C
1FF0
1FF0
1010
ENDCHAR
STARTCHAR uni3430
ENCODING 13360
BBX 13 13 1 0
BITMAP
1000
37F8
2408
2408
6408
A408
A408
2408
2408
2408
2408
27F8
2408
ENDCHAR
STARTCHAR uni3431
ENCODING 13361
BBX 14 14 1 -1
BITMAP
0100
0380
04C0
08E0
3110
C62C
1840
6088
0310
0C20
30C0
0100
0E00
7000
ENDCHAR
STARTCHAR uni3432
ENCODING 13362
BBX 14 14 1 -1
BITMAP
1080
3080
2080
2080
6FF8
A080
A140
2140
2140
2220
2220
2410
2808
3004
ENDCHAR
STARTCHAR uni3433
ENCODING 13363
BBX 14 14 1 -1
BITMAP
1000
3FFC
2240
2240
6240
A240
A240
2240
2240
2440
2444
2444
2844
3078
ENDCHAR
STARTCHAR uni3434
ENCODING 13364
BBX 14 14 1 -1
BITMAP
0880
1080
1100
21FC
6204
6204
A508
2888
2070
2010
2020
20C0
2300
2C00
ENDCHAR
STARTCHAR uni3435
ENCODING 13365
BBX 14 14 1 -1
BITMAP
1FF8
3080
2080
2080
6080
6FFC
A080
2080
2080
2080
2080
2080
2080
2380
ENDCHAR
STARTCHAR uni3436
ENCODING 13366
BBX 14 15 1 -1
BITMAP
1000
17F8
2408
2408
6408
6408
A408
A7F8
2400
2400
2400
2404
2404
2404
27F8
ENDCHAR
STARTCHAR uni3437
ENCODING 13367
BBX 14 14 1 -1
BITMAP
1FF0
1010
2410
2410
6410
6410
A7FC
2004
2004
2FF4
2004
2004
2004
2038
ENDCHAR
STARTCHAR uni3438
ENCODING 13368
BBX 14 14 1 -1
BITMAP
1100
3100
23F8
2208
6448
A448
A850
2040
2040
20A0
21A0
2310
2608
2804
ENDCHAR
STARTCHAR uni3439
ENCODING 13369
BBX 14 14 1 -1
BITMAP
1100
1200
27FC
2C00
73F8
A000
A000
2FF0
2010
2010
2014
2014
2014
2008
ENDCHAR
STARTCHAR uni343A
ENCODING 13370
BBX 14 14 1 -1
BITMAP
1240
3640
2440
2440
6C40
6C40
B440
2440
2460
24A0
2490
2590
2508
2604
ENDCHAR
STARTCHAR uni343B
ENCODING 13371
BBX 14 14 1 -1
BITMAP
11C0
3040
2040
27FC
6444
6444
A4A4
24A4
2514
2514
260C
2404
2404
241C
ENDCHAR
STARTCHAR uni343C
ENCODING 13372
BBX 14 14 1 -1
BITMAP
10A0
3320
2E20
2220
6220
A220
AFFC
2220
2220
2220
2420
2420
2820
3020
ENDCHAR
STARTCHAR uni343D
ENCODING 13373
BBX 14 15 1 -1
BITMAP
1000
17F8
2408
2428
2628
6528
6548
E4C8
A448
24C8
2548
262C
282C
280C
3004
ENDCHAR
STARTCHAR uni343E
ENCODING 13374
BBX 14 15 1 -1
BITMAP
1000
17F8
2000
2000
6000
6000
AFFC
A220
2220
2220
2220
2424
2424
2824
3038
ENDCHAR
STARTCHAR uni343F
ENCODING 13375
BBX 14 14 1 -1
BITMAP
103C
3FC0
2040
2040
67FC
6040
A040
2040
2FFC
2040
2040
2040
2040
23C0
ENDCHAR
STARTCHAR uni3440
ENCODING 13376
BBX 14 14 1 -1
BITMAP
1080
3080
2080
2FF8
6080
6080
A140
2140
2140
2220
2230
2510
2888
3044
ENDCHAR
STARTCHAR uni3441
ENCODING 13377
BBX 14 14 1 -1
BITMAP
1040
3040
2248
2248
6248
6248
A3F8
2040
2444
2444
2444
2444
27FC
2004
ENDCHAR
STARTCHAR uni3442
ENCODING 13378
BBX 15 15 1 -1
BITMAP
1000
1FFE
2040
2040
67FC
6444
A444
A464
2494
2494
250C
260C
2404
2404
241C
ENDCHAR
STARTCHAR uni3443
ENCODING 13379
BBX 14 14 1 -1
BITMAP
1220
1220
2420
24FC
68A4
6924
EF24
A324
2224
2244
2544
2BC4
2C44
2098
ENDCHAR
STARTCHAR uni3444
ENCODING 13380
BBX 15 15 1 -1
BITMAP
1000
13FC
2288
2248
2228
6208
AFFE
A808
2888
2848
2848
2808
2FFE
2008
20F0
ENDCHAR
STARTCHAR uni3445
ENCODING 13381
BBX 14 15 1 -1
BITMAP
1100
1100
2200
23FC
6280
6480
A480
A880
20F8
2080
2080
2080
2080
2080
2FFC
ENDCHAR
STARTCHAR uni3446
ENCODING 13382
BBX 14 14 1 -1
BITMAP
17F8
1408
2408
2408
2408
67F8
A120
A120
2120
2120
2224
2624
2C24
3838
ENDCHAR
STARTCHAR uni3447
ENCODING 13383
BBX 14 15 1 -1
BITMAP
1080
1180
21F8
2208
6610
6460
EFFC
A004
2004
27FC
2004
2004
2004
2FFC
2004
ENDCHAR
STARTCHAR uni3448
ENCODING 13384
BBX 14 14 1 -1
BITMAP
1100
3200
2FFC
2200
6480
6480
A880
2FF8
2080
22A0
2490
2888
3084
2380
ENDCHAR
STARTCHAR uni3449
ENCODING 13385
BBX 14 14 1 -1
BITMAP
1FF0
3810
2FF0
2890
6890
68F0
A930
2930
2B50
2CD0
2894
2994
3314
3408
ENDCHAR
STARTCHAR uni344A
ENCODING 13386
BBX 14 14 1 -1
BITMAP
1080
3040
2FFC
2120
6120
6528
A528
292C
2924
3924
3224
2220
2420
28E0
ENDCHAR
STARTCHAR uni344B
ENCODING 13387
BBX 14 14 1 -1
BITMAP
1120
3120
2120
27FC
6524
E524
A524
27FC
2524
2524
2524
2524
27FC
2404
ENDCHAR
STARTCHAR uni344C
ENCODING 13388
BBX 14 15 1 -1
BITMAP
1000
1FFC
2800
2800
6BFC
6840
A840
ABF8
2840
2840
2840
2FFC
2800
2800
2FFC
ENDCHAR
STARTCHAR uni344D
ENCODING 13389
BBX 14 14 1 -1
BITMAP
1080
309C
2FE0
2080
67F8
A080
A080
2FFC
21C0
22A0
2490
2888
3084
2080
ENDCHAR
STARTCHAR uni344E
ENCODING 13390
BBX 14 14 1 -1
BITMAP
1244
3448
2C88
2890
6498
6448
A244
2040
2844
2844
2844
2844
2FFC
2004
ENDCHAR
STARTCHAR uni344F
ENCODING 13391
BBX 14 14 1 -1
BITMAP
1080
3040
2FFC
2804
6814
6010
AFFC
2010
2210
2110
2110
2090
2010
20F0
ENDCHAR
STARTCHAR uni3450
ENCODING 13392
BBX 14 15 1 -1
BITMAP
1080
1080
20FC
2080
6080
6080
AFFC
A080
2290
2490
2488
2888
3084
2084
2380
ENDCHAR
STARTCHAR uni3451
ENCODING 13393
BBX 14 14 1 -1
BITMAP
1040
3080
27FC
2404
6404
A7FC
A404
2404
2404
27FC
2404
2404
27FC
2404
ENDCHAR
STARTCHAR uni3452
ENCODING 13394
BBX 15 14 1 -1
BITMAP
0100
0780
0CC0
3020
CFF0
010C
3FF8
2108
2108
3FF8
0280
0440
1838
E006
ENDCHAR
STARTCHAR uni3453
ENCODING 13395
BBX 14 14 1 -1
BITMAP
1080
1320
2430
2FC8
6200
6FF8
A200
23F8
2508
2490
28A0
2840
31B0
260C
ENDCHAR
STARTCHAR uni3454
ENCODING 13396
BBX 14 14 1 -1
BITMAP
1FFC
1080
2080
27F8
6408
6488
A488
2488
2488
2488
21C0
2130
2608
3804
ENDCHAR
STARTCHAR uni3455
ENCODING 13397
BBX 14 15 1 -1
BITMAP
1040
1844
2844
2844
6FFC
6080
A100
A3F8
2608
2E10
2190
20E0
20C0
2300
2C00
ENDCHAR
STARTCHAR uni3456
ENCODING 13398
BBX 15 14 0 -1
BITMAP
1210
1210
2410
25FE
6D12
6D12
FD12
B512
2512
25FE
2410
2410
2410
2410
ENDCHAR
STARTCHAR uni3457
ENCODING 13399
BBX 14 15 1 -1
BITMAP
1100
1100
27F0
2410
67F0
6410
A7F0
A414
2418
2FF0
2030
2050
2190
2610
38F0
ENDCHAR
STARTCHAR uni3458
ENCODING 13400
BBX 14 15 1 -1
BITMAP
1038
1034
2034
2FFC
6030
64B0
A494
A494
2FD8
2498
2498
2490
28BC
28CC
2184
ENDCHAR
STARTCHAR uni3459
ENCODING 13401
BBX 14 14 1 -1
BITMAP
1FFC
3480
24A0
27A0
64A0
E4A0
A4A0
27A0
24A0
24A0
27A4
2CA4
20A4
20B8
ENDCHAR
STARTCHAR uni345A
ENCODING 13402
BBX 14 15 1 -1
BITMAP
1000
1FBC
22A4
22A8
62A8
6FB0
E2B0
A2B0
2FA8
22A4
22A4
24A4
24B8
28A0
3320
ENDCHAR
STARTCHAR uni345B
ENCODING 13403
BBX 14 15 1 -1
BITMAP
1080
1080
2FFC
2080
6080
67F8
A488
A488
27F8
20C0
23C0
22B0
2488
2884
2080
ENDCHAR
STARTCHAR uni345C
ENCODING 13404
BBX 14 14 1 -1
BITMAP
141C
34F0
2480
2F80
6480
64FC
A590
2E90
3490
2490
2490
2490
2510
2D10
ENDCHAR
STARTCHAR uni345D
ENCODING 13405
BBX 14 14 1 -1
BITMAP
1FFC
3080
2080
27F8
6080
6FFC
A000
2220
2220
2FFC
2220
2620
2C20
3820
ENDCHAR
STARTCHAR uni345E
ENCODING 13406
BBX 14 14 1 -1
BITMAP
1080
3488
2290
2160
6160
6610
BA2C
2220
2FFC
2220
2220
2420
2420
2820
ENDCHAR
STARTCHAR uni345F
ENCODING 13407
BBX 14 14 1 -1
BITMAP
1038
17C0
2400
2400
67FC
6410
A410
A410
2410
2FFC
2000
2130
2608
2C04
ENDCHAR
STARTCHAR uni3460
ENCODING 13408
BBX 15 14 1 -1
BITMAP
11FC
1544
2544
2528
6538
6518
E52C
A542
2040
2040
27FC
2040
2040
2FFE
ENDCHAR
STARTCHAR uni3461
ENCODING 13409
BBX 14 14 1 -1
BITMAP
1FBC
18A4
28A4
28A4
6FA4
68A4
A8A4
AFA4
2824
2924
28A4
28AC
2960
2E60
ENDCHAR
STARTCHAR uni3462
ENCODING 13410
BBX 14 13 1 0
BITMAP
123C
3224
2FA4
2224
6224
E224
AFA4
2224
2224
2524
24AC
2BA0
2C60
ENDCHAR
STARTCHAR uni3463
ENCODING 13411
BBX 14 13 1 0
BITMAP
1220
3220
2220
2F7C
6320
6730
A6F0
2AA8
2AA8
32A4
2220
2220
2220
ENDCHAR
STARTCHAR uni3464
ENCODING 13412
BBX 14 14 1 -1
BITMAP
1220
3220
2F7C
2220
6000
A7F8
A488
2488
2488
27F8
2488
2488
27F8
2408
ENDCHAR
STARTCHAR uni3465
ENCODING 13413
BBX 14 15 1 -1
BITMAP
1000
17F8
2408
27F8
6408
67F8
A100
A300
27FC
3894
2114
2224
2C64
208C
2338
ENDCHAR
STARTCHAR uni3466
ENCODING 13414
BBX 14 14 1 -1
BITMAP
1038
3FC0
2800
2FF8
6808
6808
AFF8
2858
2BF8
2840
28A0
28A0
3318
3404
ENDCHAR
STARTCHAR uni3467
ENCODING 13415
BBX 14 14 1 -1
BITMAP
1038
17C0
2080
2FFC
61C0
62B8
AC84
27F8
2030
20C0
2FFC
2080
2080
2380
ENDCHAR
STARTCHAR uni3468
ENCODING 13416
BBX 14 14 1 -1
BITMAP
17F8
3408
2408
2408
67F8
6200
A7F8
2480
2880
2FFC
20C0
2120
2210
2C0C
ENDCHAR
STARTCHAR uni3469
ENCODING 13417
BBX 14 14 1 -1
BITMAP
1FFC
3924
2924
2924
6FFC
6080
A0F8
2108
2210
2510
28E0
20C0
2180
2E00
ENDCHAR
STARTCHAR uni346A
ENCODING 13418
BBX 14 15 1 -1
BITMAP
1100
1080
2FFC
2410
6320
60C0
E1B0
AE0C
2410
27F0
2410
27F0
2410
2810
3010
ENDCHAR
STARTCHAR uni346B
ENCODING 13419
BBX 14 15 1 -1
BITMAP
1080
11C0
2220
2498
6844
6040
E7F0
A010
2120
20A0
2290
2648
2A18
3214
23F0
ENDCHAR
STARTCHAR uni346C
ENCODING 13420
BBX 15 15 1 -1
BITMAP
1410
1410
2410
3F10
65FE
6910
E910
A910
2A7C
2A44
2644
2644
2544
28FC
3044
ENDCHAR
STARTCHAR uni346D
ENCODING 13421
BBX 14 14 1 -1
BITMAP
17F8
3488
2488
27F8
6488
E488
A7F8
2000
2FFC
2210
2210
2410
2C10
3810
ENDCHAR
STARTCHAR uni346E
ENCODING 13422
BBX 14 15 1 -1
BITMAP
1000
1FFC
2844
2BFC
2040
67FC
E444
A444
27FC
2444
27FC
2040
2FFC
2040
2040
ENDCHAR
STARTCHAR uni346F
ENCODING 13423
BBX 14 15 1 -1
BITMAP
1000
1FFC
2080
2080
67F8
6408
A7F8
A408
27F8
2408
2408
27F8
2120
2618
3804
ENDCHAR
STARTCHAR uni3470
ENCODING 13424
BBX 15 14 1 -1
BITMAP
1100
33F8
2408
27F0
6010
AFFC
A044
23C8
2CF0
2320
2C70
21AC
2222
2CC0
ENDCHAR
STARTCHAR uni3471
ENCODING 13425
BBX 14 15 1 -1
BITMAP
1000
17F8
2310
20E0
2FFC
6144
E248
ADC0
2080
2FFC
2280
24A0
2890
3088
2084
ENDCHAR
STARTCHAR uni3472
ENCODING 13426
BBX 15 14 1 -1
BITMAP
1040
1040
2FFE
2040
6FFC
6914
E994
A8A4
2BF4
2844
2BF4
2844
2844
281C
ENDCHAR
STARTCHAR uni3473
ENCODING 13427
BBX 14 14 1 -1
BITMAP
1200
3FFC
3C84
2494
67F4
6184
AF18
23FC
2484
2C94
2494
27F4
2184
2E18
ENDCHAR
STARTCHAR uni3474
ENCODING 13428
BBX 14 14 1 -1
BITMAP
17F8
3FFC
2008
27F8
6FFC
6884
A7FC
2488
2498
2FF8
2210
2120
21E0
3E1C
ENDCHAR
STARTCHAR uni3475
ENCODING 13429
BBX 14 15 1 -1
BITMAP
1040
1020
23FC
2A80
6A80
6BF8
A320
A620
2A20
2BFC
2220
2420
2450
2D88
2B04
ENDCHAR
STARTCHAR uni3476
ENCODING 13430
BBX 14 15 1 -1
BITMAP
1200
1400
27FC
2800
77F8
6000
EFF0
A010
2950
2590
2FD0
2110
2594
2554
2928
ENDCHAR
STARTCHAR uni3477
ENCODING 13431
BBX 15 14 0 -1
BITMAP
1220
1520
24BE
2B60
2C20
6FBE
E880
ACA0
2AA0
29BC
2EA0
28A2
30A2
33BC
ENDCHAR
STARTCHAR uni3478
ENCODING 13432
BBX 14 14 1 -1
BITMAP
1040
3FFC
2040
27F8
6408
E7F8
A000
2FFC
2008
27C8
2448
27C8
2008
2078
ENDCHAR
STARTCHAR uni3479
ENCODING 13433
BBX 14 14 2 -1
BITMAP
0200
0D80
3FE0
C21C
7FF0
7FF0
4210
7FF0
0000
3FE0
3FE0
2020
3FE0
2020
ENDCHAR
STARTCHAR uni347A
ENCODING 13434
BBX 14 15 1 -1
BITMAP
1280
1240
27FC
2C40
2FF8
7440
E7F8
A440
27FC
2000
2FF0
2278
2208
2408
3870
ENDCHAR
STARTCHAR uni347B
ENCODING 13435
BBX 14 15 1 -1
BITMAP
1080
1040
2FFC
2984
6654
6A68
B284
A724
3BE0
2080
2488
2488
2488
27F8
2008
ENDCHAR
STARTCHAR uni347C
ENCODING 13436
BBX 15 14 0 -1
BITMAP
1020
3F40
2B7C
2B44
6BA8
6B10
AF28
2BC6
2B7C
2B44
2B44
2F44
297C
2044
ENDCHAR
STARTCHAR uni347D
ENCODING 13437
BBX 14 14 1 -1
BITMAP
1448
3250
2260
2FFC
6804
EBF4
A210
2210
23F0
2040
27F8
2040
2040
2FFC
ENDCHAR
STARTCHAR uni347E
ENCODING 13438
BBX 14 15 1 -2
BITMAP
1080
1370
2D88
2370
67C0
6EC0
AFFC
A000
27F8
27F8
2000
27F8
2408
27F8
2408
ENDCHAR
STARTCHAR uni347F
ENCODING 13439
BBX 15 15 1 -1
BITMAP
1244
1C98
2C88
2244
67F8
6488
A7F8
A488
27F8
2080
2FFC
21C0
22A0
2498
2886
ENDCHAR
STARTCHAR uni3480
ENCODING 13440
BBX 15 14 1 -1
BITMAP
10C0
1FFE
2208
2130
6FFC
6844
ABFC
2844
29F4
2914
2914
29F4
2804
281C
ENDCHAR
STARTCHAR uni3481
ENCODING 13441
BBX 14 15 1 -1
BITMAP
1000
1FFC
2844
2BF4
6844
6844
ABFC
A8A4
2BF4
2844
2FFC
2844
2844
2FFC
2804
ENDCHAR
STARTCHAR uni3482
ENCODING 13442
BBX 14 15 1 -1
BITMAP
1220
1220
2FFC
2220
6080
6FF4
E098
AFFC
2040
23F8
3C08
27F8
2408
27F8
2408
ENDCHAR
STARTCHAR uni3483
ENCODING 13443
BBX 14 14 1 -1
BITMAP
101C
3010
2FFC
2FD0
6010
6FD0
AFD0
2850
2FD0
2FD0
2850
2FD4
26CC
3828
ENDCHAR
STARTCHAR uni3484
ENCODING 13444
BBX 15 14 0 -1
BITMAP
1210
339C
2492
2690
69FE
6310
A518
2224
2444
2982
2528
29A4
2894
3092
ENDCHAR
STARTCHAR uni3485
ENCODING 13445
BBX 14 14 1 -1
BITMAP
10C0
3FFC
20F0
2F20
61C0
EEC0
A3F8
2F10
20E0
2F88
2350
2620
3A90
230C
ENDCHAR
STARTCHAR uni3486
ENCODING 13446
BBX 14 15 1 -1
BITMAP
1080
1140
2220
2FF8
7004
67F0
A7F0
A000
2F78
2948
2528
2318
2568
2988
2338
ENDCHAR
ENDFONT
